VotoSerifGX-CondensedText.ufo
<glyph name="four" format="2">
  <advance width="360"/>
  <unicode hex="0034"/>
  <outline>
    <contour>
      <point x="130" y="0" type="line"/>
      <point x="338" y="0" type="line"/>
      <point x="338" y="33" type="line"/>
      <point x="337" y="33" type="line" smooth="yes"/>
      <point x="290" y="33"/>
      <point x="274" y="42"/>
      <point x="274" y="108" type="curve" smooth="yes"/>
      <point x="274" y="200" type="line"/>
      <point x="351" y="200" type="line"/>
      <point x="351" y="241" type="line"/>
      <point x="274" y="241" type="line"/>
      <point x="274" y="714" type="line"/>
      <point x="203" y="714" type="line"/>
      <point x="10" y="235" type="line"/>
      <point x="10" y="200" type="line"/>
      <point x="204" y="200" type="line"/>
      <point x="204" y="108" type="line" smooth="yes"/>
      <point x="204" y="42"/>
      <point x="188" y="33"/>
      <point x="142" y="33" type="curve" smooth="yes"/>
      <point x="130" y="33" type="line"/>
    </contour>
    <contour>
      <point x="52" y="241" type="line"/>
      <point x="149" y="483" type="line" smooth="yes"/>
      <point x="169" y="533"/>
      <point x="197" y="609"/>
      <point x="208" y="645" type="curve"/>
      <point x="204" y="581"/>
      <point x="204" y="501"/>
      <point x="204" y="443" type="curve" smooth="yes"/>
      <point x="204" y="241" type="line"/>
    </contour>
  </outline>
</glyph>
<glyph name="I" format="2">
  <advance width="246"/>
  <unicode hex="0049"/>
  <anchor x="124" y="0" name="bottom"/>
  <anchor x="124" y="714" name="top"/>
  <anchor x="226" y="714" name="topright"/>
  <outline>
    <contour>
      <point x="23" y="0" type="line"/>
      <point x="224" y="0" type="line"/>
      <point x="224" y="33" type="line"/>
      <point x="204" y="33" type="line" smooth="yes"/>
      <point x="169" y="33"/>
      <point x="159" y="46"/>
      <point x="159" y="109" type="curve" smooth="yes"/>
      <point x="159" y="604" type="line" smooth="yes"/>
      <point x="159" y="669"/>
      <point x="167" y="681"/>
      <point x="204" y="681" type="curve" smooth="yes"/>
      <point x="224" y="681" type="line"/>
      <point x="224" y="714" type="line"/>
      <point x="23" y="714" type="line"/>
      <point x="23" y="681" type="line"/>
      <point x="40" y="681" type="line" smooth="yes"/>
      <point x="75" y="681"/>
      <point x="85" y="669"/>
      <point x="85" y="604" type="curve" smooth="yes"/>
      <point x="85" y="109" type="line" smooth="yes"/>
      <point x="85" y="45"/>
      <point x="75" y="33"/>
      <point x="40" y="33" type="curve" smooth="yes"/>
      <point x="23" y="33" type="line"/>
    </contour>
  </outline>
</glyph>
<glyph name="L" format="2">
  <advance width="410"/>
  <unicode hex="004C"/>
  <anchor x="205" y="0" name="bottom"/>
  <anchor x="205" y="357" name="center"/>
  <anchor x="205" y="714" name="top"/>
  <anchor x="390" y="714" name="topright"/>
  <outline>
    <contour>
      <point x="23" y="0" type="line"/>
      <point x="383" y="0" type="line"/>
      <point x="385" y="212" type="line"/>
      <point x="357" y="212" type="line"/>
      <point x="350" y="115" type="line" smooth="yes"/>
      <point x="344" y="58"/>
      <point x="333" y="39"/>
      <point x="292" y="39" type="curve" smooth="yes"/>
      <point x="158" y="39" type="line"/>
      <point x="158" y="606" type="line" smooth="yes"/>
      <point x="158" y="669"/>
      <point x="164" y="681"/>
      <point x="204" y="681" type="curve" smooth="yes"/>
      <point x="224" y="681" type="line"/>
      <point x="224" y="714" type="line"/>
      <point x="23" y="714" type="line"/>
      <point x="23" y="681" type="line"/>
      <point x="36" y="681" type="line" smooth="yes"/>
      <point x="73" y="681"/>
      <point x="83" y="669"/>
      <point x="83" y="604" type="curve" smooth="yes"/>
      <point x="83" y="108" type="line" smooth="yes"/>
      <point x="83" y="45"/>
      <point x="73" y="33"/>
      <point x="38" y="33" type="curve" smooth="yes"/>
      <point x="23" y="33" type="line"/>
    </contour>
  </outline>
</glyph>
<glyph name="O" format="2">
  <advance width="492"/>
  <unicode hex="004F"/>
  <anchor x="246" y="0" name="bottom"/>
  <anchor x="246" y="357" name="center"/>
  <anchor x="246" y="714" name="top"/>
  <anchor x="472" y="714" name="topright"/>
  <outline>
    <contour>
      <point x="246" y="-10" type="curve" smooth="yes"/>
      <point x="370" y="-10"/>
      <point x="455" y="126"/>
      <point x="455" y="358" type="curve" smooth="yes"/>
      <point x="455" y="606"/>
      <point x="379" y="725"/>
      <point x="247" y="725" type="curve" smooth="yes"/>
      <point x="104" y="725"/>
      <point x="37" y="591"/>
      <point x="37" y="359" type="curve" smooth="yes"/>
      <point x="37" y="142"/>
      <point x="104" y="-10"/>
    </contour>
    <contour>
      <point x="246" y="31" type="curve" smooth="yes"/>
      <point x="157" y="31"/>
      <point x="114" y="163"/>
      <point x="114" y="358" type="curve" smooth="yes"/>
      <point x="114" y="565"/>
      <point x="151" y="684"/>
      <point x="247" y="684" type="curve" smooth="yes"/>
      <point x="344" y="684"/>
      <point x="378" y="565"/>
      <point x="378" y="358" type="curve" smooth="yes"/>
      <point x="378" y="155"/>
      <point x="332" y="31"/>
    </contour>
  </outline>
</glyph>
<glyph name="q" format="2">
  <advance width="404"/>
  <unicode hex="0071"/>
  <anchor x="203" y="-235" name="bottom"/>
  <anchor x="203" y="536" name="top"/>
  <anchor x="392" y="536" name="topright"/>
  <outline>
    <contour>
      <point x="190" y="-235" type="line"/>
      <point x="393" y="-235" type="line"/>
      <point x="393" y="-202" type="line"/>
      <point x="396" y="-202" type="line" smooth="yes"/>
      <point x="350" y="-202"/>
      <point x="336" y="-195"/>
      <point x="336" y="-132" type="curve" smooth="yes"/>
      <point x="336" y="429" type="line" smooth="yes"/>
      <point x="336" y="495"/>
      <point x="351" y="503"/>
      <point x="394" y="503" type="curve" smooth="yes"/>
      <point x="394" y="503" type="line"/>
      <point x="394" y="536" type="line"/>
      <point x="279" y="536" type="line"/>
      <point x="271" y="441" type="line"/>
      <point x="268" y="441" type="line"/>
      <point x="253" y="501"/>
      <point x="215" y="546"/>
      <point x="167" y="546" type="curve" smooth="yes"/>
      <point x="91" y="546"/>
      <point x="34" y="480"/>
      <point x="34" y="266" type="curve" smooth="yes"/>
      <point x="34" y="70"/>
      <point x="80" y="-10"/>
      <point x="162" y="-10" type="curve" smooth="yes"/>
      <point x="209" y="-10"/>
      <point x="241" y="30"/>
      <point x="263" y="87" type="curve"/>
      <point x="266" y="87" type="line"/>
      <point x="266" y="61"/>
      <point x="263" y="2"/>
      <point x="263" y="-33" type="curve" smooth="yes"/>
      <point x="263" y="-132" type="line" smooth="yes"/>
      <point x="263" y="-195"/>
      <point x="249" y="-202"/>
      <point x="201" y="-202" type="curve" smooth="yes"/>
      <point x="190" y="-202" type="line"/>
    </contour>
    <contour>
      <point x="180" y="32" type="curve" smooth="yes"/>
      <point x="127" y="32"/>
      <point x="107" y="107"/>
      <point x="107" y="265" type="curve" smooth="yes"/>
      <point x="107" y="448"/>
      <point x="138" y="503"/>
      <point x="181" y="503" type="curve" smooth="yes"/>
      <point x="237" y="503"/>
      <point x="263" y="412"/>
      <point x="263" y="267" type="curve" smooth="yes"/>
      <point x="263" y="115"/>
      <point x="239" y="32"/>
    </contour>
  </outline>
</glyph>
<glyph name="u" format="2">
  <advance width="419"/>
  <unicode hex="0075"/>
  <anchor x="209" y="0" name="bottom"/>
  <anchor x="209" y="536" name="top"/>
  <anchor x="399" y="536" name="topright"/>
  <outline>
    <contour>
      <point x="177" y="-10" type="curve" smooth="yes"/>
      <point x="222" y="-10"/>
      <point x="253" y="17"/>
      <point x="274" y="70" type="curve"/>
      <point x="278" y="70" type="line"/>
      <point x="288" y="0" type="line"/>
      <point x="401" y="0" type="line"/>
      <point x="401" y="33" type="line"/>
      <point x="409" y="33" type="line"/>
      <point x="357" y="33"/>
      <point x="348" y="37"/>
      <point x="348" y="110" type="curve" smooth="yes"/>
      <point x="348" y="536" type="line"/>
      <point x="224" y="536" type="line"/>
      <point x="224" y="503" type="line"/>
      <point x="220" y="503" type="line" smooth="yes"/>
      <point x="272" y="503"/>
      <point x="276" y="497"/>
      <point x="276" y="417" type="curve" smooth="yes"/>
      <point x="276" y="213" type="line" smooth="yes"/>
      <point x="276" y="116"/>
      <point x="255" y="38"/>
      <point x="202" y="38" type="curve" smooth="yes"/>
      <point x="161" y="38"/>
      <point x="138" y="78"/>
      <point x="138" y="196" type="curve" smooth="yes"/>
      <point x="138" y="536" type="line"/>
      <point x="14" y="536" type="line"/>
      <point x="14" y="503" type="line"/>
      <point x="9" y="503" type="line" smooth="yes"/>
      <point x="60" y="503"/>
      <point x="64" y="494"/>
      <point x="64" y="432" type="curve" smooth="yes"/>
      <point x="64" y="185" type="line" smooth="yes"/>
      <point x="64" y="45"/>
      <point x="105" y="-10"/>
    </contour>
  </outline>
</glyph>
<glyph name="z" format="2">
  <advance width="335"/>
  <unicode hex="007A"/>
  <anchor x="168" y="0" name="bottom"/>
  <anchor x="168" y="536" name="top"/>
  <anchor x="311" y="536" name="topright"/>
  <outline>
    <contour>
      <point x="22" y="0" type="line"/>
      <point x="294" y="0" type="line"/>
      <point x="299" y="155" type="line"/>
      <point x="267" y="155" type="line"/>
      <point x="264" y="115" type="line" smooth="yes"/>
      <point x="258" y="56"/>
      <point x="248" y="40"/>
      <point x="200" y="40" type="curve" smooth="yes"/>
      <point x="103" y="40" type="line"/>
      <point x="295" y="506" type="line"/>
      <point x="295" y="536" type="line"/>
      <point x="42" y="536" type="line"/>
      <point x="33" y="403" type="line"/>
      <point x="66" y="403" type="line"/>
      <point x="70" y="426" type="line" smooth="yes"/>
      <point x="78" y="481"/>
      <point x="87" y="496"/>
      <point x="131" y="496" type="curve" smooth="yes"/>
      <point x="214" y="496" type="line"/>
      <point x="22" y="29" type="line"/>
    </contour>
  </outline>
</glyph>
<glyph name="copyright" format="2">
  <advance width="549"/>
  <unicode hex="00A9"/>
  <outline>
    <contour>
      <point x="276" y="-10" type="curve" smooth="yes"/>
      <point x="438" y="-10"/>
      <point x="512" y="158"/>
      <point x="512" y="359" type="curve" smooth="yes"/>
      <point x="512" y="555"/>
      <point x="441" y="725"/>
      <point x="278" y="725" type="curve" smooth="yes"/>
      <point x="114" y="725"/>
      <point x="36" y="556"/>
      <point x="36" y="358" type="curve" smooth="yes"/>
      <point x="36" y="167"/>
      <point x="109" y="-10"/>
    </contour>
    <contour>
      <point x="282" y="107" type="curve" smooth="yes"/>
      <point x="349" y="107"/>
      <point x="382" y="165"/>
      <point x="382" y="210" type="curve" smooth="yes"/>
      <point x="382" y="228"/>
      <point x="375" y="231"/>
      <point x="360" y="237" type="curve"/>
      <point x="344" y="182"/>
      <point x="328" y="139"/>
      <point x="281" y="139" type="curve" smooth="yes"/>
      <point x="213" y="139"/>
      <point x="180" y="221"/>
      <point x="180" y="369" type="curve" smooth="yes"/>
      <point x="180" y="488"/>
      <point x="202" y="573"/>
      <point x="283" y="573" type="curve" smooth="yes"/>
      <point x="360" y="573"/>
      <point x="367" y="514"/>
      <point x="367" y="447" type="curve"/>
      <point x="376" y="446"/>
      <point x="388" y="465"/>
      <point x="388" y="498" type="curve" smooth="yes"/>
      <point x="388" y="545"/>
      <point x="365" y="605"/>
      <point x="284" y="605" type="curve" smooth="yes"/>
      <point x="180" y="605"/>
      <point x="147" y="513"/>
      <point x="147" y="366" type="curve" smooth="yes"/>
      <point x="147" y="199"/>
      <point x="195" y="107"/>
    </contour>
    <contour>
      <point x="280" y="20" type="curve" smooth="yes"/>
      <point x="137" y="20"/>
      <point x="68" y="170"/>
      <point x="68" y="360" type="curve" smooth="yes"/>
      <point x="68" y="546"/>
      <point x="136" y="695"/>
      <point x="277" y="695" type="curve" smooth="yes"/>
      <point x="416" y="695"/>
      <point x="479" y="552"/>
      <point x="479" y="358" type="curve" smooth="yes"/>
      <point x="479" y="166"/>
      <point x="417" y="20"/>
    </contour>
  </outline>
</glyph>
<glyph name="multiply" format="2">
  <advance width="333"/>
  <unicode hex="00D7"/>
  <outline>
    <contour>
      <point x="66" y="160" type="line"/>
      <point x="172" y="327" type="line"/>
      <point x="277" y="162" type="line"/>
      <point x="313" y="188" type="line"/>
      <point x="199" y="365" type="line"/>
      <point x="313" y="542" type="line"/>
      <point x="277" y="567" type="line"/>
      <point x="172" y="402" type="line"/>
      <point x="66" y="569" type="line"/>
      <point x="31" y="544" type="line"/>
      <point x="146" y="365" type="line"/>
      <point x="30" y="185" type="line"/>
    </contour>
  </outline>
</glyph>
<glyph name="uni0186" format="2">
  <advance width="399"/>
  <unicode hex="0186"/>
  <anchor x="200" y="0" name="bottom"/>
  <anchor x="200" y="714" name="top"/>
  <outline>
    <contour>
      <point x="165" y="-10" type="curve" smooth="yes"/>
      <point x="294" y="-10"/>
      <point x="363" y="145"/>
      <point x="363" y="361" type="curve" smooth="yes"/>
      <point x="363" y="589"/>
      <point x="311" y="724"/>
      <point x="173" y="724" type="curve" smooth="yes"/>
      <point x="91" y="724"/>
      <point x="34" y="671"/>
      <point x="34" y="595" type="curve" smooth="yes"/>
      <point x="34" y="551"/>
      <point x="48" y="526"/>
      <point x="88" y="528" type="curve"/>
      <point x="78" y="628"/>
      <point x="103" y="682"/>
      <point x="173" y="682" type="curve" smooth="yes"/>
      <point x="267" y="682"/>
      <point x="285" y="552"/>
      <point x="285" y="358" type="curve" smooth="yes"/>
      <point x="285" y="171"/>
      <point x="251" y="31"/>
      <point x="165" y="31" type="curve" smooth="yes"/>
      <point x="120" y="31"/>
      <point x="102" y="81"/>
      <point x="82" y="136" type="curve"/>
      <point x="44" y="131"/>
      <point x="36" y="116"/>
      <point x="36" y="90" type="curve" smooth="yes"/>
      <point x="36" y="50"/>
      <point x="83" y="-10"/>
    </contour>
  </outline>
</glyph>
<glyph name="uni018A" format="2">
  <advance width="545"/>
  <unicode hex="018A"/>
  <anchor x="275" y="0" name="bottom"/>
  <anchor x="275" y="714" name="top"/>
  <outline>
    <contour>
      <point x="86" y="0" type="line"/>
      <point x="276" y="0" type="line" smooth="yes"/>
      <point x="434" y="0"/>
      <point x="508" y="135"/>
      <point x="508" y="354" type="curve" smooth="yes"/>
      <point x="508" y="587"/>
      <point x="426" y="714"/>
      <point x="279" y="714" type="curve" smooth="yes"/>
      <point x="106" y="714" type="line" smooth="yes"/>
      <point x="37" y="714"/>
      <point x="4" y="669"/>
      <point x="4" y="614" type="curve" smooth="yes"/>
      <point x="4" y="575"/>
      <point x="22" y="552"/>
      <point x="48" y="552" type="curve" smooth="yes"/>
      <point x="60" y="552"/>
      <point x="69" y="556"/>
      <point x="76" y="563" type="curve"/>
      <point x="66" y="575"/>
      <point x="53" y="589"/>
      <point x="53" y="615" type="curve" smooth="yes"/>
      <point x="52" y="656"/>
      <point x="72" y="683"/>
      <point x="100" y="683" type="curve" smooth="yes"/>
      <point x="138" y="683"/>
      <point x="147" y="660"/>
      <point x="147" y="572" type="curve" smooth="yes"/>
      <point x="147" y="112" type="line" smooth="yes"/>
      <point x="147" y="43"/>
      <point x="137" y="33"/>
      <point x="96" y="33" type="curve" smooth="yes"/>
      <point x="86" y="33" type="line"/>
    </contour>
    <contour>
      <point x="221" y="40" type="line"/>
      <point x="221" y="675" type="line"/>
      <point x="276" y="675" type="line" smooth="yes"/>
      <point x="375" y="675"/>
      <point x="430" y="561"/>
      <point x="430" y="354" type="curve" smooth="yes"/>
      <point x="430" y="146"/>
      <point x="374" y="40"/>
      <point x="276" y="40" type="curve" smooth="yes"/>
    </contour>
  </outline>
</glyph>
<glyph name="uni018B" format="2">
  <advance width="403"/>
  <unicode hex="018B"/>
  <anchor x="201" y="0" name="bottom"/>
  <anchor x="201" y="714" name="top"/>
  <outline>
    <contour>
      <point x="186" y="0" type="curve" smooth="yes"/>
      <point x="378" y="0" type="line"/>
      <point x="378" y="33" type="line"/>
      <point x="365" y="33" type="line" smooth="yes"/>
      <point x="324" y="33"/>
      <point x="317" y="45"/>
      <point x="317" y="112" type="curve" smooth="yes"/>
      <point x="317" y="603" type="line" smooth="yes"/>
      <point x="317" y="671"/>
      <point x="325" y="681"/>
      <point x="362" y="681" type="curve" smooth="yes"/>
      <point x="378" y="681" type="line"/>
      <point x="378" y="714" type="line"/>
      <point x="52" y="713" type="line"/>
      <point x="48" y="548" type="line"/>
      <point x="84" y="548" type="line"/>
      <point x="87" y="611" type="line" smooth="yes"/>
      <point x="90" y="660"/>
      <point x="96" y="673"/>
      <point x="152" y="673" type="curve" smooth="yes"/>
      <point x="243" y="675" type="line"/>
      <point x="243" y="392" type="line"/>
      <point x="204" y="392" type="line" smooth="yes"/>
      <point x="70" y="392"/>
      <point x="21" y="325"/>
      <point x="21" y="196" type="curve" smooth="yes"/>
      <point x="21" y="79"/>
      <point x="58" y="0"/>
    </contour>
    <contour>
      <point x="196" y="39" type="line" smooth="yes"/>
      <point x="120" y="39"/>
      <point x="100" y="100"/>
      <point x="100" y="196" type="curve" smooth="yes"/>
      <point x="100" y="309"/>
      <point x="132" y="354"/>
      <point x="217" y="354" type="curve" smooth="yes"/>
      <point x="243" y="354" type="line"/>
      <point x="243" y="39" type="line"/>
    </contour>
  </outline>
</glyph>
<glyph name="uni0193" format="2">
  <advance width="475"/>
  <unicode hex="0193"/>
  <anchor x="238" y="0" name="bottom"/>
  <anchor x="238" y="714" name="top"/>
  <outline>
    <contour>
      <point x="266" y="-10" type="curve" smooth="yes"/>
      <point x="323" y="-10"/>
      <point x="368" y="4"/>
      <point x="414" y="34" type="curve"/>
      <point x="414" y="214" type="line" smooth="yes"/>
      <point x="414" y="281"/>
      <point x="422" y="295"/>
      <point x="468" y="295" type="curve" smooth="yes"/>
      <point x="459" y="295" type="line"/>
      <point x="459" y="328" type="line"/>
      <point x="279" y="328" type="line"/>
      <point x="279" y="295" type="line"/>
      <point x="278" y="295" type="line" smooth="yes"/>
      <point x="331" y="295"/>
      <point x="340" y="282"/>
      <point x="340" y="215" type="curve" smooth="yes"/>
      <point x="340" y="49" type="line"/>
      <point x="323" y="37"/>
      <point x="298" y="31"/>
      <point x="266" y="31" type="curve" smooth="yes"/>
      <point x="154" y="31"/>
      <point x="113" y="142"/>
      <point x="113" y="358" type="curve" smooth="yes"/>
      <point x="113" y="564"/>
      <point x="162" y="683"/>
      <point x="270" y="683" type="curve" smooth="yes"/>
      <point x="334" y="683"/>
      <point x="362" y="619"/>
      <point x="362" y="548" type="curve"/>
      <point x="410" y="548"/>
      <point x="419" y="575"/>
      <point x="419" y="621" type="curve" smooth="yes"/>
      <point x="419" y="694" type="line" smooth="yes"/>
      <point x="419" y="771"/>
      <point x="438" y="797"/>
      <point x="459" y="797" type="curve" smooth="yes"/>
      <point x="477" y="797"/>
      <point x="492" y="781"/>
      <point x="491" y="756" type="curve"/>
      <point x="499" y="764"/>
      <point x="505" y="778"/>
      <point x="505" y="795" type="curve" smooth="yes"/>
      <point x="505" y="830"/>
      <point x="485" y="852"/>
      <point x="452" y="852" type="curve" smooth="yes"/>
      <point x="407" y="852"/>
      <point x="378" y="801"/>
      <point x="378" y="711" type="curve" smooth="yes"/>
      <point x="378" y="686" type="line"/>
      <point x="353" y="708"/>
      <point x="317" y="724"/>
      <point x="270" y="724" type="curve" smooth="yes"/>
      <point x="114" y="724"/>
      <point x="36" y="585"/>
      <point x="36" y="358" type="curve" smooth="yes"/>
      <point x="36" y="121"/>
      <point x="108" y="-10"/>
    </contour>
  </outline>
</glyph>
<glyph name="uni0195" format="2">
  <advance width="598"/>
  <unicode hex="0195"/>
  <anchor x="299" y="0" name="bottom"/>
  <anchor x="299" y="536" name="top"/>
  <outline>
    <contour>
      <point x="402" y="-9" type="curve" smooth="yes"/>
      <point x="510" y="-9"/>
      <point x="539" y="66"/>
      <point x="539" y="202" type="curve" smooth="yes"/>
      <point x="539" y="536" type="line"/>
      <point x="418" y="536" type="line"/>
      <point x="418" y="503" type="line"/>
      <point x="405" y="503" type="line" smooth="yes"/>
      <point x="468" y="503"/>
      <point x="467" y="495"/>
      <point x="467" y="414" type="curve" smooth="yes"/>
      <point x="467" y="172" type="line" smooth="yes"/>
      <point x="467" y="69"/>
      <point x="449" y="32"/>
      <point x="402" y="32" type="curve" smooth="yes"/>
      <point x="369" y="32"/>
      <point x="341" y="53"/>
      <point x="341" y="165" type="curve" smooth="yes"/>
      <point x="341" y="361" type="line" smooth="yes"/>
      <point x="341" y="483"/>
      <point x="303" y="545"/>
      <point x="236" y="545" type="curve" smooth="yes"/>
      <point x="187" y="545"/>
      <point x="158" y="506"/>
      <point x="142" y="464" type="curve"/>
      <point x="140" y="464" type="line" smooth="yes"/>
      <point x="140" y="468"/>
      <point x="142" y="512"/>
      <point x="142" y="536" type="curve" smooth="yes"/>
      <point x="142" y="760" type="line"/>
      <point x="12" y="760" type="line"/>
      <point x="12" y="727" type="line"/>
      <point x="19" y="727" type="line" smooth="yes"/>
      <point x="51" y="727"/>
      <point x="68" y="717"/>
      <point x="68" y="657" type="curve" smooth="yes"/>
      <point x="68" y="107" type="line" smooth="yes"/>
      <point x="68" y="41"/>
      <point x="55" y="33"/>
      <point x="10" y="33" type="curve" smooth="yes"/>
      <point x="12" y="33" type="line"/>
      <point x="12" y="0" type="line"/>
      <point x="193" y="0" type="line"/>
      <point x="193" y="33" type="line"/>
      <point x="196" y="33" type="line" smooth="yes"/>
      <point x="151" y="33"/>
      <point x="141" y="41"/>
      <point x="141" y="105" type="curve" smooth="yes"/>
      <point x="141" y="323" type="line" smooth="yes"/>
      <point x="141" y="432"/>
      <point x="157" y="496"/>
      <point x="205" y="496" type="curve" smooth="yes"/>
      <point x="253" y="496"/>
      <point x="268" y="441"/>
      <point x="268" y="352" type="curve" smooth="yes"/>
      <point x="268" y="200" type="line" smooth="yes"/>
      <point x="268" y="45"/>
      <point x="309" y="-9"/>
    </contour>
  </outline>
</glyph>
<glyph name="uni0197" format="2">
  <advance width="246"/>
  <unicode hex="0197"/>
  <anchor x="124" y="0" name="bottom"/>
  <anchor x="124" y="714" name="top"/>
  <outline>
    <contour>
      <point x="23" y="0" type="line"/>
      <point x="224" y="0" type="line"/>
      <point x="224" y="33" type="line"/>
      <point x="203" y="33" type="line" smooth="yes"/>
      <point x="169" y="33"/>
      <point x="159" y="46"/>
      <point x="159" y="109" type="curve" smooth="yes"/>
      <point x="159" y="353" type="line"/>
      <point x="254" y="353" type="line"/>
      <point x="254" y="396" type="line"/>
      <point x="159" y="396" type="line"/>
      <point x="159" y="605" type="line" smooth="yes"/>
      <point x="159" y="669"/>
      <point x="168" y="681"/>
      <point x="203" y="681" type="curve" smooth="yes"/>
      <point x="224" y="681" type="line"/>
      <point x="224" y="714" type="line"/>
      <point x="23" y="714" type="line"/>
      <point x="23" y="681" type="line"/>
      <point x="40" y="681" type="line" smooth="yes"/>
      <point x="75" y="681"/>
      <point x="85" y="669"/>
      <point x="85" y="605" type="curve" smooth="yes"/>
      <point x="85" y="396" type="line"/>
      <point x="-8" y="396" type="line"/>
      <point x="-8" y="353" type="line"/>
      <point x="85" y="353" type="line"/>
      <point x="85" y="109" type="line" smooth="yes"/>
      <point x="85" y="45"/>
      <point x="75" y="33"/>
      <point x="41" y="33" type="curve" smooth="yes"/>
      <point x="23" y="33" type="line"/>
    </contour>
  </outline>
</glyph>
<glyph name="uni01A3" format="2">
  <advance width="574"/>
  <unicode hex="01A3"/>
  <anchor x="287" y="-240" name="bottom"/>
  <anchor x="287" y="536" name="top"/>
  <outline>
    <contour>
      <point x="437" y="-240" type="line"/>
      <point x="559" y="-240" type="line"/>
      <point x="559" y="-208" type="line"/>
      <point x="574" y="-208" type="line" smooth="yes"/>
      <point x="516" y="-208"/>
      <point x="510" y="-200"/>
      <point x="510" y="-135" type="curve" smooth="yes"/>
      <point x="510" y="389" type="line" smooth="yes"/>
      <point x="510" y="493"/>
      <point x="473" y="545"/>
      <point x="412" y="545" type="curve" smooth="yes"/>
      <point x="351" y="545"/>
      <point x="329" y="496"/>
      <point x="316" y="440" type="curve"/>
      <point x="315" y="440" type="line"/>
      <point x="294" y="509"/>
      <point x="250" y="545"/>
      <point x="188" y="545" type="curve" smooth="yes"/>
      <point x="86" y="545"/>
      <point x="34" y="465"/>
      <point x="34" y="268" type="curve" smooth="yes"/>
      <point x="34" y="74"/>
      <point x="89" y="-10"/>
      <point x="186" y="-10" type="curve" smooth="yes"/>
      <point x="281" y="-10"/>
      <point x="337" y="70"/>
      <point x="337" y="261" type="curve" smooth="yes"/>
      <point x="337" y="355" type="line" smooth="yes"/>
      <point x="337" y="416"/>
      <point x="338" y="497"/>
      <point x="391" y="497" type="curve" smooth="yes"/>
      <point x="422" y="497"/>
      <point x="437" y="451"/>
      <point x="437" y="393" type="curve" smooth="yes"/>
    </contour>
    <contour>
      <point x="186" y="30" type="curve" smooth="yes"/>
      <point x="135" y="30"/>
      <point x="108" y="104"/>
      <point x="108" y="268" type="curve" smooth="yes"/>
      <point x="108" y="433"/>
      <point x="130" y="505"/>
      <point x="185" y="505" type="curve" smooth="yes"/>
      <point x="242" y="505"/>
      <point x="263" y="430"/>
      <point x="263" y="268" type="curve" smooth="yes"/>
      <point x="263" y="92"/>
      <point x="236" y="30"/>
    </contour>
  </outline>
</glyph>
<glyph name="uni01A5" format="2">
  <advance width="406"/>
  <unicode hex="01A5"/>
  <anchor x="204" y="-240" name="bottom"/>
  <anchor x="204" y="764" name="top"/>
  <outline>
    <contour>
      <point x="11" y="-240" type="line"/>
      <point x="198" y="-240" type="line"/>
      <point x="198" y="-207" type="line"/>
      <point x="196" y="-207" type="line" smooth="yes"/>
      <point x="151" y="-207"/>
      <point x="140" y="-199"/>
      <point x="140" y="-135" type="curve" smooth="yes"/>
      <point x="140" y="-30" type="line" smooth="yes"/>
      <point x="140" y="8"/>
      <point x="142" y="57"/>
      <point x="139" y="85" type="curve"/>
      <point x="141" y="85" type="line"/>
      <point x="159" y="29"/>
      <point x="188" y="-10"/>
      <point x="247" y="-10" type="curve" smooth="yes"/>
      <point x="325" y="-10"/>
      <point x="373" y="78"/>
      <point x="373" y="275" type="curve" smooth="yes"/>
      <point x="373" y="469"/>
      <point x="324" y="546"/>
      <point x="242" y="546" type="curve" smooth="yes"/>
      <point x="186" y="546"/>
      <point x="162" y="504"/>
      <point x="140" y="447" type="curve"/>
      <point x="137" y="447" type="line"/>
      <point x="138" y="483"/>
      <point x="140" y="526"/>
      <point x="140" y="566" type="curve"/>
      <point x="140" y="565" type="line" smooth="yes"/>
      <point x="140" y="672"/>
      <point x="145" y="727"/>
      <point x="187" y="727" type="curve" smooth="yes"/>
      <point x="219" y="727"/>
      <point x="221" y="680"/>
      <point x="211" y="645" type="curve"/>
      <point x="252" y="645"/>
      <point x="266" y="667"/>
      <point x="266" y="695" type="curve" smooth="yes"/>
      <point x="266" y="729"/>
      <point x="249" y="764"/>
      <point x="183" y="764" type="curve" smooth="yes"/>
      <point x="98" y="764"/>
      <point x="66" y="699"/>
      <point x="66" y="554" type="curve" smooth="yes"/>
      <point x="67" y="-135" type="line" smooth="yes"/>
      <point x="67" y="-198"/>
      <point x="55" y="-207"/>
      <point x="9" y="-207" type="curve" smooth="yes"/>
      <point x="11" y="-207" type="line"/>
    </contour>
    <contour>
      <point x="225" y="32" type="curve" smooth="yes"/>
      <point x="157" y="32"/>
      <point x="140" y="123"/>
      <point x="140" y="271" type="curve" smooth="yes"/>
      <point x="140" y="422"/>
      <point x="172" y="503"/>
      <point x="224" y="503" type="curve" smooth="yes"/>
      <point x="272" y="503"/>
      <point x="299" y="430"/>
      <point x="299" y="277" type="curve" smooth="yes"/>
      <point x="299" y="127"/>
      <point x="284" y="32"/>
    </contour>
  </outline>
</glyph>
<glyph name="uni01AC" format="2">
  <advance width="416"/>
  <unicode hex="01AC"/>
  <anchor x="208" y="0" name="bottom"/>
  <anchor x="208" y="714" name="top"/>
  <outline>
    <contour>
      <point x="104" y="0" type="line"/>
      <point x="316" y="0" type="line"/>
      <point x="316" y="33" type="line"/>
      <point x="300" y="33" type="line" smooth="yes"/>
      <point x="259" y="33"/>
      <point x="248" y="43"/>
      <point x="248" y="112" type="curve" smooth="yes"/>
      <point x="248" y="675" type="line"/>
      <point x="307" y="675" type="line" smooth="yes"/>
      <point x="359" y="675"/>
      <point x="364" y="653"/>
      <point x="366" y="604" type="curve" smooth="yes"/>
      <point x="369" y="546" type="line"/>
      <point x="404" y="546" type="line"/>
      <point x="401" y="714" type="line"/>
      <point x="125" y="714" type="line" smooth="yes"/>
      <point x="41" y="714"/>
      <point x="4" y="660"/>
      <point x="4" y="600" type="curve" smooth="yes"/>
      <point x="4" y="560"/>
      <point x="24" y="533"/>
      <point x="54" y="533" type="curve" smooth="yes"/>
      <point x="64" y="533"/>
      <point x="73" y="537"/>
      <point x="80" y="544" type="curve"/>
      <point x="67" y="555"/>
      <point x="56" y="571"/>
      <point x="56" y="600" type="curve" smooth="yes"/>
      <point x="56" y="648"/>
      <point x="80" y="675"/>
      <point x="123" y="675" type="curve" smooth="yes"/>
      <point x="173" y="675" type="line"/>
      <point x="173" y="112" type="line" smooth="yes"/>
      <point x="173" y="43"/>
      <point x="162" y="33"/>
      <point x="123" y="33" type="curve" smooth="yes"/>
      <point x="104" y="33" type="line"/>
    </contour>
  </outline>
</glyph>
<glyph name="uhorn" format="2">
  <advance width="442"/>
  <unicode hex="01B0"/>
  <anchor x="222" y="0" name="bottom"/>
  <anchor x="222" y="536" name="top"/>
  <outline>
    <contour>
      <point x="177" y="-10" type="curve" smooth="yes"/>
      <point x="222" y="-10"/>
      <point x="252" y="15"/>
      <point x="274" y="70" type="curve"/>
      <point x="278" y="70" type="line"/>
      <point x="287" y="0" type="line"/>
      <point x="401" y="0" type="line"/>
      <point x="401" y="33" type="line"/>
      <point x="409" y="33" type="line" smooth="yes"/>
      <point x="357" y="33"/>
      <point x="348" y="37"/>
      <point x="348" y="110" type="curve" smooth="yes"/>
      <point x="348" y="404" type="line"/>
      <point x="418" y="425"/>
      <point x="464" y="479"/>
      <point x="464" y="565" type="curve" smooth="yes"/>
      <point x="464" y="605"/>
      <point x="444" y="628"/>
      <point x="418" y="628" type="curve" smooth="yes"/>
      <point x="396" y="628"/>
      <point x="381" y="609"/>
      <point x="381" y="580" type="curve" smooth="yes"/>
      <point x="381" y="547"/>
      <point x="406" y="536"/>
      <point x="406" y="510" type="curve" smooth="yes"/>
      <point x="406" y="477"/>
      <point x="390" y="455"/>
      <point x="348" y="437" type="curve"/>
      <point x="348" y="536" type="line"/>
      <point x="224" y="536" type="line"/>
      <point x="224" y="503" type="line"/>
      <point x="218" y="503" type="line" smooth="yes"/>
      <point x="272" y="503"/>
      <point x="276" y="497"/>
      <point x="276" y="417" type="curve" smooth="yes"/>
      <point x="276" y="213" type="line" smooth="yes"/>
      <point x="276" y="116"/>
      <point x="255" y="38"/>
      <point x="201" y="38" type="curve" smooth="yes"/>
      <point x="163" y="38"/>
      <point x="138" y="87"/>
      <point x="138" y="196" type="curve" smooth="yes"/>
      <point x="138" y="536" type="line"/>
      <point x="14" y="536" type="line"/>
      <point x="14" y="503" type="line"/>
      <point x="7" y="503" type="line" smooth="yes"/>
      <point x="60" y="503"/>
      <point x="64" y="495"/>
      <point x="64" y="432" type="curve" smooth="yes"/>
      <point x="64" y="185" type="line" smooth="yes"/>
      <point x="64" y="45"/>
      <point x="107" y="-10"/>
    </contour>
  </outline>
</glyph>
<glyph name="uni01B2" format="2">
  <advance width="461"/>
  <unicode hex="01B2"/>
  <anchor x="230" y="0" name="bottom"/>
  <anchor x="230" y="714" name="top"/>
  <outline>
    <contour>
      <point x="186" y="-10" type="curve" smooth="yes"/>
      <point x="337" y="-10"/>
      <point x="431" y="281"/>
      <point x="431" y="523" type="curve" smooth="yes"/>
      <point x="431" y="698"/>
      <point x="390" y="726"/>
      <point x="356" y="726" type="curve" smooth="yes"/>
      <point x="330" y="726"/>
      <point x="317" y="708"/>
      <point x="318" y="681" type="curve"/>
      <point x="366" y="681"/>
      <point x="387" y="657"/>
      <point x="387" y="511" type="curve" smooth="yes"/>
      <point x="387" y="311"/>
      <point x="314" y="32"/>
      <point x="199" y="32" type="curve" smooth="yes"/>
      <point x="159" y="32"/>
      <point x="145" y="74"/>
      <point x="145" y="179" type="curve" smooth="yes"/>
      <point x="145" y="603" type="line" smooth="yes"/>
      <point x="145" y="673"/>
      <point x="159" y="681"/>
      <point x="196" y="681" type="curve" smooth="yes"/>
      <point x="212" y="681" type="line"/>
      <point x="212" y="714" type="line"/>
      <point x="10" y="714" type="line"/>
      <point x="10" y="681" type="line"/>
      <point x="18" y="681" type="line" smooth="yes"/>
      <point x="59" y="681"/>
      <point x="71" y="671"/>
      <point x="71" y="607" type="curve" smooth="yes"/>
      <point x="71" y="206" type="line" smooth="yes"/>
      <point x="71" y="61"/>
      <point x="95" y="-10"/>
    </contour>
  </outline>
</glyph>
<glyph name="uni01B4" format="2">
  <advance width="405"/>
  <unicode hex="01B4"/>
  <anchor x="202" y="-240" name="bottom"/>
  <anchor x="202" y="536" name="top"/>
  <outline>
    <contour>
      <point x="23" y="-240" type="line"/>
      <point x="29" y="-240" type="line" smooth="yes"/>
      <point x="126" y="-240"/>
      <point x="167" y="-208"/>
      <point x="207" y="-35" type="curve" smooth="yes"/>
      <point x="308" y="382" type="line" smooth="yes"/>
      <point x="327" y="461"/>
      <point x="336" y="492"/>
      <point x="358" y="492" type="curve" smooth="yes"/>
      <point x="372" y="492"/>
      <point x="387" y="483"/>
      <point x="387" y="449" type="curve"/>
      <point x="397" y="456"/>
      <point x="408" y="469"/>
      <point x="408" y="496" type="curve" smooth="yes"/>
      <point x="408" y="525"/>
      <point x="392" y="548"/>
      <point x="363" y="548" type="curve" smooth="yes"/>
      <point x="317" y="548"/>
      <point x="297" y="502"/>
      <point x="277" y="410" type="curve" smooth="yes"/>
      <point x="233" y="215" type="line" smooth="yes"/>
      <point x="221" y="162"/>
      <point x="212" y="110"/>
      <point x="207" y="78" type="curve"/>
      <point x="203" y="107"/>
      <point x="195" y="158"/>
      <point x="175" y="236" type="curve" smooth="yes"/>
      <point x="129" y="424" type="line" smooth="yes"/>
      <point x="124" y="448"/>
      <point x="121" y="466"/>
      <point x="121" y="477" type="curve" smooth="yes"/>
      <point x="121" y="494"/>
      <point x="129" y="503"/>
      <point x="171" y="503" type="curve" smooth="yes"/>
      <point x="169" y="503" type="line"/>
      <point x="169" y="536" type="line"/>
      <point x="2" y="536" type="line"/>
      <point x="2" y="500" type="line"/>
      <point x="4" y="500" type="line" smooth="yes"/>
      <point x="32" y="500"/>
      <point x="41" y="493"/>
      <point x="55" y="440" type="curve" smooth="yes"/>
      <point x="168" y="-1" type="line"/>
      <point x="132" y="-152"/>
      <point x="120" y="-202"/>
      <point x="23" y="-202" type="curve"/>
    </contour>
  </outline>
</glyph>
<glyph name="uni01B8" format="2">
  <advance width="394"/>
  <unicode hex="01B8"/>
  <anchor x="197" y="0" name="bottom"/>
  <anchor x="197" y="714" name="top"/>
  <outline>
    <contour>
      <point x="220" y="-11" type="curve" smooth="yes"/>
      <point x="324" y="-11"/>
      <point x="371" y="48"/>
      <point x="371" y="94" type="curve" smooth="yes"/>
      <point x="371" y="119"/>
      <point x="353" y="133"/>
      <point x="330" y="138" type="curve"/>
      <point x="305" y="80"/>
      <point x="289" y="29"/>
      <point x="224" y="29" type="curve" smooth="yes"/>
      <point x="155" y="29"/>
      <point x="104" y="62"/>
      <point x="104" y="185" type="curve" smooth="yes"/>
      <point x="104" y="295"/>
      <point x="149" y="356"/>
      <point x="217" y="356" type="curve" smooth="yes"/>
      <point x="259" y="356" type="line"/>
      <point x="259" y="389" type="line"/>
      <point x="112" y="658" type="line"/>
      <point x="237" y="658" type="line" smooth="yes"/>
      <point x="290" y="658"/>
      <point x="300" y="647"/>
      <point x="301" y="590" type="curve" smooth="yes"/>
      <point x="302" y="568" type="line"/>
      <point x="338" y="568" type="line"/>
      <point x="334" y="714" type="line"/>
      <point x="59" y="714" type="line"/>
      <point x="59" y="672" type="line"/>
      <point x="207" y="395" type="line"/>
      <point x="107" y="394"/>
      <point x="33" y="325"/>
      <point x="33" y="185" type="curve" smooth="yes"/>
      <point x="33" y="45"/>
      <point x="110" y="-11"/>
    </contour>
  </outline>
</glyph>
<glyph name="uni01BB" format="2">
  <advance width="358"/>
  <unicode hex="01BB"/>
  <anchor x="180" y="0" name="bottom"/>
  <anchor x="180" y="761" name="top"/>
  <outline>
    <contour>
      <point x="33" y="0" type="line"/>
      <point x="324" y="0" type="line"/>
      <point x="325" y="164" type="line"/>
      <point x="292" y="164" type="line"/>
      <point x="289" y="130" type="line" smooth="yes"/>
      <point x="285" y="86"/>
      <point x="268" y="61"/>
      <point x="240" y="61" type="curve" smooth="yes"/>
      <point x="88" y="61" type="line"/>
      <point x="161" y="248" type="line" smooth="yes"/>
      <point x="162" y="290"/>
      <point x="214" y="333"/>
      <point x="234" y="369" type="curve"/>
      <point x="317" y="369" type="line"/>
      <point x="317" y="407" type="line"/>
      <point x="258" y="407" type="line"/>
      <point x="289" y="469"/>
      <point x="303" y="520"/>
      <point x="303" y="585" type="curve" smooth="yes"/>
      <point x="303" y="691"/>
      <point x="257" y="761"/>
      <point x="168" y="761" type="curve" smooth="yes"/>
      <point x="77" y="761"/>
      <point x="41" y="685"/>
      <point x="41" y="622" type="curve" smooth="yes"/>
      <point x="41" y="576"/>
      <point x="61" y="563"/>
      <point x="93" y="563" type="curve"/>
      <point x="93" y="664"/>
      <point x="120" y="721"/>
      <point x="164" y="721" type="curve" smooth="yes"/>
      <point x="210" y="721"/>
      <point x="228" y="670"/>
      <point x="228" y="579" type="curve" smooth="yes"/>
      <point x="228" y="516"/>
      <point x="218" y="469"/>
      <point x="194" y="407" type="curve"/>
      <point x="43" y="407" type="line"/>
      <point x="43" y="369" type="line"/>
      <point x="173" y="369" type="line"/>
      <point x="161" y="342"/>
      <point x="147" y="312"/>
      <point x="130" y="276" type="curve" smooth="yes"/>
      <point x="33" y="51" type="line"/>
    </contour>
  </outline>
</glyph>
<glyph name="uni021C" format="2">
  <advance width="377"/>
  <unicode hex="021C"/>
  <anchor x="185" y="-94" name="bottom"/>
  <anchor x="181" y="714" name="top"/>
  <outline>
    <contour>
      <point x="42" y="-160" type="line"/>
      <point x="201" y="-107"/>
      <point x="336" y="0"/>
      <point x="336" y="181" type="curve" smooth="yes"/>
      <point x="336" y="305"/>
      <point x="275" y="358"/>
      <point x="212" y="388" type="curve"/>
      <point x="269" y="417"/>
      <point x="337" y="467"/>
      <point x="337" y="557" type="curve" smooth="yes"/>
      <point x="337" y="659"/>
      <point x="272" y="725"/>
      <point x="184" y="725" type="curve" smooth="yes"/>
      <point x="91" y="725"/>
      <point x="41" y="657"/>
      <point x="41" y="592" type="curve" smooth="yes"/>
      <point x="41" y="557"/>
      <point x="54" y="533"/>
      <point x="97" y="533" type="curve"/>
      <point x="97" y="636"/>
      <point x="123" y="685"/>
      <point x="181" y="685" type="curve" smooth="yes"/>
      <point x="228" y="685"/>
      <point x="255" y="637"/>
      <point x="255" y="551" type="curve" smooth="yes"/>
      <point x="255" y="459"/>
      <point x="216" y="421"/>
      <point x="108" y="368" type="curve"/>
      <point x="126" y="332" type="line"/>
      <point x="149" y="345"/>
      <point x="160" y="353"/>
      <point x="182" y="365" type="curve"/>
      <point x="217" y="333"/>
      <point x="249" y="280"/>
      <point x="249" y="184" type="curve" smooth="yes"/>
      <point x="249" y="31"/>
      <point x="143" y="-69"/>
      <point x="42" y="-120" type="curve"/>
    </contour>
  </outline>
</glyph>
<glyph name="uni023A" format="2">
  <advance width="469"/>
  <unicode hex="023A"/>
  <anchor x="235" y="0" name="bottom"/>
  <anchor x="235" y="714" name="top"/>
  <anchor x="375" y="714" name="topright"/>
  <outline>
    <contour>
      <point x="124" y="-80" type="line"/>
      <point x="164" y="-80" type="line"/>
      <point x="357" y="760" type="line"/>
      <point x="318" y="760" type="line"/>
    </contour>
    <component base="A"/>
  </outline>
</glyph>
<glyph name="uni0240" format="2">
  <advance width="330"/>
  <unicode hex="0240"/>
  <anchor x="166" y="-239" name="bottom"/>
  <anchor x="166" y="536" name="top"/>
  <outline>
    <contour>
      <point x="264" y="-239" type="curve" smooth="yes"/>
      <point x="309" y="-239"/>
      <point x="329" y="-199"/>
      <point x="329" y="-153" type="curve" smooth="yes"/>
      <point x="329" y="-123"/>
      <point x="317" y="-104"/>
      <point x="292" y="-103" type="curve"/>
      <point x="292" y="-171"/>
      <point x="284" y="-196"/>
      <point x="257" y="-196" type="curve" smooth="yes"/>
      <point x="226" y="-196"/>
      <point x="212" y="-144"/>
      <point x="193" y="-89" type="curve" smooth="yes"/>
      <point x="171" y="-26"/>
      <point x="158" y="17"/>
      <point x="97" y="33" type="curve"/>
      <point x="295" y="506" type="line"/>
      <point x="295" y="536" type="line"/>
      <point x="42" y="536" type="line"/>
      <point x="33" y="403" type="line"/>
      <point x="66" y="403" type="line"/>
      <point x="70" y="425" type="line" smooth="yes"/>
      <point x="77" y="481"/>
      <point x="84" y="496"/>
      <point x="115" y="496" type="curve" smooth="yes"/>
      <point x="214" y="496" type="line"/>
      <point x="22" y="29" type="line"/>
      <point x="22" y="0" type="line"/>
      <point x="49" y="0" type="line" smooth="yes"/>
      <point x="109" y="0"/>
      <point x="130" y="-31"/>
      <point x="167" y="-130" type="curve" smooth="yes"/>
      <point x="199" y="-219"/>
      <point x="226" y="-239"/>
    </contour>
  </outline>
</glyph>
<glyph name="uni0255" format="2">
  <advance width="321"/>
  <unicode hex="0255"/>
  <anchor x="161" y="0" name="bottom"/>
  <anchor x="161" y="536" name="top"/>
  <outline>
    <contour>
      <point x="88" y="-32" type="line"/>
      <point x="93" y="-10"/>
      <point x="97" y="9"/>
      <point x="104" y="26" type="curve"/>
      <point x="124" y="2"/>
      <point x="158" y="-10"/>
      <point x="190" y="-10" type="curve" smooth="yes"/>
      <point x="276" y="-10"/>
      <point x="313" y="49"/>
      <point x="313" y="134" type="curve" smooth="yes"/>
      <point x="313" y="199"/>
      <point x="287" y="242"/>
      <point x="230" y="242" type="curve" smooth="yes"/>
      <point x="174" y="242"/>
      <point x="138" y="192"/>
      <point x="117" y="133" type="curve"/>
      <point x="111" y="165"/>
      <point x="107" y="209"/>
      <point x="107" y="265" type="curve" smooth="yes"/>
      <point x="107" y="457"/>
      <point x="138" y="506"/>
      <point x="185" y="506" type="curve" smooth="yes"/>
      <point x="229" y="506"/>
      <point x="240" y="467"/>
      <point x="240" y="388" type="curve"/>
      <point x="286" y="387"/>
      <point x="301" y="408"/>
      <point x="301" y="442" type="curve" smooth="yes"/>
      <point x="301" y="499"/>
      <point x="269" y="545"/>
      <point x="183" y="545" type="curve" smooth="yes"/>
      <point x="94" y="545"/>
      <point x="34" y="482"/>
      <point x="34" y="264" type="curve" smooth="yes"/>
      <point x="34" y="172"/>
      <point x="48" y="111"/>
      <point x="70" y="64" type="curve"/>
      <point x="63" y="42"/>
      <point x="57" y="18"/>
      <point x="50" y="-12" type="curve"/>
    </contour>
    <contour>
      <point x="204" y="34" type="curve" smooth="yes"/>
      <point x="173" y="34"/>
      <point x="151" y="44"/>
      <point x="132" y="81" type="curve"/>
      <point x="157" y="157"/>
      <point x="192" y="201"/>
      <point x="226" y="201" type="curve" smooth="yes"/>
      <point x="252" y="201"/>
      <point x="272" y="179"/>
      <point x="272" y="130" type="curve" smooth="yes"/>
      <point x="272" y="76"/>
      <point x="257" y="34"/>
    </contour>
  </outline>
</glyph>
<glyph name="uni0256" format="2">
  <advance width="406"/>
  <unicode hex="0256"/>
  <anchor x="204" y="-240" name="bottom"/>
  <anchor x="204" y="760" name="top"/>
  <outline>
    <contour>
      <point x="363" y="-240" type="curve" smooth="yes"/>
      <point x="392" y="-240"/>
      <point x="416" y="-233"/>
      <point x="427" y="-224" type="curve"/>
      <point x="427" y="-188" type="line"/>
      <point x="416" y="-195"/>
      <point x="399" y="-201"/>
      <point x="388" y="-201" type="curve" smooth="yes"/>
      <point x="356" y="-201"/>
      <point x="335" y="-168"/>
      <point x="335" y="-82" type="curve" smooth="yes"/>
      <point x="335" y="760" type="line"/>
      <point x="206" y="760" type="line"/>
      <point x="206" y="727" type="line"/>
      <point x="203" y="727" type="line" smooth="yes"/>
      <point x="249" y="727"/>
      <point x="262" y="720"/>
      <point x="262" y="649" type="curve" smooth="yes"/>
      <point x="262" y="560" type="line" smooth="yes"/>
      <point x="262" y="522"/>
      <point x="264" y="466"/>
      <point x="266" y="458" type="curve" smooth="yes"/>
      <point x="263" y="458" type="line"/>
      <point x="243" y="508"/>
      <point x="218" y="546"/>
      <point x="169" y="546" type="curve" smooth="yes"/>
      <point x="94" y="546"/>
      <point x="34" y="483"/>
      <point x="34" y="267" type="curve" smooth="yes"/>
      <point x="34" y="55"/>
      <point x="83" y="-10"/>
      <point x="164" y="-10" type="curve" smooth="yes"/>
      <point x="218" y="-10"/>
      <point x="249" y="29"/>
      <point x="265" y="94" type="curve"/>
      <point x="267" y="94" type="line"/>
      <point x="264" y="40"/>
      <point x="262" y="1"/>
      <point x="262" y="-33" type="curve" smooth="yes"/>
      <point x="262" y="-90" type="line" smooth="yes"/>
      <point x="262" y="-199"/>
      <point x="296" y="-240"/>
    </contour>
    <contour>
      <point x="184" y="34" type="curve" smooth="yes"/>
      <point x="129" y="34"/>
      <point x="107" y="97"/>
      <point x="107" y="266" type="curve" smooth="yes"/>
      <point x="107" y="443"/>
      <point x="143" y="503"/>
      <point x="188" y="503" type="curve" smooth="yes"/>
      <point x="243" y="503"/>
      <point x="263" y="418"/>
      <point x="263" y="266" type="curve" smooth="yes"/>
      <point x="263" y="109"/>
      <point x="236" y="33"/>
    </contour>
  </outline>
</glyph>
<glyph name="schwahook" format="2">
  <advance width="516"/>
  <unicode hex="025A"/>
  <anchor x="269" y="0" name="bottom"/>
  <anchor x="269" y="536" name="top"/>
  <outline>
    <contour>
      <point x="179" y="-10" type="curve" smooth="yes"/>
      <point x="274" y="-10"/>
      <point x="328" y="85"/>
      <point x="328" y="272" type="curve" smooth="yes"/>
      <point x="328" y="284"/>
      <point x="328" y="297"/>
      <point x="328" y="309" type="curve"/>
      <point x="368" y="322" type="line"/>
      <point x="381" y="274" type="line" smooth="yes"/>
      <point x="399" y="207"/>
      <point x="421" y="173"/>
      <point x="466" y="173" type="curve" smooth="yes"/>
      <point x="504" y="173"/>
      <point x="519" y="201"/>
      <point x="519" y="235" type="curve" smooth="yes"/>
      <point x="519" y="251"/>
      <point x="514" y="265"/>
      <point x="503" y="274" type="curve"/>
      <point x="502" y="250"/>
      <point x="494" y="231"/>
      <point x="472" y="231" type="curve" smooth="yes"/>
      <point x="448" y="231"/>
      <point x="434" y="247"/>
      <point x="422" y="296" type="curve" smooth="yes"/>
      <point x="401" y="373" type="line"/>
      <point x="325" y="346" type="line"/>
      <point x="310" y="474"/>
      <point x="257" y="545"/>
      <point x="171" y="545" type="curve" smooth="yes"/>
      <point x="90" y="545"/>
      <point x="53" y="488"/>
      <point x="53" y="450" type="curve" smooth="yes"/>
      <point x="53" y="432"/>
      <point x="61" y="422"/>
      <point x="70" y="419" type="curve"/>
      <point x="84" y="460"/>
      <point x="109" y="501"/>
      <point x="157" y="501" type="curve" smooth="yes"/>
      <point x="217" y="501"/>
      <point x="253" y="440"/>
      <point x="255" y="320" type="curve"/>
      <point x="38" y="239" type="line"/>
      <point x="38" y="229" type="line" smooth="yes"/>
      <point x="38" y="88"/>
      <point x="86" y="-10"/>
    </contour>
    <contour>
      <point x="177" y="30" type="curve" smooth="yes"/>
      <point x="125" y="30"/>
      <point x="112" y="115"/>
      <point x="110" y="225" type="curve"/>
      <point x="254" y="278" type="line"/>
      <point x="254" y="264"/>
      <point x="254" y="250"/>
      <point x="254" y="235" type="curve" smooth="yes"/>
      <point x="251" y="93"/>
      <point x="220" y="30"/>
    </contour>
  </outline>
</glyph>
<glyph name="uni0266" format="2">
  <advance width="418"/>
  <unicode hex="0266"/>
  <anchor x="209" y="0" name="bottom"/>
  <anchor x="209" y="764" name="top"/>
  <outline>
    <contour>
      <point x="11" y="0" type="line"/>
      <point x="193" y="0" type="line"/>
      <point x="193" y="33" type="line"/>
      <point x="196" y="33" type="line" smooth="yes"/>
      <point x="151" y="33"/>
      <point x="141" y="41"/>
      <point x="141" y="105" type="curve" smooth="yes"/>
      <point x="141" y="323" type="line" smooth="yes"/>
      <point x="141" y="432"/>
      <point x="158" y="496"/>
      <point x="209" y="496" type="curve" smooth="yes"/>
      <point x="261" y="496"/>
      <point x="277" y="441"/>
      <point x="277" y="352" type="curve" smooth="yes"/>
      <point x="277" y="0" type="line"/>
      <point x="400" y="0" type="line"/>
      <point x="400" y="33" type="line"/>
      <point x="398" y="33" type="line" smooth="yes"/>
      <point x="356" y="33"/>
      <point x="350" y="44"/>
      <point x="350" y="106" type="curve" smooth="yes"/>
      <point x="350" y="361" type="line" smooth="yes"/>
      <point x="350" y="483"/>
      <point x="310" y="545"/>
      <point x="241" y="545" type="curve" smooth="yes"/>
      <point x="190" y="545"/>
      <point x="159" y="506"/>
      <point x="141" y="464" type="curve"/>
      <point x="138" y="464" type="line"/>
      <point x="140" y="486"/>
      <point x="141" y="508"/>
      <point x="141" y="526" type="curve" smooth="yes"/>
      <point x="141" y="571" type="line" smooth="yes"/>
      <point x="141" y="674"/>
      <point x="147" y="727"/>
      <point x="186" y="727" type="curve" smooth="yes"/>
      <point x="219" y="727"/>
      <point x="222" y="685"/>
      <point x="212" y="645" type="curve"/>
      <point x="254" y="645"/>
      <point x="267" y="669"/>
      <point x="267" y="695" type="curve" smooth="yes"/>
      <point x="267" y="732"/>
      <point x="245" y="764"/>
      <point x="183" y="764" type="curve" smooth="yes"/>
      <point x="97" y="764"/>
      <point x="68" y="697"/>
      <point x="68" y="556" type="curve" smooth="yes"/>
      <point x="68" y="107" type="line" smooth="yes"/>
      <point x="68" y="41"/>
      <point x="55" y="33"/>
      <point x="10" y="33" type="curve" smooth="yes"/>
      <point x="11" y="33" type="line"/>
    </contour>
  </outline>
</glyph>
<glyph name="uni0268" format="2">
  <advance width="215"/>
  <unicode hex="0268"/>
  <anchor x="108" y="0" name="bottom"/>
  <anchor x="108" y="750" name="top"/>
  <outline>
    <contour>
      <point x="13" y="0" type="line"/>
      <point x="205" y="0" type="line"/>
      <point x="205" y="33" type="line"/>
      <point x="200" y="33" type="line" smooth="yes"/>
      <point x="159" y="33"/>
      <point x="148" y="43"/>
      <point x="148" y="108" type="curve" smooth="yes"/>
      <point x="148" y="265" type="line"/>
      <point x="210" y="265" type="line"/>
      <point x="210" y="303" type="line"/>
      <point x="148" y="303" type="line"/>
      <point x="148" y="536" type="line"/>
      <point x="17" y="536" type="line"/>
      <point x="17" y="503" type="line"/>
      <point x="21" y="503" type="line" smooth="yes"/>
      <point x="66" y="503"/>
      <point x="75" y="492"/>
      <point x="75" y="427" type="curve" smooth="yes"/>
      <point x="75" y="303" type="line"/>
      <point x="7" y="303" type="line"/>
      <point x="7" y="265" type="line"/>
      <point x="75" y="265" type="line"/>
      <point x="75" y="108" type="line" smooth="yes"/>
      <point x="75" y="43"/>
      <point x="64" y="33"/>
      <point x="20" y="33" type="curve" smooth="yes"/>
      <point x="13" y="33" type="line"/>
    </contour>
    <contour>
      <point x="107" y="646" type="curve" smooth="yes"/>
      <point x="131" y="646"/>
      <point x="151" y="660"/>
      <point x="151" y="698" type="curve" smooth="yes"/>
      <point x="151" y="736"/>
      <point x="131" y="750"/>
      <point x="107" y="750" type="curve" smooth="yes"/>
      <point x="81" y="750"/>
      <point x="64" y="736"/>
      <point x="64" y="698" type="curve" smooth="yes"/>
      <point x="64" y="660"/>
      <point x="81" y="646"/>
    </contour>
  </outline>
</glyph>
<glyph name="uni0273" format="2">
  <advance width="424"/>
  <unicode hex="0273"/>
  <anchor x="212" y="-240" name="bottom"/>
  <anchor x="212" y="536" name="top"/>
  <outline>
    <contour>
      <point x="384" y="-240" type="curve" smooth="yes"/>
      <point x="413" y="-240"/>
      <point x="434" y="-233"/>
      <point x="448" y="-225" type="curve"/>
      <point x="448" y="-190" type="line"/>
      <point x="433" y="-197"/>
      <point x="418" y="-201"/>
      <point x="408" y="-201" type="curve" smooth="yes"/>
      <point x="365" y="-201"/>
      <point x="354" y="-155"/>
      <point x="354" y="-86" type="curve" smooth="yes"/>
      <point x="354" y="362" type="line" smooth="yes"/>
      <point x="354" y="490"/>
      <point x="321" y="545"/>
      <point x="244" y="545" type="curve" smooth="yes"/>
      <point x="188" y="545"/>
      <point x="163" y="508"/>
      <point x="146" y="465" type="curve"/>
      <point x="144" y="465" type="line"/>
      <point x="139" y="536" type="line"/>
      <point x="19" y="536" type="line"/>
      <point x="19" y="503" type="line"/>
      <point x="14" y="503" type="line" smooth="yes"/>
      <point x="65" y="503"/>
      <point x="73" y="496"/>
      <point x="73" y="432" type="curve" smooth="yes"/>
      <point x="73" y="107" type="line" smooth="yes"/>
      <point x="73" y="41"/>
      <point x="62" y="33"/>
      <point x="15" y="33" type="curve" smooth="yes"/>
      <point x="16" y="33" type="line"/>
      <point x="16" y="0" type="line"/>
      <point x="200" y="0" type="line"/>
      <point x="200" y="33" type="line"/>
      <point x="201" y="33" type="line" smooth="yes"/>
      <point x="155" y="33"/>
      <point x="146" y="41"/>
      <point x="146" y="105" type="curve" smooth="yes"/>
      <point x="146" y="323" type="line" smooth="yes"/>
      <point x="146" y="455"/>
      <point x="191" y="497"/>
      <point x="221" y="497" type="curve" smooth="yes"/>
      <point x="265" y="497"/>
      <point x="281" y="442"/>
      <point x="281" y="350" type="curve" smooth="yes"/>
      <point x="281" y="-88" type="line" smooth="yes"/>
      <point x="281" y="-196"/>
      <point x="314" y="-240"/>
    </contour>
  </outline>
</glyph>
<glyph name="rfishhookreversed" format="2">
  <advance width="313"/>
  <unicode hex="027F"/>
  <anchor x="157" y="-235" name="bottom"/>
  <anchor x="157" y="536" name="top"/>
  <outline>
    <contour>
      <point x="111" y="-235" type="line"/>
      <point x="295" y="-235" type="line"/>
      <point x="295" y="-202" type="line"/>
      <point x="305" y="-202" type="line" smooth="yes"/>
      <point x="255" y="-202"/>
      <point x="245" y="-193"/>
      <point x="245" y="-128" type="curve" smooth="yes"/>
      <point x="245" y="359" type="line" smooth="yes"/>
      <point x="245" y="485"/>
      <point x="209" y="545"/>
      <point x="120" y="545" type="curve" smooth="yes"/>
      <point x="47" y="545"/>
      <point x="13" y="508"/>
      <point x="13" y="460" type="curve" smooth="yes"/>
      <point x="13" y="430"/>
      <point x="32" y="413"/>
      <point x="68" y="413" type="curve"/>
      <point x="68" y="471"/>
      <point x="82" y="504"/>
      <point x="121" y="504" type="curve" smooth="yes"/>
      <point x="166" y="504"/>
      <point x="171" y="454"/>
      <point x="171" y="374" type="curve" smooth="yes"/>
      <point x="171" y="-129" type="line" smooth="yes"/>
      <point x="171" y="-194"/>
      <point x="161" y="-202"/>
      <point x="110" y="-202" type="curve" smooth="yes"/>
      <point x="111" y="-202" type="line"/>
    </contour>
  </outline>
</glyph>
<glyph name="uni0288" format="2">
  <advance width="243"/>
  <unicode hex="0288"/>
  <anchor x="122" y="-240" name="bottom"/>
  <anchor x="122" y="658" name="top"/>
  <outline>
    <contour>
      <point x="158" y="-240" type="curve" smooth="yes"/>
      <point x="189" y="-240"/>
      <point x="215" y="-232"/>
      <point x="229" y="-227" type="curve"/>
      <point x="229" y="-186" type="line"/>
      <point x="213" y="-190"/>
      <point x="201" y="-192"/>
      <point x="186" y="-192" type="curve" smooth="yes"/>
      <point x="153" y="-192"/>
      <point x="136" y="-169"/>
      <point x="136" y="-80" type="curve" smooth="yes"/>
      <point x="136" y="496" type="line"/>
      <point x="221" y="496" type="line"/>
      <point x="221" y="536" type="line"/>
      <point x="136" y="536" type="line"/>
      <point x="136" y="658" type="line"/>
      <point x="92" y="658" type="line"/>
      <point x="88" y="618"/>
      <point x="88" y="583"/>
      <point x="70" y="558" type="curve" smooth="yes"/>
      <point x="61" y="542"/>
      <point x="43" y="529"/>
      <point x="13" y="526" type="curve"/>
      <point x="13" y="496" type="line"/>
      <point x="62" y="496" type="line"/>
      <point x="62" y="-86" type="line" smooth="yes"/>
      <point x="62" y="-204"/>
      <point x="96" y="-240"/>
    </contour>
  </outline>
</glyph>
<glyph name="uni02A2" format="2">
  <advance width="317"/>
  <unicode hex="02A2"/>
  <anchor x="159" y="0" name="bottom"/>
  <anchor x="159" y="761" name="top"/>
  <outline>
    <contour>
      <point x="81" y="0" type="line"/>
      <point x="259" y="0" type="line"/>
      <point x="259" y="36" type="line"/>
      <point x="258" y="36" type="line" smooth="yes"/>
      <point x="221" y="36"/>
      <point x="214" y="47"/>
      <point x="214" y="108" type="curve" smooth="yes"/>
      <point x="214" y="188" type="line"/>
      <point x="263" y="188" type="line"/>
      <point x="263" y="228" type="line"/>
      <point x="214" y="228" type="line"/>
      <point x="214" y="354" type="line"/>
      <point x="159" y="417"/>
      <point x="100" y="495"/>
      <point x="100" y="596" type="curve" smooth="yes"/>
      <point x="100" y="674"/>
      <point x="116" y="719"/>
      <point x="165" y="719" type="curve" smooth="yes"/>
      <point x="219" y="719"/>
      <point x="228" y="662"/>
      <point x="227" y="581" type="curve"/>
      <point x="272" y="581"/>
      <point x="296" y="608"/>
      <point x="296" y="647" type="curve" smooth="yes"/>
      <point x="296" y="705"/>
      <point x="250" y="761"/>
      <point x="165" y="761" type="curve" smooth="yes"/>
      <point x="87" y="761"/>
      <point x="19" y="714"/>
      <point x="19" y="579" type="curve" smooth="yes"/>
      <point x="19" y="462"/>
      <point x="83" y="384"/>
      <point x="126" y="328" type="curve"/>
      <point x="126" y="228" type="line"/>
      <point x="65" y="228" type="line"/>
      <point x="65" y="188" type="line"/>
      <point x="126" y="188" type="line"/>
      <point x="126" y="108" type="line" smooth="yes"/>
      <point x="126" y="45"/>
      <point x="123" y="36"/>
      <point x="80" y="36" type="curve" smooth="yes"/>
      <point x="81" y="36" type="line"/>
    </contour>
  </outline>
</glyph>
<glyph name="uni02BA" format="2">
  <advance width="265"/>
  <unicode hex="02BA"/>
  <outline>
    <contour>
      <point x="156" y="477" type="curve"/>
      <point x="196" y="477" type="line"/>
      <point x="217" y="556"/>
      <point x="236" y="631"/>
      <point x="244" y="703" type="curve"/>
      <point x="238" y="714" type="line"/>
      <point x="174" y="714" type="line"/>
      <point x="173" y="644"/>
      <point x="166" y="562"/>
    </contour>
    <contour>
      <point x="21" y="477" type="curve"/>
      <point x="62" y="477" type="line"/>
      <point x="82" y="556"/>
      <point x="100" y="631"/>
      <point x="109" y="703" type="curve"/>
      <point x="103" y="714" type="line"/>
      <point x="39" y="714" type="line"/>
      <point x="38" y="644"/>
      <point x="30" y="562"/>
    </contour>
  </outline>
</glyph>
<glyph name="caron" format="2">
  <advance width="286"/>
  <unicode hex="02C7"/>
  <outline>
    <contour>
      <point x="105" y="606" type="curve"/>
      <point x="180" y="606" type="line"/>
      <point x="197" y="651"/>
      <point x="225" y="715"/>
      <point x="246" y="753" type="curve"/>
      <point x="246" y="766" type="line"/>
      <point x="216" y="766" type="line"/>
      <point x="193" y="736"/>
      <point x="162" y="705"/>
      <point x="144" y="665" type="curve"/>
      <point x="123" y="705"/>
      <point x="92" y="736"/>
      <point x="69" y="766" type="curve"/>
      <point x="40" y="766" type="line"/>
      <point x="40" y="753" type="line"/>
      <point x="60" y="715"/>
      <point x="90" y="651"/>
    </contour>
  </outline>
</glyph>
<glyph name="uni02FF" format="2">
  <advance width="358"/>
  <unicode hex="02FF"/>
  <outline>
    <contour>
      <point x="169" y="-240" type="curve"/>
      <point x="176" y="-240" type="line"/>
      <point x="176" y="-194" type="line"/>
      <point x="161" y="-173"/>
      <point x="140" y="-152"/>
      <point x="118" y="-135" type="curve"/>
      <point x="318" y="-135" type="line"/>
      <point x="318" y="-87" type="line"/>
      <point x="119" y="-87" type="line"/>
      <point x="141" y="-69"/>
      <point x="161" y="-49"/>
      <point x="176" y="-29" type="curve"/>
      <point x="176" y="18" type="line"/>
      <point x="169" y="18" type="line"/>
      <point x="128" y="-30"/>
      <point x="86" y="-58"/>
      <point x="40" y="-87" type="curve"/>
      <point x="40" y="-136" type="line"/>
      <point x="85" y="-164"/>
      <point x="129" y="-193"/>
    </contour>
  </outline>
</glyph>
<glyph name="horncomb" format="2">
  <unicode hex="031B"/>
  <anchor x="-7" y="536" name="_topright"/>
  <outline>
    <contour>
      <point x="-66" y="558" type="line"/>
      <point x="9" y="580"/>
      <point x="51" y="627"/>
      <point x="51" y="711" type="curve" smooth="yes"/>
      <point x="51" y="747"/>
      <point x="32" y="770"/>
      <point x="1" y="770" type="curve" smooth="yes"/>
      <point x="-23" y="770"/>
      <point x="-40" y="753"/>
      <point x="-40" y="723" type="curve" smooth="yes"/>
      <point x="-40" y="684"/>
      <point x="-6" y="684"/>
      <point x="-6" y="657" type="curve" smooth="yes"/>
      <point x="-6" y="630"/>
      <point x="-18" y="613"/>
      <point x="-66" y="594" type="curve"/>
    </contour>
  </outline>
</glyph>
<glyph name="downtackbelowcomb" format="2">
  <unicode hex="031E"/>
  <anchor x="0" y="0" name="_bottom"/>
  <anchor x="0" y="-204" name="bottom"/>
  <outline>
    <contour>
      <point x="-18" y="-204" type="line"/>
      <point x="16" y="-204" type="line"/>
      <point x="16" y="-105" type="line"/>
      <point x="61" y="-105" type="line"/>
      <point x="61" y="-52" type="line"/>
      <point x="-61" y="-52" type="line"/>
      <point x="-61" y="-105" type="line"/>
      <point x="-18" y="-105" type="line"/>
    </contour>
  </outline>
</glyph>
<glyph name="ogonekcomb" format="2">
  <unicode hex="0328"/>
  <anchor x="-4" y="0" name="_bottom"/>
  <outline>
    <contour>
      <point x="12" y="-235" type="curve" smooth="yes"/>
      <point x="30" y="-235"/>
      <point x="48" y="-231"/>
      <point x="63" y="-222" type="curve"/>
      <point x="63" y="-179" type="line"/>
      <point x="48" y="-189"/>
      <point x="35" y="-191"/>
      <point x="20" y="-191" type="curve" smooth="yes"/>
      <point x="-8" y="-191"/>
      <point x="-22" y="-169"/>
      <point x="-22" y="-128" type="curve" smooth="yes"/>
      <point x="-22" y="-66"/>
      <point x="6" y="-17"/>
      <point x="43" y="0" type="curve"/>
      <point x="-3" y="0" type="line"/>
      <point x="-33" y="-15"/>
      <point x="-73" y="-61"/>
      <point x="-73" y="-134" type="curve" smooth="yes"/>
      <point x="-73" y="-210"/>
      <point x="-37" y="-235"/>
    </contour>
  </outline>
</glyph>
<glyph name="arrowheadrightabovecomb" format="2">
  <unicode hex="0350"/>
  <anchor x="-1" y="536" name="_top"/>
  <anchor x="-1" y="776" name="top"/>
  <outline>
    <contour>
      <point x="-59" y="569" type="line"/>
      <point x="-52" y="569" type="line"/>
      <point x="-14" y="610"/>
      <point x="25" y="630"/>
      <point x="58" y="648" type="curve"/>
      <point x="58" y="697" type="line"/>
      <point x="13" y="719"/>
      <point x="-14" y="736"/>
      <point x="-52" y="776" type="curve"/>
      <point x="-59" y="776" type="line"/>
      <point x="-59" y="730" type="line"/>
      <point x="-42" y="709"/>
      <point x="-18" y="687"/>
      <point x="5" y="673" type="curve"/>
      <point x="-21" y="657"/>
      <point x="-36" y="641"/>
      <point x="-59" y="615" type="curve"/>
    </contour>
  </outline>
</glyph>
<glyph name="asteriskbelowcomb" format="2">
  <unicode hex="0359"/>
  <anchor x="2" y="0" name="_bottom"/>
  <anchor x="2" y="-240" name="bottom"/>
  <outline>
    <contour>
      <point x="-20" y="-240" type="line"/>
      <point x="22" y="-240" type="line"/>
      <point x="7" y="-151" type="line"/>
      <point x="61" y="-216" type="line"/>
      <point x="80" y="-159" type="line"/>
      <point x="11" y="-135" type="line"/>
      <point x="80" y="-111" type="line"/>
      <point x="61" y="-54" type="line"/>
      <point x="7" y="-118" type="line"/>
      <point x="22" y="-30" type="line"/>
      <point x="-20" y="-30" type="line"/>
      <point x="-6" y="-118" type="line"/>
      <point x="-58" y="-54" type="line"/>
      <point x="-78" y="-111" type="line"/>
      <point x="-9" y="-135" type="line"/>
      <point x="-78" y="-159" type="line"/>
      <point x="-58" y="-216" type="line"/>
      <point x="-6" y="-151" type="line"/>
    </contour>
  </outline>
</glyph>
<glyph name="uni0374" format="2">
  <advance width="140"/>
  <unicode hex="0374"/>
  <outline>
    <contour>
      <point x="20" y="541" type="line"/>
      <point x="54" y="541" type="line"/>
      <point x="77" y="596"/>
      <point x="109" y="670"/>
      <point x="116" y="705" type="curve"/>
      <point x="116" y="714" type="line"/>
      <point x="47" y="714" type="line"/>
      <point x="44" y="678"/>
      <point x="37" y="609"/>
      <point x="20" y="555" type="curve"/>
    </contour>
  </outline>
</glyph>
<glyph name="uni0375" format="2">
  <advance width="140"/>
  <unicode hex="0375"/>
  <outline>
    <contour>
      <point x="118" y="-67" type="line"/>
      <point x="84" y="-67" type="line"/>
      <point x="63" y="-121"/>
      <point x="29" y="-196"/>
      <point x="23" y="-231" type="curve"/>
      <point x="23" y="-240" type="line"/>
      <point x="91" y="-240" type="line"/>
      <point x="94" y="-204"/>
      <point x="101" y="-135"/>
      <point x="118" y="-81" type="curve"/>
    </contour>
  </outline>
</glyph>
<glyph name="Phi" format="2">
  <advance width="518"/>
  <unicode hex="03A6"/>
  <anchor x="259" y="0" name="bottom"/>
  <anchor x="259" y="714" name="top"/>
  <outline>
    <contour>
      <point x="160" y="0" type="line"/>
      <point x="358" y="0" type="line"/>
      <point x="358" y="33" type="line"/>
      <point x="357" y="33" type="line" smooth="yes"/>
      <point x="307" y="33"/>
      <point x="294" y="43"/>
      <point x="294" y="110" type="curve" smooth="yes"/>
      <point x="294" y="134" type="line"/>
      <point x="306" y="134" type="line" smooth="yes"/>
      <point x="447" y="134"/>
      <point x="496" y="249"/>
      <point x="496" y="368" type="curve" smooth="yes"/>
      <point x="496" y="510"/>
      <point x="430" y="590"/>
      <point x="303" y="590" type="curve" smooth="yes"/>
      <point x="294" y="590" type="line"/>
      <point x="294" y="604" type="line" smooth="yes"/>
      <point x="294" y="671"/>
      <point x="309" y="681"/>
      <point x="355" y="681" type="curve" smooth="yes"/>
      <point x="358" y="681" type="line"/>
      <point x="358" y="714" type="line"/>
      <point x="160" y="714" type="line"/>
      <point x="160" y="681" type="line"/>
      <point x="162" y="681" type="line" smooth="yes"/>
      <point x="209" y="681"/>
      <point x="224" y="671"/>
      <point x="224" y="604" type="curve" smooth="yes"/>
      <point x="224" y="590" type="line"/>
      <point x="213" y="590" type="line" smooth="yes"/>
      <point x="78" y="590"/>
      <point x="21" y="498"/>
      <point x="21" y="362" type="curve" smooth="yes"/>
      <point x="21" y="236"/>
      <point x="73" y="134"/>
      <point x="212" y="134" type="curve" smooth="yes"/>
      <point x="224" y="134" type="line"/>
      <point x="224" y="110" type="line" smooth="yes"/>
      <point x="224" y="43"/>
      <point x="209" y="33"/>
      <point x="162" y="33" type="curve" smooth="yes"/>
      <point x="160" y="33" type="line"/>
    </contour>
    <contour>
      <point x="212" y="172" type="line" smooth="yes"/>
      <point x="126" y="172"/>
      <point x="91" y="245"/>
      <point x="91" y="363" type="curve" smooth="yes"/>
      <point x="91" y="476"/>
      <point x="126" y="552"/>
      <point x="212" y="552" type="curve" smooth="yes"/>
      <point x="224" y="552" type="line"/>
      <point x="224" y="172" type="line"/>
    </contour>
    <contour>
      <point x="294" y="172" type="line"/>
      <point x="294" y="552" type="line"/>
      <point x="304" y="552" type="line" smooth="yes"/>
      <point x="395" y="552"/>
      <point x="427" y="476"/>
      <point x="427" y="369" type="curve" smooth="yes"/>
      <point x="427" y="245"/>
      <point x="387" y="172"/>
      <point x="310" y="172" type="curve" smooth="yes"/>
    </contour>
  </outline>
</glyph>
<glyph name="alpha" format="2">
  <advance width="404"/>
  <unicode hex="03B1"/>
  <anchor x="203" y="0" name="bottom"/>
  <anchor x="203" y="536" name="top"/>
  <outline>
    <contour>
      <point x="155" y="-10" type="curve" smooth="yes"/>
      <point x="224" y="-10"/>
      <point x="250" y="40"/>
      <point x="270" y="100" type="curve"/>
      <point x="276" y="100" type="line"/>
      <point x="280" y="40"/>
      <point x="314" y="0"/>
      <point x="358" y="0" type="curve" smooth="yes"/>
      <point x="394" y="0" type="line"/>
      <point x="394" y="31" type="line"/>
      <point x="392" y="31" type="line" smooth="yes"/>
      <point x="355" y="31"/>
      <point x="338" y="67"/>
      <point x="338" y="138" type="curve"/>
      <point x="338" y="340" type="line"/>
      <point x="338" y="393"/>
      <point x="346" y="498"/>
      <point x="354" y="536" type="curve"/>
      <point x="304" y="536" type="line"/>
      <point x="292" y="515"/>
      <point x="285" y="477"/>
      <point x="280" y="441" type="curve"/>
      <point x="276" y="441" type="line"/>
      <point x="260" y="504"/>
      <point x="228" y="548"/>
      <point x="176" y="548" type="curve" smooth="yes"/>
      <point x="90" y="548"/>
      <point x="34" y="455"/>
      <point x="34" y="267" type="curve" smooth="yes"/>
      <point x="34" y="65"/>
      <point x="71" y="-10"/>
    </contour>
    <contour>
      <point x="176" y="33" type="curve" smooth="yes"/>
      <point x="126" y="33"/>
      <point x="108" y="95"/>
      <point x="108" y="265" type="curve" smooth="yes"/>
      <point x="108" y="413"/>
      <point x="132" y="506"/>
      <point x="193" y="506" type="curve"/>
      <point x="223" y="506"/>
      <point x="260" y="460"/>
      <point x="267" y="341" type="curve"/>
      <point x="267" y="319" type="line"/>
      <point x="267" y="159"/>
      <point x="240" y="33"/>
    </contour>
  </outline>
</glyph>
<glyph name="nu" format="2">
  <advance width="375"/>
  <unicode hex="03BD"/>
  <anchor x="188" y="0" name="bottom"/>
  <anchor x="188" y="536" name="top"/>
  <outline>
    <contour>
      <point x="146" y="0" type="curve"/>
      <point x="192" y="0" type="line"/>
      <point x="243" y="77"/>
      <point x="344" y="272"/>
      <point x="344" y="444" type="curve" smooth="yes"/>
      <point x="344" y="491"/>
      <point x="338" y="546"/>
      <point x="292" y="546" type="curve" smooth="yes"/>
      <point x="274" y="546"/>
      <point x="260" y="530"/>
      <point x="264" y="511" type="curve"/>
      <point x="284" y="504"/>
      <point x="299" y="466"/>
      <point x="299" y="428" type="curve" smooth="yes"/>
      <point x="299" y="310"/>
      <point x="252" y="165"/>
      <point x="198" y="74" type="curve"/>
      <point x="131" y="473"/>
      <point x="113" y="538"/>
      <point x="63" y="538" type="curve" smooth="yes"/>
      <point x="36" y="538"/>
      <point x="16" y="518"/>
      <point x="-3" y="498" type="curve"/>
      <point x="11" y="471" type="line"/>
      <point x="17" y="482"/>
      <point x="19" y="492"/>
      <point x="32" y="492" type="curve" smooth="yes"/>
      <point x="68" y="492"/>
      <point x="94" y="326"/>
    </contour>
  </outline>
</glyph>
<glyph name="rho" format="2">
  <advance width="403"/>
  <unicode hex="03C1"/>
  <anchor x="202" y="-240" name="bottom"/>
  <anchor x="202" y="536" name="top"/>
  <outline>
    <contour>
      <point x="56" y="-240" type="line"/>
      <point x="129" y="-240" type="line"/>
      <point x="129" y="-49" type="line" smooth="yes"/>
      <point x="129" y="-13"/>
      <point x="128" y="30"/>
      <point x="127" y="48" type="curve"/>
      <point x="147" y="20"/>
      <point x="174" y="-10"/>
      <point x="223" y="-10" type="curve" smooth="yes"/>
      <point x="306" y="-10"/>
      <point x="371" y="59"/>
      <point x="371" y="256" type="curve" smooth="yes"/>
      <point x="371" y="446"/>
      <point x="305" y="545"/>
      <point x="207" y="545" type="curve" smooth="yes"/>
      <point x="96" y="545"/>
      <point x="56" y="457"/>
      <point x="56" y="283" type="curve" smooth="yes"/>
    </contour>
    <contour>
      <point x="209" y="31" type="curve" smooth="yes"/>
      <point x="180" y="31"/>
      <point x="158" y="51"/>
      <point x="129" y="97" type="curve"/>
      <point x="129" y="293" type="line" smooth="yes"/>
      <point x="129" y="424"/>
      <point x="146" y="505"/>
      <point x="206" y="505" type="curve" smooth="yes"/>
      <point x="265" y="505"/>
      <point x="297" y="416"/>
      <point x="297" y="255" type="curve" smooth="yes"/>
      <point x="297" y="85"/>
      <point x="260" y="31"/>
    </contour>
  </outline>
</glyph>
<glyph name="tau" format="2">
  <advance width="329"/>
  <unicode hex="03C4"/>
  <anchor x="164" y="0" name="bottom"/>
  <anchor x="164" y="536" name="top"/>
  <outline>
    <contour>
      <point x="205" y="-10" type="curve" smooth="yes"/>
      <point x="230" y="-10"/>
      <point x="250" y="-4"/>
      <point x="266" y="6" type="curve"/>
      <point x="266" y="54" type="line"/>
      <point x="252" y="46"/>
      <point x="236" y="42"/>
      <point x="218" y="42" type="curve" smooth="yes"/>
      <point x="195" y="42"/>
      <point x="168" y="62"/>
      <point x="168" y="134" type="curve" smooth="yes"/>
      <point x="168" y="216"/>
      <point x="180" y="329"/>
      <point x="194" y="468" type="curve"/>
      <point x="313" y="468" type="line"/>
      <point x="313" y="536" type="line"/>
      <point x="110" y="536" type="line" smooth="yes"/>
      <point x="47" y="536"/>
      <point x="18" y="475"/>
      <point x="18" y="381" type="curve"/>
      <point x="49" y="381" type="line"/>
      <point x="49" y="426"/>
      <point x="59" y="468"/>
      <point x="106" y="468" type="curve" smooth="yes"/>
      <point x="157" y="468" type="line"/>
      <point x="133" y="322"/>
      <point x="121" y="222"/>
      <point x="121" y="128" type="curve" smooth="yes"/>
      <point x="121" y="26"/>
      <point x="157" y="-10"/>
    </contour>
  </outline>
</glyph>
<glyph name="chi" format="2">
  <advance width="365"/>
  <unicode hex="03C7"/>
  <anchor x="183" y="-240" name="bottom"/>
  <anchor x="183" y="536" name="top"/>
  <anchor x="345" y="536" name="topright"/>
  <outline>
    <contour>
      <point x="4" y="-240" type="line"/>
      <point x="80" y="-240" type="line"/>
      <point x="189" y="99" type="line"/>
      <point x="236" y="-133" type="line" smooth="yes"/>
      <point x="255" y="-218"/>
      <point x="275" y="-240"/>
      <point x="305" y="-240" type="curve" smooth="yes"/>
      <point x="332" y="-240"/>
      <point x="352" y="-223"/>
      <point x="369" y="-209" type="curve"/>
      <point x="360" y="-175" type="line"/>
      <point x="347" y="-186"/>
      <point x="333" y="-194"/>
      <point x="319" y="-194" type="curve" smooth="yes"/>
      <point x="303" y="-194"/>
      <point x="293" y="-192"/>
      <point x="273" y="-111" type="curve" smooth="yes"/>
      <point x="212" y="153" type="line"/>
      <point x="348" y="536" type="line"/>
      <point x="274" y="536" type="line"/>
      <point x="181" y="230" type="line"/>
      <point x="146" y="406" type="line" smooth="yes"/>
      <point x="126" y="500"/>
      <point x="110" y="539"/>
      <point x="72" y="539" type="curve" smooth="yes"/>
      <point x="47" y="539"/>
      <point x="23" y="519"/>
      <point x="10" y="502" type="curve"/>
      <point x="23" y="474" type="line"/>
      <point x="33" y="485"/>
      <point x="47" y="494"/>
      <point x="61" y="494" type="curve" smooth="yes"/>
      <point x="83" y="494"/>
      <point x="92" y="464"/>
      <point x="108" y="394" type="curve" smooth="yes"/>
      <point x="156" y="179" type="line"/>
    </contour>
  </outline>
</glyph>
<glyph name="uni03D0" format="2">
  <advance width="382"/>
  <unicode hex="03D0"/>
  <anchor x="192" y="-10" name="bottom"/>
  <anchor x="192" y="760" name="top"/>
  <outline>
    <contour>
      <point x="196" y="-10" type="curve" smooth="yes"/>
      <point x="291" y="-10"/>
      <point x="348" y="71"/>
      <point x="348" y="230" type="curve" smooth="yes"/>
      <point x="348" y="386"/>
      <point x="300" y="472"/>
      <point x="206" y="472" type="curve" smooth="yes"/>
      <point x="136" y="472"/>
      <point x="98" y="428"/>
      <point x="81" y="384" type="curve"/>
      <point x="81" y="384" type="line"/>
      <point x="84" y="456"/>
      <point x="92" y="521"/>
      <point x="103" y="580" type="curve"/>
      <point x="122" y="564"/>
      <point x="157" y="532"/>
      <point x="208" y="532" type="curve" smooth="yes"/>
      <point x="291" y="532"/>
      <point x="317" y="582"/>
      <point x="317" y="643" type="curve" smooth="yes"/>
      <point x="317" y="722"/>
      <point x="280" y="760"/>
      <point x="217" y="760" type="curve" smooth="yes"/>
      <point x="90" y="760"/>
      <point x="34" y="544"/>
      <point x="34" y="296" type="curve" smooth="yes"/>
      <point x="34" y="93"/>
      <point x="96" y="-10"/>
    </contour>
    <contour>
      <point x="198" y="29" type="curve" smooth="yes"/>
      <point x="122" y="29"/>
      <point x="108" y="141"/>
      <point x="108" y="241" type="curve" smooth="yes"/>
      <point x="108" y="356"/>
      <point x="137" y="433"/>
      <point x="195" y="433" type="curve" smooth="yes"/>
      <point x="245" y="433"/>
      <point x="274" y="368"/>
      <point x="274" y="231" type="curve" smooth="yes"/>
      <point x="274" y="101"/>
      <point x="249" y="29"/>
    </contour>
    <contour>
      <point x="208" y="573" type="curve" smooth="yes"/>
      <point x="158" y="573"/>
      <point x="135" y="603"/>
      <point x="118" y="619" type="curve"/>
      <point x="135" y="680"/>
      <point x="166" y="720"/>
      <point x="212" y="720" type="curve" smooth="yes"/>
      <point x="259" y="720"/>
      <point x="275" y="686"/>
      <point x="275" y="645" type="curve" smooth="yes"/>
      <point x="275" y="598"/>
      <point x="255" y="573"/>
    </contour>
  </outline>
</glyph>
<glyph name="afii10053" format="2">
  <advance width="412"/>
  <unicode hex="0404"/>
  <anchor x="206" y="0" name="bottom"/>
  <anchor x="206" y="714" name="top"/>
  <outline>
    <contour>
      <point x="250" y="-10" type="curve" smooth="yes"/>
      <point x="335" y="-10"/>
      <point x="387" y="51"/>
      <point x="387" y="97" type="curve" smooth="yes"/>
      <point x="387" y="115"/>
      <point x="382" y="127"/>
      <point x="374" y="134" type="curve"/>
      <point x="353" y="81"/>
      <point x="323" y="35"/>
      <point x="260" y="35" type="curve" smooth="yes"/>
      <point x="157" y="35"/>
      <point x="118" y="164"/>
      <point x="114" y="342" type="curve"/>
      <point x="292" y="342" type="line"/>
      <point x="292" y="383" type="line"/>
      <point x="114" y="383" type="line"/>
      <point x="118" y="551"/>
      <point x="151" y="683"/>
      <point x="246" y="683" type="curve" smooth="yes"/>
      <point x="309" y="683"/>
      <point x="332" y="628"/>
      <point x="332" y="552" type="curve"/>
      <point x="371" y="552"/>
      <point x="389" y="579"/>
      <point x="389" y="618" type="curve" smooth="yes"/>
      <point x="389" y="673"/>
      <point x="342" y="724"/>
      <point x="247" y="724" type="curve" smooth="yes"/>
      <point x="114" y="724"/>
      <point x="37" y="583"/>
      <point x="37" y="358" type="curve" smooth="yes"/>
      <point x="37" y="141"/>
      <point x="108" y="-10"/>
    </contour>
  </outline>
</glyph>
<glyph name="afii10060" format="2">
  <advance width="548"/>
  <unicode hex="040B"/>
  <anchor x="274" y="0" name="bottom"/>
  <anchor x="274" y="714" name="top"/>
  <outline>
    <contour>
      <point x="86" y="0" type="line"/>
      <point x="281" y="0" type="line"/>
      <point x="281" y="33" type="line"/>
      <point x="275" y="33" type="line" smooth="yes"/>
      <point x="233" y="33"/>
      <point x="227" y="44"/>
      <point x="227" y="112" type="curve" smooth="yes"/>
      <point x="227" y="360" type="line"/>
      <point x="239" y="372"/>
      <point x="278" y="392"/>
      <point x="317" y="392" type="curve"/>
      <point x="375" y="392"/>
      <point x="405" y="349"/>
      <point x="405" y="234" type="curve" smooth="yes"/>
      <point x="405" y="112" type="line" smooth="yes"/>
      <point x="405" y="43"/>
      <point x="396" y="33"/>
      <point x="356" y="33" type="curve" smooth="yes"/>
      <point x="342" y="33" type="line"/>
      <point x="342" y="0" type="line"/>
      <point x="543" y="0" type="line"/>
      <point x="543" y="33" type="line"/>
      <point x="526" y="33" type="line" smooth="yes"/>
      <point x="486" y="33"/>
      <point x="479" y="44"/>
      <point x="479" y="112" type="curve" smooth="yes"/>
      <point x="479" y="240" type="line"/>
      <point x="479" y="390"/>
      <point x="419" y="438"/>
      <point x="343" y="438" type="curve" smooth="yes"/>
      <point x="286" y="438"/>
      <point x="247" y="418"/>
      <point x="227" y="407" type="curve"/>
      <point x="227" y="675" type="line"/>
      <point x="267" y="675" type="line" smooth="yes"/>
      <point x="321" y="675"/>
      <point x="330" y="653"/>
      <point x="332" y="604" type="curve" smooth="yes"/>
      <point x="335" y="546" type="line"/>
      <point x="370" y="546" type="line"/>
      <point x="366" y="714" type="line"/>
      <point x="14" y="714" type="line"/>
      <point x="10" y="546" type="line"/>
      <point x="44" y="546" type="line"/>
      <point x="48" y="602" type="line" smooth="yes"/>
      <point x="50" y="655"/>
      <point x="60" y="675"/>
      <point x="113" y="675" type="curve" smooth="yes"/>
      <point x="152" y="675" type="line"/>
      <point x="152" y="112" type="line" smooth="yes"/>
      <point x="152" y="43"/>
      <point x="143" y="33"/>
      <point x="105" y="33" type="curve" smooth="yes"/>
      <point x="86" y="33" type="line"/>
    </contour>
  </outline>
</glyph>
<glyph name="afii10018" format="2">
  <advance width="412"/>
  <unicode hex="0411"/>
  <anchor x="207" y="0" name="bottom"/>
  <anchor x="207" y="714" name="top"/>
  <outline>
    <contour>
      <point x="23" y="0" type="line"/>
      <point x="210" y="0" type="line" smooth="yes"/>
      <point x="340" y="0"/>
      <point x="379" y="82"/>
      <point x="379" y="198" type="curve" smooth="yes"/>
      <point x="379" y="328"/>
      <point x="330" y="392"/>
      <point x="196" y="392" type="curve" smooth="yes"/>
      <point x="158" y="392" type="line"/>
      <point x="158" y="675" type="line"/>
      <point x="255" y="673" type="line" smooth="yes"/>
      <point x="302" y="673"/>
      <point x="310" y="660"/>
      <point x="312" y="611" type="curve" smooth="yes"/>
      <point x="316" y="548" type="line"/>
      <point x="350" y="548" type="line"/>
      <point x="347" y="713" type="line"/>
      <point x="23" y="714" type="line"/>
      <point x="23" y="681" type="line"/>
      <point x="37" y="681" type="line" smooth="yes"/>
      <point x="74" y="681"/>
      <point x="83" y="671"/>
      <point x="83" y="603" type="curve" smooth="yes"/>
      <point x="83" y="112" type="line" smooth="yes"/>
      <point x="83" y="45"/>
      <point x="76" y="33"/>
      <point x="35" y="33" type="curve" smooth="yes"/>
      <point x="23" y="33" type="line"/>
    </contour>
    <contour>
      <point x="158" y="39" type="line"/>
      <point x="158" y="354" type="line"/>
      <point x="184" y="354" type="line" smooth="yes"/>
      <point x="269" y="354"/>
      <point x="300" y="309"/>
      <point x="300" y="197" type="curve" smooth="yes"/>
      <point x="300" y="100"/>
      <point x="280" y="39"/>
      <point x="202" y="39" type="curve" smooth="yes"/>
    </contour>
  </outline>
</glyph>
<glyph name="afii10028" format="2">
  <advance width="464"/>
  <unicode hex="041A"/>
  <anchor x="232" y="0" name="bottom"/>
  <anchor x="232" y="714" name="top"/>
  <outline>
    <contour>
      <point x="22" y="0" type="line"/>
      <point x="228" y="0" type="line"/>
      <point x="228" y="33" type="line"/>
      <point x="209" y="33" type="line" smooth="yes"/>
      <point x="166" y="33"/>
      <point x="158" y="43"/>
      <point x="158" y="116" type="curve" smooth="yes"/>
      <point x="158" y="342" type="line"/>
      <point x="225" y="342"/>
      <point x="229" y="331"/>
      <point x="249" y="268" type="curve" smooth="yes"/>
      <point x="309" y="100" type="line" smooth="yes"/>
      <point x="335" y="23"/>
      <point x="354" y="0"/>
      <point x="423" y="0" type="curve" smooth="yes"/>
      <point x="458" y="0" type="line"/>
      <point x="458" y="31" type="line"/>
      <point x="450" y="31" type="line" smooth="yes"/>
      <point x="420" y="31"/>
      <point x="398" y="58"/>
      <point x="374" y="129" type="curve" smooth="yes"/>
      <point x="322" y="282" type="line" smooth="yes"/>
      <point x="294" y="362"/>
      <point x="266" y="367"/>
      <point x="241" y="377" type="curve"/>
      <point x="266" y="412"/>
      <point x="277" y="460"/>
      <point x="305" y="535" type="curve" smooth="yes"/>
      <point x="335" y="618"/>
      <point x="357" y="671"/>
      <point x="391" y="671" type="curve" smooth="yes"/>
      <point x="414" y="671"/>
      <point x="415" y="649"/>
      <point x="417" y="618" type="curve"/>
      <point x="429" y="623"/>
      <point x="442" y="633"/>
      <point x="442" y="662" type="curve" smooth="yes"/>
      <point x="442" y="696"/>
      <point x="424" y="720"/>
      <point x="393" y="720" type="curve" smooth="yes"/>
      <point x="334" y="720"/>
      <point x="298" y="632"/>
      <point x="270" y="551" type="curve" smooth="yes"/>
      <point x="244" y="479"/>
      <point x="227" y="429"/>
      <point x="216" y="409" type="curve" smooth="yes"/>
      <point x="204" y="392"/>
      <point x="198" y="379"/>
      <point x="158" y="379" type="curve"/>
      <point x="158" y="603" type="line" smooth="yes"/>
      <point x="158" y="671"/>
      <point x="166" y="681"/>
      <point x="206" y="681" type="curve" smooth="yes"/>
      <point x="228" y="681" type="line"/>
      <point x="228" y="714" type="line"/>
      <point x="22" y="714" type="line"/>
      <point x="22" y="681" type="line"/>
      <point x="33" y="681" type="line" smooth="yes"/>
      <point x="73" y="681"/>
      <point x="83" y="671"/>
      <point x="83" y="605" type="curve" smooth="yes"/>
      <point x="83" y="111" type="line" smooth="yes"/>
      <point x="83" y="43"/>
      <point x="73" y="33"/>
      <point x="33" y="33" type="curve" smooth="yes"/>
      <point x="22" y="33" type="line"/>
    </contour>
  </outline>
</glyph>
<glyph name="afii10066" format="2">
  <advance width="382"/>
  <unicode hex="0431"/>
  <anchor x="191" y="0" name="bottom"/>
  <anchor x="191" y="763" name="top"/>
  <outline>
    <contour>
      <point x="193" y="-10" type="curve" smooth="yes"/>
      <point x="296" y="-10"/>
      <point x="348" y="80"/>
      <point x="348" y="257" type="curve" smooth="yes"/>
      <point x="348" y="436"/>
      <point x="301" y="518"/>
      <point x="198" y="518" type="curve" smooth="yes"/>
      <point x="128" y="518"/>
      <point x="89" y="477"/>
      <point x="74" y="422" type="curve"/>
      <point x="71" y="422" type="line"/>
      <point x="77" y="579"/>
      <point x="108" y="621"/>
      <point x="197" y="640" type="curve" smooth="yes"/>
      <point x="288" y="658"/>
      <point x="338" y="673"/>
      <point x="339" y="763" type="curve"/>
      <point x="309" y="763" type="line"/>
      <point x="306" y="723"/>
      <point x="261" y="721"/>
      <point x="205" y="707" type="curve" smooth="yes"/>
      <point x="67" y="673"/>
      <point x="35" y="581"/>
      <point x="35" y="305" type="curve" smooth="yes"/>
      <point x="35" y="72"/>
      <point x="87" y="-10"/>
    </contour>
    <contour>
      <point x="193" y="30" type="curve" smooth="yes"/>
      <point x="140" y="30"/>
      <point x="108" y="100"/>
      <point x="108" y="259" type="curve" smooth="yes"/>
      <point x="108" y="399"/>
      <point x="132" y="478"/>
      <point x="190" y="478" type="curve" smooth="yes"/>
      <point x="254" y="478"/>
      <point x="274" y="403"/>
      <point x="274" y="253" type="curve" smooth="yes"/>
      <point x="274" y="103"/>
      <point x="248" y="30"/>
    </contour>
  </outline>
</glyph>
<glyph name="uni0468" format="2">
  <advance width="711"/>
  <unicode hex="0468"/>
  <anchor x="364" y="0" name="bottom"/>
  <anchor x="364" y="714" name="top"/>
  <outline>
    <contour>
      <point x="23" y="0" type="line"/>
      <point x="219" y="0" type="line"/>
      <point x="219" y="33" type="line"/>
      <point x="203" y="33" type="line" smooth="yes"/>
      <point x="164" y="33"/>
      <point x="158" y="47"/>
      <point x="158" y="109" type="curve" smooth="yes"/>
      <point x="158" y="349" type="line"/>
      <point x="366" y="349" type="line"/>
      <point x="380" y="388" type="line"/>
      <point x="158" y="388" type="line"/>
      <point x="158" y="606" type="line" smooth="yes"/>
      <point x="158" y="669"/>
      <point x="165" y="681"/>
      <point x="201" y="681" type="curve" smooth="yes"/>
      <point x="221" y="681" type="line"/>
      <point x="221" y="714" type="line"/>
      <point x="23" y="714" type="line"/>
      <point x="23" y="681" type="line"/>
      <point x="35" y="681" type="line" smooth="yes"/>
      <point x="73" y="681"/>
      <point x="83" y="669"/>
      <point x="83" y="605" type="curve" smooth="yes"/>
      <point x="83" y="109" type="line" smooth="yes"/>
      <point x="83" y="47"/>
      <point x="74" y="33"/>
      <point x="39" y="33" type="curve" smooth="yes"/>
      <point x="23" y="33" type="line"/>
    </contour>
    <component base="uni0466" xOffset="236"/>
  </outline>
</glyph>
<glyph name="uni046A" format="2">
  <advance width="555"/>
  <unicode hex="046A"/>
  <anchor x="277" y="0" name="bottom"/>
  <anchor x="277" y="714" name="top"/>
  <outline>
    <contour>
      <point x="0" y="0" type="line"/>
      <point x="33" y="0" type="line" smooth="yes"/>
      <point x="89" y="0"/>
      <point x="110" y="27"/>
      <point x="127" y="101" type="curve" smooth="yes"/>
      <point x="172" y="272" type="line" smooth="yes"/>
      <point x="186" y="328"/>
      <point x="193" y="350"/>
      <point x="244" y="350" type="curve"/>
      <point x="244" y="112" type="line" smooth="yes"/>
      <point x="244" y="43"/>
      <point x="238" y="33"/>
      <point x="194" y="33" type="curve" smooth="yes"/>
      <point x="185" y="33" type="line"/>
      <point x="185" y="0" type="line"/>
      <point x="374" y="0" type="line"/>
      <point x="374" y="33" type="line"/>
      <point x="360" y="33" type="line" smooth="yes"/>
      <point x="318" y="33"/>
      <point x="310" y="43"/>
      <point x="310" y="113" type="curve" smooth="yes"/>
      <point x="310" y="350" type="line"/>
      <point x="359" y="350"/>
      <point x="370" y="334"/>
      <point x="385" y="268" type="curve" smooth="yes"/>
      <point x="428" y="101" type="line" smooth="yes"/>
      <point x="444" y="21"/>
      <point x="471" y="0"/>
      <point x="521" y="0" type="curve" smooth="yes"/>
      <point x="555" y="0" type="line"/>
      <point x="555" y="31" type="line"/>
      <point x="554" y="31" type="line" smooth="yes"/>
      <point x="526" y="31"/>
      <point x="506" y="45"/>
      <point x="492" y="113" type="curve" smooth="yes"/>
      <point x="454" y="282" type="line" smooth="yes"/>
      <point x="440" y="333"/>
      <point x="418" y="388"/>
      <point x="330" y="388" type="curve"/>
      <point x="467" y="677" type="line"/>
      <point x="467" y="714" type="line"/>
      <point x="90" y="714" type="line"/>
      <point x="90" y="677" type="line"/>
      <point x="227" y="388" type="line"/>
      <point x="134" y="387"/>
      <point x="114" y="330"/>
      <point x="102" y="281" type="curve" smooth="yes"/>
      <point x="64" y="114" type="line" smooth="yes"/>
      <point x="50" y="54"/>
      <point x="36" y="31"/>
      <point x="2" y="31" type="curve" smooth="yes"/>
      <point x="0" y="31" type="line"/>
    </contour>
    <contour>
      <point x="294" y="395" type="line"/>
      <point x="175" y="670" type="line"/>
      <point x="420" y="670" type="line"/>
    </contour>
  </outline>
</glyph>
<glyph name="uni0472" format="2">
  <advance width="492"/>
  <unicode hex="0472"/>
  <anchor x="246" y="0" name="bottom"/>
  <anchor x="246" y="714" name="top"/>
  <outline>
    <contour>
      <point x="246" y="-10" type="curve" smooth="yes"/>
      <point x="370" y="-10"/>
      <point x="455" y="126"/>
      <point x="455" y="358" type="curve" smooth="yes"/>
      <point x="455" y="606"/>
      <point x="379" y="725"/>
      <point x="247" y="725" type="curve" smooth="yes"/>
      <point x="104" y="725"/>
      <point x="37" y="591"/>
      <point x="37" y="359" type="curve" smooth="yes"/>
      <point x="37" y="142"/>
      <point x="104" y="-10"/>
    </contour>
    <contour>
      <point x="246" y="31" type="curve" smooth="yes"/>
      <point x="162" y="31"/>
      <point x="118" y="153"/>
      <point x="115" y="331" type="curve"/>
      <point x="136" y="363"/>
      <point x="154" y="376"/>
      <point x="180" y="376" type="curve" smooth="yes"/>
      <point x="227" y="376"/>
      <point x="247" y="308"/>
      <point x="309" y="308" type="curve" smooth="yes"/>
      <point x="338" y="308"/>
      <point x="355" y="324"/>
      <point x="378" y="343" type="curve"/>
      <point x="374" y="145"/>
      <point x="326" y="31"/>
    </contour>
    <contour>
      <point x="321" y="357" type="curve" smooth="yes"/>
      <point x="271" y="357"/>
      <point x="246" y="425"/>
      <point x="197" y="425" type="curve" smooth="yes"/>
      <point x="153" y="425"/>
      <point x="133" y="402"/>
      <point x="115" y="384" type="curve"/>
      <point x="117" y="573"/>
      <point x="153" y="684"/>
      <point x="246" y="684" type="curve" smooth="yes"/>
      <point x="339" y="684"/>
      <point x="375" y="579"/>
      <point x="378" y="394" type="curve"/>
      <point x="360" y="368"/>
      <point x="342" y="357"/>
    </contour>
  </outline>
</glyph>
<glyph name="uni047C" format="2">
  <advance width="661"/>
  <unicode hex="047C"/>
  <outline>
    <contour>
      <point x="239" y="910" type="curve"/>
      <point x="272" y="910" type="line"/>
      <point x="274" y="924" type="line" smooth="yes"/>
      <point x="279" y="956"/>
      <point x="294" y="966"/>
      <point x="308" y="966" type="curve" smooth="yes"/>
      <point x="362" y="966"/>
      <point x="407" y="910"/>
      <point x="465" y="910" type="curve" smooth="yes"/>
      <point x="481" y="910" type="line"/>
      <point x="481" y="965" type="line"/>
      <point x="481" y="965" type="line"/>
      <point x="416" y="965"/>
      <point x="373" y="1021"/>
      <point x="313" y="1021" type="curve" smooth="yes"/>
      <point x="270" y="1021"/>
      <point x="242" y="983"/>
    </contour>
    <contour>
      <point x="314" y="754" type="line"/>
      <point x="373" y="778"/>
      <point x="395" y="830"/>
      <point x="395" y="873" type="curve" smooth="yes"/>
      <point x="395" y="916"/>
      <point x="377" y="931"/>
      <point x="354" y="931" type="curve" smooth="yes"/>
      <point x="340" y="931"/>
      <point x="321" y="922"/>
      <point x="321" y="898" type="curve" smooth="yes"/>
      <point x="321" y="864"/>
      <point x="351" y="866"/>
      <point x="351" y="841" type="curve"/>
      <point x="351" y="817"/>
      <point x="341" y="798"/>
      <point x="314" y="785" type="curve"/>
    </contour>
    <component base="uniA64C"/>
  </outline>
</glyph>
<glyph name="uni047D" format="2">
  <advance width="545"/>
  <unicode hex="047D"/>
  <outline>
    <contour>
      <point x="152" y="762" type="curve"/>
      <point x="184" y="762" type="line"/>
      <point x="186" y="776" type="line" smooth="yes"/>
      <point x="191" y="807"/>
      <point x="205" y="818"/>
      <point x="219" y="818" type="curve" smooth="yes"/>
      <point x="274" y="818"/>
      <point x="318" y="762"/>
      <point x="377" y="762" type="curve" smooth="yes"/>
      <point x="393" y="762" type="line"/>
      <point x="393" y="817" type="line"/>
      <point x="393" y="817" type="line"/>
      <point x="327" y="817"/>
      <point x="285" y="872"/>
      <point x="225" y="872" type="curve" smooth="yes"/>
      <point x="182" y="872"/>
      <point x="154" y="835"/>
    </contour>
    <contour>
      <point x="226" y="607" type="line"/>
      <point x="284" y="630"/>
      <point x="306" y="682"/>
      <point x="306" y="726" type="curve" smooth="yes"/>
      <point x="306" y="768"/>
      <point x="288" y="783"/>
      <point x="266" y="783" type="curve" smooth="yes"/>
      <point x="250" y="783"/>
      <point x="232" y="773"/>
      <point x="232" y="749" type="curve" smooth="yes"/>
      <point x="232" y="716"/>
      <point x="263" y="718"/>
      <point x="263" y="693" type="curve" smooth="yes"/>
      <point x="263" y="669"/>
      <point x="253" y="650"/>
      <point x="226" y="637" type="curve"/>
    </contour>
    <component base="uniA64D"/>
  </outline>
</glyph>
<glyph name="titlocomb.cy" format="2">
  <unicode hex="0483"/>
  <anchor x="0" y="536" name="_top"/>
  <anchor x="0" y="697" name="top"/>
  <outline>
    <contour>
      <point x="-50" y="594" type="curve" smooth="yes"/>
      <point x="-36" y="594"/>
      <point x="-33" y="609"/>
      <point x="-31" y="630" type="curve"/>
      <point x="55" y="630" type="line" smooth="yes"/>
      <point x="68" y="630"/>
      <point x="70" y="633"/>
      <point x="70" y="649" type="curve" smooth="yes"/>
      <point x="70" y="686"/>
      <point x="67" y="697"/>
      <point x="50" y="697" type="curve" smooth="yes"/>
      <point x="35" y="697"/>
      <point x="32" y="682"/>
      <point x="30" y="661" type="curve"/>
      <point x="-55" y="661" type="line"/>
      <point x="-69" y="661"/>
      <point x="-71" y="658"/>
      <point x="-71" y="642" type="curve" smooth="yes"/>
      <point x="-71" y="605"/>
      <point x="-68" y="594"/>
    </contour>
  </outline>
</glyph>
<glyph name="pokrytiecomb.cy" format="2">
  <unicode hex="0487"/>
  <anchor x="-7" y="536" name="_top"/>
  <outline>
    <contour>
      <point x="-133" y="766" type="curve"/>
      <point x="-95" y="766" type="line"/>
      <point x="-93" y="781" type="line" smooth="yes"/>
      <point x="-90" y="807"/>
      <point x="-78" y="821"/>
      <point x="-59" y="821" type="curve" smooth="yes"/>
      <point x="-17" y="821"/>
      <point x="39" y="767"/>
      <point x="115" y="767" type="curve" smooth="yes"/>
      <point x="119" y="767" type="line"/>
      <point x="119" y="823" type="line"/>
      <point x="123" y="823" type="line"/>
      <point x="47" y="823"/>
      <point x="0" y="877"/>
      <point x="-54" y="877" type="curve" smooth="yes"/>
      <point x="-101" y="877"/>
      <point x="-131" y="839"/>
    </contour>
  </outline>
</glyph>
<glyph name="uni048B" format="2">
  <advance width="451"/>
  <unicode hex="048B"/>
  <anchor x="226" y="0" name="bottom"/>
  <anchor x="226" y="735" name="top"/>
  <outline>
    <contour>
      <point x="354" y="-210" type="line"/>
      <point x="414" y="-210" type="line"/>
      <point x="454" y="23" type="line"/>
      <point x="454" y="33" type="line"/>
      <point x="411" y="33" type="line"/>
      <point x="411" y="0" type="line"/>
    </contour>
    <component base="afii10074"/>
    <component base="cyrillicbreve" xOffset="43"/>
  </outline>
</glyph>
<glyph name="uni048C" format="2">
  <advance width="401"/>
  <unicode hex="048C"/>
  <anchor x="200" y="0" name="bottom"/>
  <anchor x="200" y="714" name="top"/>
  <outline>
    <contour>
      <point x="20" y="0" type="line"/>
      <point x="207" y="0" type="line" smooth="yes"/>
      <point x="334" y="0"/>
      <point x="379" y="84"/>
      <point x="379" y="206" type="curve" smooth="yes"/>
      <point x="379" y="319"/>
      <point x="332" y="393"/>
      <point x="208" y="393" type="curve" smooth="yes"/>
      <point x="158" y="393" type="line"/>
      <point x="158" y="566" type="line"/>
      <point x="268" y="566" type="line"/>
      <point x="268" y="601" type="line"/>
      <point x="158" y="601" type="line"/>
      <point x="158" y="760" type="line"/>
      <point x="83" y="760" type="line"/>
      <point x="83" y="601" type="line"/>
      <point x="24" y="601" type="line"/>
      <point x="24" y="566" type="line"/>
      <point x="83" y="566" type="line"/>
      <point x="83" y="112" type="line" smooth="yes"/>
      <point x="83" y="45"/>
      <point x="77" y="33"/>
      <point x="35" y="33" type="curve" smooth="yes"/>
      <point x="20" y="33" type="line"/>
    </contour>
    <contour>
      <point x="158" y="39" type="line"/>
      <point x="158" y="355" type="line"/>
      <point x="197" y="355" type="line" smooth="yes"/>
      <point x="271" y="355"/>
      <point x="300" y="305"/>
      <point x="300" y="204" type="curve" smooth="yes"/>
      <point x="300" y="94"/>
      <point x="272" y="39"/>
      <point x="200" y="39" type="curve" smooth="yes"/>
    </contour>
  </outline>
</glyph>
<glyph name="uni049C" format="2">
  <advance width="479"/>
  <unicode hex="049C"/>
  <anchor x="239" y="0" name="bottom"/>
  <anchor x="239" y="714" name="top"/>
  <outline>
    <contour>
      <point x="22" y="0" type="line"/>
      <point x="222" y="0" type="line"/>
      <point x="222" y="33" type="line"/>
      <point x="201" y="33" type="line" smooth="yes"/>
      <point x="158" y="33"/>
      <point x="152" y="43"/>
      <point x="152" y="116" type="curve" smooth="yes"/>
      <point x="152" y="342" type="line"/>
      <point x="205" y="342" type="line"/>
      <point x="205" y="174" type="line"/>
      <point x="242" y="174" type="line"/>
      <point x="242" y="329" type="line"/>
      <point x="267" y="324"/>
      <point x="260" y="305"/>
      <point x="273" y="264" type="curve" smooth="yes"/>
      <point x="327" y="99" type="line" smooth="yes"/>
      <point x="353" y="21"/>
      <point x="371" y="0"/>
      <point x="441" y="0" type="curve" smooth="yes"/>
      <point x="472" y="0" type="line"/>
      <point x="472" y="31" type="line"/>
      <point x="463" y="31" type="line" smooth="yes"/>
      <point x="433" y="31"/>
      <point x="412" y="58"/>
      <point x="390" y="128" type="curve" smooth="yes"/>
      <point x="339" y="282" type="line" smooth="yes"/>
      <point x="313" y="362"/>
      <point x="285" y="367"/>
      <point x="258" y="377" type="curve"/>
      <point x="283" y="412"/>
      <point x="294" y="460"/>
      <point x="321" y="535" type="curve" smooth="yes"/>
      <point x="350" y="618"/>
      <point x="372" y="671"/>
      <point x="407" y="671" type="curve" smooth="yes"/>
      <point x="427" y="671"/>
      <point x="430" y="651"/>
      <point x="432" y="618" type="curve"/>
      <point x="445" y="623"/>
      <point x="458" y="633"/>
      <point x="458" y="662" type="curve" smooth="yes"/>
      <point x="458" y="696"/>
      <point x="439" y="720"/>
      <point x="409" y="720" type="curve" smooth="yes"/>
      <point x="351" y="720"/>
      <point x="317" y="632"/>
      <point x="289" y="551" type="curve" smooth="yes"/>
      <point x="257" y="460"/>
      <point x="251" y="435"/>
      <point x="242" y="405" type="curve"/>
      <point x="242" y="544" type="line"/>
      <point x="205" y="544" type="line"/>
      <point x="205" y="380" type="line"/>
      <point x="152" y="380" type="line"/>
      <point x="152" y="603" type="line" smooth="yes"/>
      <point x="152" y="672"/>
      <point x="160" y="681"/>
      <point x="200" y="681" type="curve" smooth="yes"/>
      <point x="222" y="681" type="line"/>
      <point x="222" y="714" type="line"/>
      <point x="22" y="714" type="line"/>
      <point x="22" y="681" type="line"/>
      <point x="36" y="681" type="line" smooth="yes"/>
      <point x="75" y="681"/>
      <point x="83" y="671"/>
      <point x="83" y="605" type="curve" smooth="yes"/>
      <point x="83" y="110" type="line" smooth="yes"/>
      <point x="83" y="42"/>
      <point x="76" y="33"/>
      <point x="36" y="33" type="curve" smooth="yes"/>
      <point x="22" y="33" type="line"/>
    </contour>
  </outline>
</glyph>
<glyph name="uni04B1" format="2">
  <advance width="381"/>
  <unicode hex="04B1"/>
  <anchor x="190" y="-238" name="bottom"/>
  <anchor x="190" y="536" name="top"/>
  <outline>
    <contour>
      <point x="72" y="-32" type="line"/>
      <point x="312" y="-32" type="line"/>
      <point x="312" y="4" type="line"/>
      <point x="72" y="4" type="line"/>
    </contour>
    <component base="uni04AF"/>
  </outline>
</glyph>
<glyph name="uni04B2" format="2">
  <advance width="455"/>
  <unicode hex="04B2"/>
  <anchor x="228" y="0" name="bottom"/>
  <anchor x="228" y="714" name="top"/>
  <outline>
    <contour>
      <point x="408" y="-210" type="curve"/>
      <point x="439" y="-210" type="line"/>
      <point x="439" y="31" type="line"/>
      <point x="434" y="31" type="line" smooth="yes"/>
      <point x="411" y="31"/>
      <point x="403" y="37"/>
      <point x="383" y="83" type="curve" smooth="yes"/>
      <point x="258" y="378" type="line"/>
      <point x="358" y="625" type="line" smooth="yes"/>
      <point x="379" y="674"/>
      <point x="392" y="681"/>
      <point x="423" y="681" type="curve" smooth="yes"/>
      <point x="420" y="681" type="line"/>
      <point x="420" y="714" type="line"/>
      <point x="276" y="714" type="line"/>
      <point x="276" y="681" type="line"/>
      <point x="288" y="681" type="line" smooth="yes"/>
      <point x="317" y="681"/>
      <point x="325" y="674"/>
      <point x="325" y="657" type="curve" smooth="yes"/>
      <point x="325" y="641"/>
      <point x="314" y="619"/>
      <point x="305" y="593" type="curve" smooth="yes"/>
      <point x="239" y="421" type="line"/>
      <point x="168" y="594" type="line" smooth="yes"/>
      <point x="157" y="622"/>
      <point x="144" y="651"/>
      <point x="144" y="659" type="curve" smooth="yes"/>
      <point x="144" y="672"/>
      <point x="149" y="681"/>
      <point x="184" y="681" type="curve" smooth="yes"/>
      <point x="202" y="681" type="line"/>
      <point x="202" y="714" type="line"/>
      <point x="12" y="714" type="line"/>
      <point x="12" y="681" type="line"/>
      <point x="8" y="681" type="line" smooth="yes"/>
      <point x="47" y="681"/>
      <point x="56" y="673"/>
      <point x="72" y="631" type="curve" smooth="yes"/>
      <point x="187" y="361" type="line"/>
      <point x="72" y="88" type="line" smooth="yes"/>
      <point x="53" y="43"/>
      <point x="39" y="33"/>
      <point x="-2" y="33" type="curve" smooth="yes"/>
      <point x="5" y="33" type="line"/>
      <point x="5" y="0" type="line"/>
      <point x="164" y="0" type="line"/>
      <point x="164" y="33" type="line"/>
      <point x="152" y="33" type="line" smooth="yes"/>
      <point x="114" y="33"/>
      <point x="108" y="42"/>
      <point x="108" y="59" type="curve" smooth="yes"/>
      <point x="108" y="74"/>
      <point x="113" y="92"/>
      <point x="136" y="147" type="curve" smooth="yes"/>
      <point x="206" y="320" type="line"/>
      <point x="283" y="135" type="line" smooth="yes"/>
      <point x="304" y="83"/>
      <point x="312" y="65"/>
      <point x="312" y="54" type="curve" smooth="yes"/>
      <point x="312" y="43"/>
      <point x="307" y="33"/>
      <point x="278" y="33" type="curve" smooth="yes"/>
      <point x="250" y="33" type="line"/>
      <point x="250" y="0" type="line"/>
      <point x="271" y="0" type="line"/>
      <point x="394" y="0"/>
      <point x="406" y="-15"/>
    </contour>
  </outline>
</glyph>
<glyph name="uni04BC" format="2">
  <advance width="537"/>
  <unicode hex="04BC"/>
  <anchor x="310" y="0" name="bottom"/>
  <anchor x="310" y="714" name="top"/>
  <outline>
    <contour>
      <point x="330" y="-10" type="curve" smooth="yes"/>
      <point x="417" y="-10"/>
      <point x="479" y="49"/>
      <point x="479" y="99" type="curve" smooth="yes"/>
      <point x="479" y="114"/>
      <point x="478" y="119"/>
      <point x="473" y="128" type="curve"/>
      <point x="445" y="74"/>
      <point x="405" y="35"/>
      <point x="343" y="35" type="curve" smooth="yes"/>
      <point x="256" y="35"/>
      <point x="198" y="136"/>
      <point x="194" y="340" type="curve"/>
      <point x="502" y="340" type="line"/>
      <point x="502" y="360" type="line" smooth="yes"/>
      <point x="502" y="564"/>
      <point x="461" y="725"/>
      <point x="317" y="725" type="curve" smooth="yes"/>
      <point x="189" y="725"/>
      <point x="126" y="599"/>
      <point x="118" y="379" type="curve"/>
      <point x="74" y="379"/>
      <point x="50" y="396"/>
      <point x="50" y="443" type="curve" smooth="yes"/>
      <point x="50" y="463"/>
      <point x="54" y="487"/>
      <point x="80" y="498" type="curve"/>
      <point x="74" y="504"/>
      <point x="65" y="508"/>
      <point x="56" y="508" type="curve" smooth="yes"/>
      <point x="29" y="508"/>
      <point x="3" y="483"/>
      <point x="3" y="439" type="curve" smooth="yes"/>
      <point x="3" y="368"/>
      <point x="50" y="343"/>
      <point x="118" y="342" type="curve"/>
      <point x="123" y="129"/>
      <point x="194" y="-10"/>
    </contour>
    <contour>
      <point x="195" y="378" type="line"/>
      <point x="203" y="579"/>
      <point x="232" y="684"/>
      <point x="314" y="684" type="curve" smooth="yes"/>
      <point x="397" y="684"/>
      <point x="425" y="555"/>
      <point x="425" y="378" type="curve"/>
    </contour>
  </outline>
</glyph>
<glyph name="uni04C5" format="2">
  <advance width="461"/>
  <unicode hex="04C5"/>
  <anchor x="231" y="0" name="bottom"/>
  <anchor x="231" y="714" name="top"/>
  <outline>
    <contour>
      <point x="357" y="-210" type="line"/>
      <point x="417" y="-210" type="line"/>
      <point x="454" y="20" type="line"/>
      <point x="454" y="33" type="line"/>
      <point x="410" y="33" type="line"/>
      <point x="411" y="2" type="line"/>
    </contour>
    <component base="afii10029"/>
  </outline>
</glyph>
<glyph name="uni04CB" format="2">
  <advance width="494"/>
  <unicode hex="04CB"/>
  <anchor x="248" y="-210" name="bottom"/>
  <anchor x="248" y="714" name="top"/>
  <outline>
    <contour>
      <point x="268" y="-210" type="line"/>
      <point x="303" y="-210" type="line"/>
      <point x="303" y="-23"/>
      <point x="317" y="0"/>
      <point x="444" y="0" type="curve" smooth="yes"/>
      <point x="473" y="0" type="line"/>
      <point x="473" y="33" type="line"/>
      <point x="459" y="33" type="line" smooth="yes"/>
      <point x="422" y="33"/>
      <point x="412" y="43"/>
      <point x="412" y="113" type="curve" smooth="yes"/>
      <point x="412" y="602" type="line" smooth="yes"/>
      <point x="412" y="670"/>
      <point x="422" y="681"/>
      <point x="461" y="681" type="curve" smooth="yes"/>
      <point x="473" y="681" type="line"/>
      <point x="473" y="714" type="line"/>
      <point x="281" y="714" type="line"/>
      <point x="281" y="681" type="line"/>
      <point x="289" y="681" type="line" smooth="yes"/>
      <point x="330" y="681"/>
      <point x="337" y="670"/>
      <point x="337" y="602" type="curve" smooth="yes"/>
      <point x="337" y="375" type="line"/>
      <point x="324" y="355"/>
      <point x="277" y="320"/>
      <point x="238" y="320" type="curve" smooth="yes"/>
      <point x="155" y="320"/>
      <point x="146" y="381"/>
      <point x="146" y="491" type="curve" smooth="yes"/>
      <point x="146" y="602" type="line" smooth="yes"/>
      <point x="146" y="670"/>
      <point x="155" y="681"/>
      <point x="195" y="681" type="curve" smooth="yes"/>
      <point x="209" y="681" type="line"/>
      <point x="209" y="714" type="line"/>
      <point x="14" y="714" type="line"/>
      <point x="14" y="681" type="line"/>
      <point x="22" y="681" type="line"/>
      <point x="63" y="681"/>
      <point x="70" y="670"/>
      <point x="70" y="602" type="curve" smooth="yes"/>
      <point x="70" y="492" type="line" smooth="yes"/>
      <point x="70" y="334"/>
      <point x="115" y="275"/>
      <point x="218" y="275" type="curve" smooth="yes"/>
      <point x="277" y="275"/>
      <point x="324" y="316"/>
      <point x="337" y="331" type="curve"/>
      <point x="337" y="114" type="line" smooth="yes"/>
      <point x="337" y="48"/>
      <point x="330" y="32"/>
      <point x="291" y="32" type="curve" smooth="yes"/>
      <point x="268" y="32" type="line"/>
    </contour>
  </outline>
</glyph>
<glyph name="uni04E1" format="2">
  <advance width="354"/>
  <unicode hex="04E1"/>
  <anchor x="177" y="-241" name="bottom"/>
  <anchor x="177" y="536" name="top"/>
  <outline>
    <contour>
      <point x="156" y="-241" type="curve" smooth="yes"/>
      <point x="245" y="-241"/>
      <point x="323" y="-181"/>
      <point x="323" y="-2" type="curve" smooth="yes"/>
      <point x="323" y="155"/>
      <point x="261" y="215"/>
      <point x="167" y="220" type="curve"/>
      <point x="308" y="492" type="line"/>
      <point x="308" y="536" type="line"/>
      <point x="49" y="536" type="line"/>
      <point x="39" y="398" type="line"/>
      <point x="68" y="398" type="line"/>
      <point x="70" y="400" type="line" smooth="yes"/>
      <point x="77" y="461"/>
      <point x="84" y="477"/>
      <point x="137" y="477" type="curve" smooth="yes"/>
      <point x="253" y="477" type="line"/>
      <point x="111" y="209" type="line"/>
      <point x="111" y="181" type="line"/>
      <point x="136" y="181" type="line" smooth="yes"/>
      <point x="217" y="181"/>
      <point x="250" y="120"/>
      <point x="250" y="-6" type="curve" smooth="yes"/>
      <point x="250" y="-167"/>
      <point x="210" y="-203"/>
      <point x="154" y="-203" type="curve" smooth="yes"/>
      <point x="81" y="-203"/>
      <point x="63" y="-143"/>
      <point x="64" y="-81" type="curve"/>
      <point x="34" y="-81"/>
      <point x="23" y="-103"/>
      <point x="23" y="-136" type="curve" smooth="yes"/>
      <point x="23" y="-174"/>
      <point x="45" y="-241"/>
    </contour>
  </outline>
</glyph>
<glyph name="uni04FE" format="2">
  <advance width="446"/>
  <unicode hex="04FE"/>
  <anchor x="224" y="0" name="bottom"/>
  <anchor x="224" y="714" name="top"/>
  <anchor x="426" y="714" name="topright"/>
  <outline>
    <contour>
      <point x="62" y="356" type="line"/>
      <point x="390" y="356" type="line"/>
      <point x="390" y="393" type="line"/>
      <point x="62" y="393" type="line"/>
    </contour>
    <component base="X"/>
  </outline>
</glyph>
<glyph name="uni04FF" format="2">
  <advance width="390"/>
  <unicode hex="04FF"/>
  <anchor x="195" y="0" name="bottom"/>
  <anchor x="195" y="536" name="top"/>
  <anchor x="370" y="536" name="topright"/>
  <outline>
    <contour>
      <point x="52" y="273" type="line"/>
      <point x="344" y="273" type="line"/>
      <point x="344" y="309" type="line"/>
      <point x="52" y="309" type="line"/>
    </contour>
    <component base="x"/>
  </outline>
</glyph>
<glyph name="uni0508" format="2">
  <advance width="649"/>
  <unicode hex="0508"/>
  <anchor x="325" y="0" name="bottom"/>
  <anchor x="325" y="714" name="top"/>
  <outline>
    <contour>
      <point x="436" y="-10" type="curve" smooth="yes"/>
      <point x="542" y="-10"/>
      <point x="576" y="60"/>
      <point x="576" y="177" type="curve" smooth="yes"/>
      <point x="576" y="273" type="line" smooth="yes"/>
      <point x="576" y="347"/>
      <point x="581" y="360"/>
      <point x="627" y="360" type="curve" smooth="yes"/>
      <point x="638" y="360" type="line"/>
      <point x="638" y="393" type="line"/>
      <point x="435" y="393" type="line"/>
      <point x="435" y="360" type="line"/>
      <point x="447" y="360" type="line" smooth="yes"/>
      <point x="495" y="360"/>
      <point x="501" y="348"/>
      <point x="501" y="273" type="curve" smooth="yes"/>
      <point x="501" y="184" type="line" smooth="yes"/>
      <point x="501" y="78"/>
      <point x="489" y="30"/>
      <point x="436" y="30" type="curve" smooth="yes"/>
      <point x="393" y="30"/>
      <point x="376" y="78"/>
      <point x="376" y="167" type="curve" smooth="yes"/>
      <point x="376" y="603" type="line" smooth="yes"/>
      <point x="376" y="673"/>
      <point x="385" y="681"/>
      <point x="427" y="681" type="curve" smooth="yes"/>
      <point x="438" y="681" type="line"/>
      <point x="438" y="714" type="line"/>
      <point x="93" y="714" type="line"/>
      <point x="93" y="681" type="line"/>
      <point x="99" y="681" type="line" smooth="yes"/>
      <point x="142" y="681"/>
      <point x="162" y="671"/>
      <point x="162" y="644" type="curve" smooth="yes"/>
      <point x="162" y="585"/>
      <point x="153" y="363"/>
      <point x="130" y="231" type="curve" smooth="yes"/>
      <point x="101" y="66"/>
      <point x="76" y="49"/>
      <point x="52" y="49" type="curve" smooth="yes"/>
      <point x="33" y="49"/>
      <point x="18" y="70"/>
      <point x="21" y="90" type="curve"/>
      <point x="11" y="90"/>
      <point x="0" y="79"/>
      <point x="0" y="51" type="curve" smooth="yes"/>
      <point x="0" y="16"/>
      <point x="21" y="-7"/>
      <point x="52" y="-7" type="curve" smooth="yes"/>
      <point x="93" y="-7"/>
      <point x="126" y="23"/>
      <point x="154" y="154" type="curve" smooth="yes"/>
      <point x="169" y="241"/>
      <point x="196" y="432"/>
      <point x="195" y="678" type="curve"/>
      <point x="302" y="678" type="line"/>
      <point x="302" y="171" type="line" smooth="yes"/>
      <point x="302" y="64"/>
      <point x="329" y="-10"/>
    </contour>
  </outline>
</glyph>
<glyph name="uni050E" format="2">
  <advance width="515"/>
  <unicode hex="050E"/>
  <anchor x="258" y="0" name="bottom"/>
  <anchor x="258" y="714" name="top"/>
  <outline>
    <contour>
      <point x="300" y="-10" type="curve" smooth="yes"/>
      <point x="407" y="-10"/>
      <point x="440" y="60"/>
      <point x="440" y="177" type="curve" smooth="yes"/>
      <point x="440" y="273" type="line" smooth="yes"/>
      <point x="440" y="347"/>
      <point x="447" y="360"/>
      <point x="492" y="360" type="curve" smooth="yes"/>
      <point x="504" y="360" type="line"/>
      <point x="504" y="393" type="line"/>
      <point x="301" y="393" type="line"/>
      <point x="301" y="360" type="line"/>
      <point x="311" y="360" type="line" smooth="yes"/>
      <point x="357" y="360"/>
      <point x="366" y="348"/>
      <point x="366" y="273" type="curve" smooth="yes"/>
      <point x="366" y="184" type="line" smooth="yes"/>
      <point x="366" y="78"/>
      <point x="353" y="30"/>
      <point x="300" y="30" type="curve" smooth="yes"/>
      <point x="256" y="30"/>
      <point x="241" y="78"/>
      <point x="241" y="167" type="curve" smooth="yes"/>
      <point x="241" y="675" type="line"/>
      <point x="303" y="675" type="line" smooth="yes"/>
      <point x="350" y="675"/>
      <point x="357" y="653"/>
      <point x="359" y="604" type="curve" smooth="yes"/>
      <point x="362" y="546" type="line"/>
      <point x="397" y="546" type="line"/>
      <point x="393" y="714" type="line"/>
      <point x="14" y="714" type="line"/>
      <point x="11" y="546" type="line"/>
      <point x="45" y="546" type="line"/>
      <point x="49" y="599" type="line" smooth="yes"/>
      <point x="51" y="653"/>
      <point x="55" y="675"/>
      <point x="110" y="675" type="curve" smooth="yes"/>
      <point x="165" y="675" type="line"/>
      <point x="165" y="171" type="line" smooth="yes"/>
      <point x="165" y="64"/>
      <point x="194" y="-10"/>
    </contour>
  </outline>
</glyph>
<glyph name="uni0521" format="2">
  <advance width="576"/>
  <unicode hex="0521"/>
  <anchor x="288" y="-240" name="bottom"/>
  <anchor x="288" y="536" name="top"/>
  <outline>
    <contour>
      <point x="404" y="-240" type="curve" smooth="yes"/>
      <point x="495" y="-240"/>
      <point x="562" y="-179"/>
      <point x="562" y="36" type="curve" smooth="yes"/>
      <point x="562" y="236"/>
      <point x="483" y="297"/>
      <point x="413" y="297" type="curve" smooth="yes"/>
      <point x="390" y="297"/>
      <point x="369" y="294"/>
      <point x="352" y="288" type="curve"/>
      <point x="352" y="437" type="line" smooth="yes"/>
      <point x="352" y="497"/>
      <point x="372" y="503"/>
      <point x="408" y="503" type="curve" smooth="yes"/>
      <point x="414" y="503" type="line"/>
      <point x="414" y="536" type="line"/>
      <point x="89" y="536" type="line"/>
      <point x="89" y="503" type="line"/>
      <point x="97" y="503" type="line" smooth="yes"/>
      <point x="131" y="503"/>
      <point x="153" y="497"/>
      <point x="153" y="437" type="curve" smooth="yes"/>
      <point x="153" y="410"/>
      <point x="135" y="274"/>
      <point x="126" y="218" type="curve" smooth="yes"/>
      <point x="95" y="48"/>
      <point x="76" y="44"/>
      <point x="57" y="44" type="curve" smooth="yes"/>
      <point x="39" y="44"/>
      <point x="32" y="56"/>
      <point x="32" y="83" type="curve"/>
      <point x="16" y="83"/>
      <point x="2" y="68"/>
      <point x="2" y="44" type="curve" smooth="yes"/>
      <point x="2" y="10"/>
      <point x="25" y="-7"/>
      <point x="54" y="-7" type="curve" smooth="yes"/>
      <point x="102" y="-7"/>
      <point x="129" y="30"/>
      <point x="150" y="160" type="curve" smooth="yes"/>
      <point x="167" y="263"/>
      <point x="187" y="408"/>
      <point x="187" y="498" type="curve"/>
      <point x="279" y="498" type="line"/>
      <point x="279" y="105" type="line" smooth="yes"/>
      <point x="279" y="41"/>
      <point x="262" y="33"/>
      <point x="227" y="33" type="curve" smooth="yes"/>
      <point x="222" y="33" type="line"/>
      <point x="222" y="0" type="line"/>
      <point x="414" y="0" type="line"/>
      <point x="414" y="33" type="line"/>
      <point x="405" y="33" type="line" smooth="yes"/>
      <point x="370" y="33"/>
      <point x="352" y="41"/>
      <point x="352" y="105" type="curve" smooth="yes"/>
      <point x="352" y="249" type="line"/>
      <point x="366" y="255"/>
      <point x="379" y="257"/>
      <point x="401" y="257" type="curve" smooth="yes"/>
      <point x="434" y="257"/>
      <point x="488" y="219"/>
      <point x="488" y="27" type="curve" smooth="yes"/>
      <point x="488" y="-155"/>
      <point x="455" y="-199"/>
      <point x="405" y="-199" type="curve" smooth="yes"/>
      <point x="356" y="-199"/>
      <point x="342" y="-162"/>
      <point x="342" y="-91" type="curve"/>
      <point x="305" y="-91"/>
      <point x="292" y="-107"/>
      <point x="292" y="-132" type="curve" smooth="yes"/>
      <point x="292" y="-181"/>
      <point x="320" y="-240"/>
    </contour>
  </outline>
</glyph>
<glyph name="uni0524" format="2">
  <advance width="506"/>
  <unicode hex="0524"/>
  <anchor x="253" y="0" name="bottom"/>
  <anchor x="253" y="714" name="top"/>
  <outline>
    <contour>
      <point x="447" y="-210" type="curve"/>
      <point x="487" y="-210" type="line"/>
      <point x="487" y="38" type="line"/>
      <point x="472" y="38" type="line" smooth="yes"/>
      <point x="428" y="38"/>
      <point x="422" y="53"/>
      <point x="422" y="121" type="curve" smooth="yes"/>
      <point x="422" y="603" type="line" smooth="yes"/>
      <point x="422" y="671"/>
      <point x="432" y="681"/>
      <point x="471" y="681" type="curve" smooth="yes"/>
      <point x="485" y="681" type="line"/>
      <point x="485" y="714" type="line"/>
      <point x="23" y="714" type="line"/>
      <point x="23" y="681" type="line"/>
      <point x="32" y="681" type="line" smooth="yes"/>
      <point x="72" y="681"/>
      <point x="83" y="671"/>
      <point x="83" y="604" type="curve" smooth="yes"/>
      <point x="83" y="112" type="line" smooth="yes"/>
      <point x="83" y="43"/>
      <point x="72" y="33"/>
      <point x="33" y="33" type="curve" smooth="yes"/>
      <point x="23" y="33" type="line"/>
      <point x="23" y="0" type="line"/>
      <point x="219" y="0" type="line"/>
      <point x="219" y="33" type="line"/>
      <point x="207" y="33" type="line" smooth="yes"/>
      <point x="167" y="33"/>
      <point x="158" y="43"/>
      <point x="158" y="112" type="curve" smooth="yes"/>
      <point x="158" y="675" type="line"/>
      <point x="347" y="675" type="line"/>
      <point x="347" y="112" type="line" smooth="yes"/>
      <point x="347" y="43"/>
      <point x="337" y="33"/>
      <point x="298" y="33" type="curve" smooth="yes"/>
      <point x="285" y="33" type="line"/>
      <point x="285" y="0" type="line"/>
      <point x="306" y="0" type="line" smooth="yes"/>
      <point x="435" y="0"/>
      <point x="449" y="-31"/>
    </contour>
  </outline>
</glyph>
<glyph name="uni1AB4" format="2">
  <unicode hex="1AB4"/>
  <anchor x="1" y="536" name="_top"/>
  <anchor x="1" y="840" name="top"/>
  <outline>
    <contour>
      <point x="1" y="776" type="curve" smooth="yes"/>
      <point x="20" y="776"/>
      <point x="37" y="783"/>
      <point x="37" y="806" type="curve" smooth="yes"/>
      <point x="37" y="834"/>
      <point x="19" y="840"/>
      <point x="1" y="840" type="curve" smooth="yes"/>
      <point x="-21" y="840"/>
      <point x="-35" y="834"/>
      <point x="-35" y="806" type="curve" smooth="yes"/>
      <point x="-35" y="782"/>
      <point x="-20" y="776"/>
    </contour>
    <contour>
      <point x="-68" y="674" type="curve" smooth="yes"/>
      <point x="-50" y="674"/>
      <point x="-30" y="679"/>
      <point x="-30" y="704" type="curve" smooth="yes"/>
      <point x="-30" y="732"/>
      <point x="-49" y="738"/>
      <point x="-68" y="738" type="curve" smooth="yes"/>
      <point x="-87" y="738"/>
      <point x="-103" y="733"/>
      <point x="-103" y="704" type="curve" smooth="yes"/>
      <point x="-103" y="680"/>
      <point x="-88" y="674"/>
    </contour>
    <contour>
      <point x="67" y="674" type="curve" smooth="yes"/>
      <point x="85" y="674"/>
      <point x="104" y="681"/>
      <point x="104" y="705" type="curve" smooth="yes"/>
      <point x="104" y="733"/>
      <point x="84" y="738"/>
      <point x="67" y="738" type="curve" smooth="yes"/>
      <point x="47" y="738"/>
      <point x="29" y="732"/>
      <point x="29" y="705" type="curve" smooth="yes"/>
      <point x="29" y="681"/>
      <point x="47" y="674"/>
    </contour>
  </outline>
</glyph>
<glyph name="uni1AB6" format="2">
  <unicode hex="1AB6"/>
  <anchor x="0" y="0" name="_bottom"/>
  <anchor x="0" y="-178" name="bottom"/>
  <outline>
    <contour>
      <point x="-68" y="-178" type="curve" smooth="yes"/>
      <point x="-30" y="-178"/>
      <point x="-15" y="-108"/>
      <point x="0" y="-108" type="curve" smooth="yes"/>
      <point x="15" y="-108"/>
      <point x="32" y="-178"/>
      <point x="69" y="-178" type="curve" smooth="yes"/>
      <point x="112" y="-178"/>
      <point x="124" y="-105"/>
      <point x="137" y="-105" type="curve" smooth="yes"/>
      <point x="154" y="-105"/>
      <point x="156" y="-141"/>
      <point x="158" y="-172" type="curve"/>
      <point x="193" y="-172" type="line"/>
      <point x="193" y="-107"/>
      <point x="171" y="-63"/>
      <point x="135" y="-63" type="curve" smooth="yes"/>
      <point x="89" y="-63"/>
      <point x="82" y="-133"/>
      <point x="67" y="-133" type="curve" smooth="yes"/>
      <point x="58" y="-133"/>
      <point x="38" y="-63"/>
      <point x="0" y="-63" type="curve" smooth="yes"/>
      <point x="-38" y="-63"/>
      <point x="-58" y="-133"/>
      <point x="-66" y="-133" type="curve" smooth="yes"/>
      <point x="-81" y="-133"/>
      <point x="-89" y="-63"/>
      <point x="-135" y="-63" type="curve" smooth="yes"/>
      <point x="-171" y="-63"/>
      <point x="-194" y="-107"/>
      <point x="-194" y="-172" type="curve"/>
      <point x="-158" y="-172" type="line"/>
      <point x="-155" y="-141"/>
      <point x="-154" y="-105"/>
      <point x="-137" y="-105" type="curve" smooth="yes"/>
      <point x="-122" y="-105"/>
      <point x="-108" y="-178"/>
    </contour>
  </outline>
</glyph>
<glyph name="uni1C84" format="2">
  <advance width="385"/>
  <unicode hex="1C84"/>
  <anchor x="193" y="0" name="bottom"/>
  <anchor x="193" y="714" name="top"/>
  <outline>
    <contour>
      <point x="79" y="0" type="line"/>
      <point x="288" y="0" type="line"/>
      <point x="288" y="33" type="line"/>
      <point x="269" y="33" type="line" smooth="yes"/>
      <point x="243" y="33"/>
      <point x="225" y="40"/>
      <point x="225" y="70" type="curve" smooth="yes"/>
      <point x="225" y="82"/>
      <point x="226" y="91"/>
      <point x="229" y="108" type="curve" smooth="yes"/>
      <point x="353" y="671" type="line"/>
      <point x="353" y="714" type="line"/>
      <point x="43" y="714" type="line"/>
      <point x="40" y="564" type="line"/>
      <point x="74" y="564" type="line"/>
      <point x="74" y="598" type="line" smooth="yes"/>
      <point x="76" y="656"/>
      <point x="88" y="675"/>
      <point x="142" y="675" type="curve" smooth="yes"/>
      <point x="286" y="675" type="line"/>
      <point x="148" y="76" type="line" smooth="yes"/>
      <point x="141" y="43"/>
      <point x="125" y="33"/>
      <point x="85" y="33" type="curve" smooth="yes"/>
      <point x="79" y="33" type="line"/>
    </contour>
  </outline>
</glyph>
<glyph name="uni1D01" format="2">
  <advance width="471"/>
  <unicode hex="1D01"/>
  <anchor x="237" y="0" name="bottom"/>
  <anchor x="237" y="536" name="top"/>
  <outline>
    <contour>
      <point x="-9" y="0" type="line"/>
      <point x="126" y="0" type="line"/>
      <point x="126" y="34" type="line"/>
      <point x="119" y="34" type="line" smooth="yes"/>
      <point x="87" y="34"/>
      <point x="78" y="40"/>
      <point x="78" y="58" type="curve" smooth="yes"/>
      <point x="78" y="66"/>
      <point x="83" y="89"/>
      <point x="93" y="115" type="curve" smooth="yes"/>
      <point x="108" y="180" type="line"/>
      <point x="210" y="180" type="line"/>
      <point x="210" y="100" type="line" smooth="yes"/>
      <point x="210" y="43"/>
      <point x="203" y="34"/>
      <point x="167" y="34" type="curve" smooth="yes"/>
      <point x="164" y="34" type="line"/>
      <point x="164" y="0" type="line"/>
      <point x="436" y="0" type="line"/>
      <point x="442" y="132" type="line"/>
      <point x="411" y="132" type="line"/>
      <point x="409" y="126" type="line" smooth="yes"/>
      <point x="400" y="48"/>
      <point x="394" y="40"/>
      <point x="357" y="40" type="curve" smooth="yes"/>
      <point x="280" y="40" type="line"/>
      <point x="280" y="262" type="line"/>
      <point x="393" y="262" type="line"/>
      <point x="393" y="300" type="line"/>
      <point x="280" y="300" type="line"/>
      <point x="280" y="496" type="line"/>
      <point x="341" y="496" type="line" smooth="yes"/>
      <point x="378" y="496"/>
      <point x="388" y="492"/>
      <point x="389" y="413" type="curve" smooth="yes"/>
      <point x="390" y="405" type="line"/>
      <point x="423" y="405" type="line"/>
      <point x="425" y="536" type="line"/>
      <point x="133" y="536" type="line"/>
      <point x="133" y="503" type="line"/>
      <point x="176" y="496" type="line"/>
      <point x="44" y="92" type="line" smooth="yes"/>
      <point x="27" y="42"/>
      <point x="22" y="34"/>
      <point x="-7" y="34" type="curve" smooth="yes"/>
      <point x="-9" y="34" type="line"/>
    </contour>
    <contour>
      <point x="122" y="216" type="line"/>
      <point x="213" y="492" type="line"/>
      <point x="209" y="492" type="line"/>
      <point x="210" y="216" type="line"/>
    </contour>
  </outline>
</glyph>
<glyph name="uni1D04" format="2">
  <advance width="345"/>
  <unicode hex="1D04"/>
  <anchor x="172" y="0" name="bottom"/>
  <anchor x="172" y="536" name="top"/>
  <outline>
    <contour>
      <point x="210" y="-9" type="curve" smooth="yes"/>
      <point x="292" y="-9"/>
      <point x="327" y="47"/>
      <point x="327" y="97" type="curve" smooth="yes"/>
      <point x="327" y="115"/>
      <point x="324" y="124"/>
      <point x="320" y="131" type="curve"/>
      <point x="306" y="88"/>
      <point x="273" y="32"/>
      <point x="219" y="32" type="curve" smooth="yes"/>
      <point x="151" y="32"/>
      <point x="116" y="91"/>
      <point x="116" y="264" type="curve" smooth="yes"/>
      <point x="116" y="463"/>
      <point x="147" y="506"/>
      <point x="205" y="506" type="curve" smooth="yes"/>
      <point x="247" y="506"/>
      <point x="266" y="463"/>
      <point x="266" y="390" type="curve"/>
      <point x="301" y="390"/>
      <point x="322" y="404"/>
      <point x="322" y="436" type="curve" smooth="yes"/>
      <point x="322" y="502"/>
      <point x="280" y="542"/>
      <point x="205" y="542" type="curve" smooth="yes"/>
      <point x="106" y="542"/>
      <point x="44" y="481"/>
      <point x="44" y="263" type="curve" smooth="yes"/>
      <point x="44" y="56"/>
      <point x="113" y="-9"/>
    </contour>
  </outline>
</glyph>
<glyph name="uni1D20" format="2">
  <advance width="327"/>
  <unicode hex="1D20"/>
  <anchor x="163" y="0" name="bottom"/>
  <anchor x="163" y="536" name="top"/>
  <outline>
    <contour>
      <point x="139" y="0" type="line"/>
      <point x="194" y="0" type="line"/>
      <point x="287" y="448" type="line" smooth="yes"/>
      <point x="297" y="496"/>
      <point x="305" y="502"/>
      <point x="331" y="502" type="curve" smooth="yes"/>
      <point x="332" y="502" type="line"/>
      <point x="332" y="536" type="line"/>
      <point x="203" y="536" type="line"/>
      <point x="203" y="502" type="line"/>
      <point x="220" y="502" type="line" smooth="yes"/>
      <point x="244" y="502"/>
      <point x="253" y="494"/>
      <point x="253" y="477" type="curve" smooth="yes"/>
      <point x="253" y="469"/>
      <point x="246" y="441"/>
      <point x="241" y="412" type="curve" smooth="yes"/>
      <point x="209" y="225" type="line" smooth="yes"/>
      <point x="193" y="148"/>
      <point x="185" y="95"/>
      <point x="183" y="75" type="curve"/>
      <point x="180" y="75" type="line"/>
      <point x="178" y="109"/>
      <point x="163" y="186"/>
      <point x="156" y="225" type="curve" smooth="yes"/>
      <point x="130" y="384" type="line" smooth="yes"/>
      <point x="123" y="421"/>
      <point x="109" y="467"/>
      <point x="109" y="481" type="curve" smooth="yes"/>
      <point x="109" y="497"/>
      <point x="119" y="502"/>
      <point x="145" y="502" type="curve" smooth="yes"/>
      <point x="148" y="502" type="line"/>
      <point x="148" y="536" type="line"/>
      <point x="0" y="536" type="line"/>
      <point x="0" y="502" type="line"/>
      <point x="-3" y="502" type="line" smooth="yes"/>
      <point x="27" y="502"/>
      <point x="32" y="495"/>
      <point x="41" y="454" type="curve" smooth="yes"/>
    </contour>
  </outline>
</glyph>
<glyph name="uni1D6D" format="2">
  <advance width="406"/>
  <unicode hex="1D6D"/>
  <outline>
    <contour>
      <point x="164" y="-10" type="curve" smooth="yes"/>
      <point x="212" y="-10"/>
      <point x="246" y="25"/>
      <point x="265" y="82" type="curve"/>
      <point x="268" y="82" type="line"/>
      <point x="280" y="0" type="line"/>
      <point x="394" y="0" type="line"/>
      <point x="394" y="33" type="line"/>
      <point x="391" y="33" type="line" smooth="yes"/>
      <point x="348" y="33"/>
      <point x="335" y="45"/>
      <point x="335" y="100" type="curve" smooth="yes"/>
      <point x="335" y="760" type="line"/>
      <point x="206" y="760" type="line"/>
      <point x="206" y="727" type="line"/>
      <point x="204" y="727" type="line" smooth="yes"/>
      <point x="249" y="727"/>
      <point x="262" y="720"/>
      <point x="262" y="649" type="curve" smooth="yes"/>
      <point x="262" y="549" type="line" smooth="yes"/>
      <point x="262" y="521"/>
      <point x="263" y="473"/>
      <point x="267" y="444" type="curve"/>
      <point x="263" y="444" type="line"/>
      <point x="243" y="495"/>
      <point x="218" y="533"/>
      <point x="169" y="533" type="curve" smooth="yes"/>
      <point x="94" y="533"/>
      <point x="34" y="470"/>
      <point x="34" y="260" type="curve" smooth="yes"/>
      <point x="34" y="55"/>
      <point x="82" y="-10"/>
    </contour>
    <contour>
      <point x="184" y="34" type="curve" smooth="yes"/>
      <point x="129" y="34"/>
      <point x="107" y="97"/>
      <point x="107" y="260" type="curve" smooth="yes"/>
      <point x="107" y="429"/>
      <point x="143" y="490"/>
      <point x="188" y="490" type="curve" smooth="yes"/>
      <point x="243" y="490"/>
      <point x="263" y="404"/>
      <point x="263" y="260" type="curve" smooth="yes"/>
      <point x="263" y="112"/>
      <point x="236" y="33"/>
    </contour>
    <contour>
      <point x="174" y="567" type="curve"/>
      <point x="213" y="567" type="line"/>
      <point x="214" y="600"/>
      <point x="221" y="623"/>
      <point x="241" y="623" type="curve" smooth="yes"/>
      <point x="278" y="623"/>
      <point x="307" y="556"/>
      <point x="359" y="556" type="curve" smooth="yes"/>
      <point x="416" y="556"/>
      <point x="430" y="610"/>
      <point x="432" y="663" type="curve"/>
      <point x="393" y="663" type="line"/>
      <point x="392" y="632"/>
      <point x="384" y="607"/>
      <point x="362" y="607" type="curve" smooth="yes"/>
      <point x="319" y="607"/>
      <point x="291" y="672"/>
      <point x="244" y="672" type="curve" smooth="yes"/>
      <point x="188" y="672"/>
      <point x="176" y="622"/>
    </contour>
  </outline>
</glyph>
<glyph name="uni1D75" format="2">
  <advance width="243"/>
  <unicode hex="1D75"/>
  <anchor x="106" y="658" name="top"/>
  <anchor x="122" y="268" name="center"/>
  <anchor x="249" y="658" name="topright"/>
  <anchor x="168" y="0" name="bottom"/>
  <outline>
    <contour>
      <point x="-31" y="232" type="curve"/>
      <point x="7" y="232" type="line"/>
      <point x="10" y="265"/>
      <point x="17" y="288"/>
      <point x="36" y="288" type="curve" smooth="yes"/>
      <point x="74" y="288"/>
      <point x="95" y="230"/>
      <point x="146" y="230" type="curve" smooth="yes"/>
      <point x="201" y="230"/>
      <point x="218" y="286"/>
      <point x="218" y="340" type="curve"/>
      <point x="180" y="340" type="line"/>
      <point x="179" y="306"/>
      <point x="175" y="282"/>
      <point x="150" y="282" type="curve" smooth="yes"/>
      <point x="115" y="282"/>
      <point x="89" y="340"/>
      <point x="40" y="340" type="curve" smooth="yes"/>
      <point x="-13" y="340"/>
      <point x="-30" y="289"/>
    </contour>
    <component base="t"/>
  </outline>
</glyph>
<glyph name="macronacutecomb" format="2">
  <unicode hex="1DC4"/>
  <anchor x="5" y="536" name="_top"/>
  <anchor x="5" y="727" name="top"/>
  <outline>
    <contour>
      <point x="-95" y="615" type="line"/>
      <point x="18" y="615" type="line"/>
      <point x="106" y="685" type="line"/>
      <point x="85" y="727" type="line"/>
      <point x="7" y="662" type="line"/>
      <point x="-95" y="662" type="line"/>
    </contour>
  </outline>
</glyph>
<glyph name="flattenedopenaabove" format="2">
  <unicode hex="1DD3"/>
  <anchor x="-1" y="536" name="_top"/>
  <anchor x="-1" y="733" name="top"/>
  <outline>
    <contour>
      <point x="-64" y="615" type="curve" smooth="yes"/>
      <point x="-35" y="615"/>
      <point x="-11" y="631"/>
      <point x="0" y="677" type="curve"/>
      <point x="10" y="631"/>
      <point x="31" y="615"/>
      <point x="62" y="615" type="curve" smooth="yes"/>
      <point x="99" y="615"/>
      <point x="121" y="653"/>
      <point x="121" y="733" type="curve"/>
      <point x="92" y="733" type="line"/>
      <point x="88" y="686"/>
      <point x="81" y="658"/>
      <point x="58" y="658" type="curve" smooth="yes"/>
      <point x="31" y="658"/>
      <point x="22" y="681"/>
      <point x="16" y="733" type="curve"/>
      <point x="-15" y="733" type="line"/>
      <point x="-23" y="679"/>
      <point x="-32" y="658"/>
      <point x="-58" y="658" type="curve" smooth="yes"/>
      <point x="-81" y="658"/>
      <point x="-88" y="687"/>
      <point x="-91" y="733" type="curve"/>
      <point x="-123" y="733" type="line"/>
      <point x="-124" y="655"/>
      <point x="-101" y="615"/>
    </contour>
  </outline>
</glyph>
<glyph name="uni1E28" format="2">
  <advance width="520"/>
  <unicode hex="1E28"/>
  <anchor x="260" y="-229" name="bottom"/>
  <anchor x="260" y="714" name="top"/>
  <outline>
    <contour>
      <point x="113" y="-229" type="curve" smooth="yes"/>
      <point x="170" y="-229"/>
      <point x="202" y="-189"/>
      <point x="202" y="-129" type="curve" smooth="yes"/>
      <point x="202" y="-75"/>
      <point x="172" y="-45"/>
      <point x="136" y="-38" type="curve"/>
      <point x="143" y="0" type="line"/>
      <point x="225" y="0" type="line"/>
      <point x="225" y="33" type="line"/>
      <point x="199" y="33" type="line" smooth="yes"/>
      <point x="165" y="33"/>
      <point x="158" y="43"/>
      <point x="158" y="112" type="curve" smooth="yes"/>
      <point x="158" y="354" type="line"/>
      <point x="362" y="354" type="line"/>
      <point x="362" y="112" type="line" smooth="yes"/>
      <point x="362" y="43"/>
      <point x="356" y="33"/>
      <point x="321" y="33" type="curve" smooth="yes"/>
      <point x="295" y="33" type="line"/>
      <point x="295" y="0" type="line"/>
      <point x="499" y="0" type="line"/>
      <point x="499" y="33" type="line"/>
      <point x="479" y="33" type="line" smooth="yes"/>
      <point x="444" y="33"/>
      <point x="437" y="42"/>
      <point x="437" y="110" type="curve" smooth="yes"/>
      <point x="437" y="603" type="line" smooth="yes"/>
      <point x="437" y="671"/>
      <point x="444" y="681"/>
      <point x="478" y="681" type="curve" smooth="yes"/>
      <point x="499" y="681" type="line"/>
      <point x="499" y="714" type="line"/>
      <point x="295" y="714" type="line"/>
      <point x="295" y="681" type="line"/>
      <point x="321" y="681" type="line" smooth="yes"/>
      <point x="355" y="681"/>
      <point x="362" y="671"/>
      <point x="362" y="603" type="curve" smooth="yes"/>
      <point x="362" y="393" type="line"/>
      <point x="158" y="393" type="line"/>
      <point x="158" y="603" type="line" smooth="yes"/>
      <point x="158" y="671"/>
      <point x="165" y="681"/>
      <point x="200" y="681" type="curve" smooth="yes"/>
      <point x="225" y="681" type="line"/>
      <point x="225" y="714" type="line"/>
      <point x="23" y="714" type="line"/>
      <point x="23" y="681" type="line"/>
      <point x="42" y="681" type="line" smooth="yes"/>
      <point x="75" y="681"/>
      <point x="83" y="671"/>
      <point x="83" y="604" type="curve" smooth="yes"/>
      <point x="83" y="112" type="line" smooth="yes"/>
      <point x="83" y="43"/>
      <point x="75" y="33"/>
      <point x="42" y="33" type="curve" smooth="yes"/>
      <point x="23" y="33" type="line"/>
      <point x="23" y="0" type="line"/>
      <point x="109" y="0" type="line"/>
      <point x="98" y="-66" type="line"/>
      <point x="130" y="-72"/>
      <point x="151" y="-90"/>
      <point x="151" y="-129" type="curve" smooth="yes"/>
      <point x="151" y="-171"/>
      <point x="133" y="-188"/>
      <point x="104" y="-188" type="curve" smooth="yes"/>
      <point x="96" y="-188"/>
      <point x="78" y="-185"/>
      <point x="63" y="-181" type="curve"/>
      <point x="63" y="-218" type="line"/>
      <point x="78" y="-225"/>
      <point x="98" y="-229"/>
    </contour>
  </outline>
</glyph>
<glyph name="LL.middleWelsh" format="2">
  <advance width="612"/>
  <unicode hex="1EFA"/>
  <anchor x="306" y="0" name="bottom"/>
  <anchor x="306" y="714" name="top"/>
  <outline>
    <contour>
      <point x="23" y="0" type="line"/>
      <point x="584" y="0" type="line"/>
      <point x="587" y="212" type="line"/>
      <point x="558" y="212" type="line"/>
      <point x="551" y="115" type="line" smooth="yes"/>
      <point x="546" y="58"/>
      <point x="535" y="39"/>
      <point x="494" y="39" type="curve" smooth="yes"/>
      <point x="359" y="39" type="line"/>
      <point x="359" y="606" type="line" smooth="yes"/>
      <point x="359" y="669"/>
      <point x="365" y="681"/>
      <point x="406" y="681" type="curve" smooth="yes"/>
      <point x="426" y="681" type="line"/>
      <point x="426" y="714" type="line"/>
      <point x="23" y="714" type="line"/>
      <point x="23" y="681" type="line"/>
      <point x="40" y="681" type="line" smooth="yes"/>
      <point x="75" y="681"/>
      <point x="85" y="669"/>
      <point x="85" y="604" type="curve" smooth="yes"/>
      <point x="85" y="109" type="line" smooth="yes"/>
      <point x="85" y="45"/>
      <point x="75" y="33"/>
      <point x="40" y="33" type="curve" smooth="yes"/>
      <point x="23" y="33" type="line"/>
    </contour>
    <contour>
      <point x="204" y="33" type="line" smooth="yes"/>
      <point x="169" y="33"/>
      <point x="159" y="46"/>
      <point x="159" y="109" type="curve" smooth="yes"/>
      <point x="159" y="604" type="line" smooth="yes"/>
      <point x="159" y="669"/>
      <point x="167" y="681"/>
      <point x="204" y="681" type="curve" smooth="yes"/>
      <point x="238" y="681" type="line" smooth="yes"/>
      <point x="276" y="681"/>
      <point x="285" y="669"/>
      <point x="285" y="604" type="curve" smooth="yes"/>
      <point x="285" y="108" type="line" smooth="yes"/>
      <point x="285" y="45"/>
      <point x="276" y="33"/>
      <point x="240" y="33" type="curve" smooth="yes"/>
    </contour>
  </outline>
</glyph>
<glyph name="uni1FBE" format="2">
  <advance width="168"/>
  <unicode hex="1FBE"/>
  <outline>
    <contour>
      <point x="109" y="-231" type="curve" smooth="yes"/>
      <point x="127" y="-231"/>
      <point x="145" y="-225"/>
      <point x="152" y="-220" type="curve"/>
      <point x="152" y="-189" type="line"/>
      <point x="138" y="-194"/>
      <point x="131" y="-194"/>
      <point x="124" y="-194" type="curve" smooth="yes"/>
      <point x="106" y="-194"/>
      <point x="100" y="-183"/>
      <point x="100" y="-158" type="curve" smooth="yes"/>
      <point x="100" y="-71" type="line"/>
      <point x="51" y="-71" type="line"/>
      <point x="51" y="-157" type="line" smooth="yes"/>
      <point x="51" y="-212"/>
      <point x="78" y="-231"/>
    </contour>
  </outline>
</glyph>
<glyph name="uni1FDE" format="2">
  <advance width="259"/>
  <unicode hex="1FDE"/>
  <anchor x="134" y="536" name="_top"/>
  <anchor x="134" y="718" name="top"/>
  <outline>
    <contour>
      <point x="120" y="550" type="curve"/>
      <point x="120" y="573" type="line"/>
      <point x="90" y="590"/>
      <point x="74" y="604"/>
      <point x="74" y="633" type="curve" smooth="yes"/>
      <point x="74" y="661"/>
      <point x="114" y="654"/>
      <point x="114" y="689" type="curve" smooth="yes"/>
      <point x="114" y="703"/>
      <point x="103" y="718"/>
      <point x="82" y="718" type="curve" smooth="yes"/>
      <point x="53" y="718"/>
      <point x="34" y="692"/>
      <point x="34" y="654" type="curve" smooth="yes"/>
      <point x="34" y="615"/>
      <point x="56" y="571"/>
    </contour>
    <contour>
      <point x="131" y="552" type="line"/>
      <point x="155" y="552" type="line"/>
      <point x="174" y="582"/>
      <point x="216" y="671"/>
      <point x="234" y="707" type="curve"/>
      <point x="234" y="715" type="line"/>
      <point x="173" y="715" type="line"/>
      <point x="166" y="669"/>
      <point x="149" y="604"/>
      <point x="131" y="563" type="curve"/>
    </contour>
  </outline>
</glyph>
<glyph name="uni1FED" format="2">
  <advance width="374"/>
  <unicode hex="1FED"/>
  <anchor x="187" y="536" name="_top"/>
  <outline>
    <contour>
      <point x="194" y="641" type="curve"/>
      <point x="223" y="641" type="line"/>
      <point x="223" y="654" type="line"/>
      <point x="219" y="677"/>
      <point x="205" y="749"/>
      <point x="202" y="790" type="curve"/>
      <point x="123" y="790" type="line"/>
      <point x="123" y="782" type="line"/>
      <point x="136" y="749"/>
      <point x="176" y="669"/>
    </contour>
    <contour>
      <point x="97" y="635" type="curve" smooth="yes"/>
      <point x="114" y="635"/>
      <point x="131" y="644"/>
      <point x="131" y="682" type="curve" smooth="yes"/>
      <point x="131" y="722"/>
      <point x="114" y="731"/>
      <point x="97" y="731" type="curve" smooth="yes"/>
      <point x="76" y="731"/>
      <point x="64" y="722"/>
      <point x="64" y="682" type="curve" smooth="yes"/>
      <point x="64" y="644"/>
      <point x="76" y="635"/>
    </contour>
    <contour>
      <point x="275" y="635" type="curve" smooth="yes"/>
      <point x="293" y="635"/>
      <point x="309" y="644"/>
      <point x="309" y="682" type="curve" smooth="yes"/>
      <point x="309" y="722"/>
      <point x="293" y="731"/>
      <point x="275" y="731" type="curve" smooth="yes"/>
      <point x="255" y="731"/>
      <point x="240" y="722"/>
      <point x="240" y="682" type="curve" smooth="yes"/>
      <point x="240" y="644"/>
      <point x="255" y="635"/>
    </contour>
  </outline>
</glyph>
<glyph name="uni2012" format="2">
  <advance width="360"/>
  <unicode hex="2012"/>
  <outline>
    <contour>
      <point x="332" y="392" type="line"/>
      <point x="27" y="392" type="line"/>
      <point x="27" y="342" type="line"/>
      <point x="332" y="342" type="line"/>
    </contour>
  </outline>
</glyph>
<glyph name="emdash" format="2">
  <advance width="1000"/>
  <unicode hex="2014"/>
  <outline>
    <contour>
      <point x="-3" y="246" type="line"/>
      <point x="1003" y="246" type="line"/>
      <point x="1003" y="289" type="line"/>
      <point x="-3" y="289" type="line"/>
    </contour>
  </outline>
</glyph>
<glyph name="ellipsis" format="2">
  <advance width="792"/>
  <unicode hex="2026"/>
  <outline>
    <contour>
      <point x="681" y="-7" type="curve" smooth="yes"/>
      <point x="703" y="-7"/>
      <point x="724" y="7"/>
      <point x="724" y="48" type="curve" smooth="yes"/>
      <point x="724" y="89"/>
      <point x="703" y="104"/>
      <point x="681" y="104" type="curve" smooth="yes"/>
      <point x="655" y="104"/>
      <point x="634" y="89"/>
      <point x="634" y="48" type="curve" smooth="yes"/>
      <point x="634" y="7"/>
      <point x="655" y="-7"/>
    </contour>
    <contour>
      <point x="115" y="-7" type="curve" smooth="yes"/>
      <point x="137" y="-7"/>
      <point x="157" y="7"/>
      <point x="157" y="48" type="curve" smooth="yes"/>
      <point x="157" y="89"/>
      <point x="137" y="104"/>
      <point x="115" y="104" type="curve" smooth="yes"/>
      <point x="87" y="104"/>
      <point x="68" y="89"/>
      <point x="68" y="48" type="curve" smooth="yes"/>
      <point x="68" y="7"/>
      <point x="87" y="-7"/>
    </contour>
    <contour>
      <point x="397" y="-7" type="curve" smooth="yes"/>
      <point x="419" y="-7"/>
      <point x="440" y="7"/>
      <point x="440" y="48" type="curve" smooth="yes"/>
      <point x="440" y="89"/>
      <point x="419" y="104"/>
      <point x="397" y="104" type="curve" smooth="yes"/>
      <point x="370" y="104"/>
      <point x="350" y="89"/>
      <point x="350" y="48" type="curve" smooth="yes"/>
      <point x="350" y="7"/>
      <point x="370" y="-7"/>
    </contour>
  </outline>
</glyph>
<glyph name="perthousand" format="2">
  <advance width="859"/>
  <unicode hex="2030"/>
  <outline>
    <contour>
      <point x="154" y="0" type="line"/>
      <point x="198" y="0" type="line"/>
      <point x="436" y="714" type="line"/>
      <point x="391" y="714" type="line"/>
    </contour>
    <contour>
      <point x="142" y="280" type="curve" smooth="yes"/>
      <point x="222" y="280"/>
      <point x="261" y="359"/>
      <point x="261" y="503" type="curve"/>
      <point x="261" y="649"/>
      <point x="223" y="724"/>
      <point x="143" y="724" type="curve" smooth="yes"/>
      <point x="62" y="724"/>
      <point x="26" y="647"/>
      <point x="26" y="503" type="curve" smooth="yes"/>
      <point x="26" y="354"/>
      <point x="63" y="280"/>
    </contour>
    <contour>
      <point x="143" y="315" type="curve" smooth="yes"/>
      <point x="94" y="315"/>
      <point x="81" y="385"/>
      <point x="81" y="503" type="curve"/>
      <point x="81" y="620"/>
      <point x="94" y="689"/>
      <point x="143" y="689" type="curve" smooth="yes"/>
      <point x="196" y="689"/>
      <point x="206" y="620"/>
      <point x="206" y="503" type="curve" smooth="yes"/>
      <point x="206" y="385"/>
      <point x="195" y="315"/>
    </contour>
    <contour>
      <point x="451" y="-10" type="curve" smooth="yes"/>
      <point x="530" y="-10"/>
      <point x="568" y="69"/>
      <point x="568" y="213" type="curve" smooth="yes"/>
      <point x="568" y="359"/>
      <point x="531" y="434"/>
      <point x="452" y="434" type="curve" smooth="yes"/>
      <point x="370" y="434"/>
      <point x="334" y="357"/>
      <point x="334" y="213" type="curve" smooth="yes"/>
      <point x="334" y="64"/>
      <point x="371" y="-10"/>
    </contour>
    <contour>
      <point x="451" y="25" type="curve" smooth="yes"/>
      <point x="402" y="25"/>
      <point x="388" y="95"/>
      <point x="388" y="213" type="curve" smooth="yes"/>
      <point x="388" y="330"/>
      <point x="402" y="399"/>
      <point x="452" y="399" type="curve" smooth="yes"/>
      <point x="503" y="399"/>
      <point x="514" y="330"/>
      <point x="514" y="213" type="curve" smooth="yes"/>
      <point x="514" y="95"/>
      <point x="502" y="25"/>
    </contour>
    <contour>
      <point x="715" y="-10" type="curve" smooth="yes"/>
      <point x="795" y="-10"/>
      <point x="834" y="69"/>
      <point x="834" y="213" type="curve" smooth="yes"/>
      <point x="834" y="359"/>
      <point x="795" y="434"/>
      <point x="717" y="434" type="curve" smooth="yes"/>
      <point x="635" y="434"/>
      <point x="600" y="357"/>
      <point x="600" y="213" type="curve" smooth="yes"/>
      <point x="600" y="64"/>
      <point x="636" y="-10"/>
    </contour>
    <contour>
      <point x="715" y="25" type="curve" smooth="yes"/>
      <point x="667" y="25"/>
      <point x="653" y="95"/>
      <point x="653" y="213" type="curve" smooth="yes"/>
      <point x="653" y="330"/>
      <point x="667" y="399"/>
      <point x="716" y="399" type="curve" smooth="yes"/>
      <point x="768" y="399"/>
      <point x="779" y="330"/>
      <point x="779" y="213" type="curve" smooth="yes"/>
      <point x="779" y="95"/>
      <point x="768" y="25"/>
    </contour>
  </outline>
</glyph>
<glyph name="caret" format="2">
  <advance width="270"/>
  <unicode hex="2038"/>
  <outline>
    <contour>
      <point x="27" y="-240" type="line"/>
      <point x="78" y="-240" type="line"/>
      <point x="134" y="-72" type="line"/>
      <point x="192" y="-240" type="line"/>
      <point x="243" y="-240" type="line"/>
      <point x="150" y="42" type="line"/>
      <point x="117" y="42" type="line"/>
    </contour>
  </outline>
</glyph>
<glyph name="commercialMinusSign" format="2">
  <advance width="231"/>
  <unicode hex="2052"/>
  <outline>
    <contour>
      <point x="14" y="0" type="line"/>
      <point x="60" y="0" type="line"/>
      <point x="217" y="714" type="line"/>
      <point x="171" y="714" type="line"/>
    </contour>
    <contour>
      <point x="165" y="-9" type="curve" smooth="yes"/>
      <point x="188" y="-9"/>
      <point x="211" y="5"/>
      <point x="211" y="47" type="curve" smooth="yes"/>
      <point x="211" y="90"/>
      <point x="188" y="104"/>
      <point x="165" y="104" type="curve" smooth="yes"/>
      <point x="137" y="104"/>
      <point x="115" y="90"/>
      <point x="115" y="47" type="curve" smooth="yes"/>
      <point x="115" y="5"/>
      <point x="137" y="-9"/>
    </contour>
    <contour>
      <point x="70" y="609" type="curve" smooth="yes"/>
      <point x="94" y="609"/>
      <point x="116" y="623"/>
      <point x="116" y="664" type="curve" smooth="yes"/>
      <point x="116" y="706"/>
      <point x="94" y="721"/>
      <point x="70" y="721" type="curve" smooth="yes"/>
      <point x="42" y="721"/>
      <point x="21" y="706"/>
      <point x="21" y="664" type="curve" smooth="yes"/>
      <point x="21" y="623"/>
      <point x="42" y="609"/>
    </contour>
  </outline>
</glyph>
<glyph name="fourdotmark" format="2">
  <advance width="501"/>
  <unicode hex="205B"/>
  <outline>
    <contour>
      <point x="251" y="613" type="curve" smooth="yes"/>
      <point x="274" y="613"/>
      <point x="294" y="628"/>
      <point x="294" y="668" type="curve" smooth="yes"/>
      <point x="294" y="710"/>
      <point x="274" y="724"/>
      <point x="251" y="724" type="curve" smooth="yes"/>
      <point x="224" y="724"/>
      <point x="205" y="710"/>
      <point x="205" y="668" type="curve" smooth="yes"/>
      <point x="205" y="628"/>
      <point x="224" y="613"/>
    </contour>
    <contour>
      <point x="251" y="-9" type="curve" smooth="yes"/>
      <point x="274" y="-9"/>
      <point x="294" y="4"/>
      <point x="294" y="45" type="curve" smooth="yes"/>
      <point x="294" y="86"/>
      <point x="274" y="101"/>
      <point x="251" y="101" type="curve" smooth="yes"/>
      <point x="224" y="101"/>
      <point x="205" y="86"/>
      <point x="205" y="45" type="curve" smooth="yes"/>
      <point x="205" y="4"/>
      <point x="224" y="-9"/>
    </contour>
    <contour>
      <point x="83" y="305" type="curve" smooth="yes"/>
      <point x="106" y="305"/>
      <point x="127" y="319"/>
      <point x="127" y="360" type="curve" smooth="yes"/>
      <point x="127" y="402"/>
      <point x="106" y="416"/>
      <point x="83" y="416" type="curve" smooth="yes"/>
      <point x="56" y="416"/>
      <point x="37" y="402"/>
      <point x="37" y="360" type="curve" smooth="yes"/>
      <point x="37" y="319"/>
      <point x="56" y="305"/>
    </contour>
    <contour>
      <point x="421" y="305" type="curve" smooth="yes"/>
      <point x="444" y="305"/>
      <point x="465" y="320"/>
      <point x="465" y="360" type="curve" smooth="yes"/>
      <point x="465" y="402"/>
      <point x="444" y="417"/>
      <point x="421" y="417" type="curve" smooth="yes"/>
      <point x="394" y="417"/>
      <point x="375" y="402"/>
      <point x="375" y="360" type="curve" smooth="yes"/>
      <point x="375" y="320"/>
      <point x="394" y="305"/>
    </contour>
  </outline>
</glyph>
<glyph name="sheqel" format="2">
  <advance width="600"/>
  <unicode hex="20AA"/>
  <outline>
    <contour>
      <point x="70" y="0" type="line"/>
      <point x="134" y="0" type="line"/>
      <point x="134" y="553" type="line"/>
      <point x="244" y="553" type="line" smooth="yes"/>
      <point x="334" y="553"/>
      <point x="333" y="497"/>
      <point x="333" y="351" type="curve" smooth="yes"/>
      <point x="333" y="210" type="line"/>
      <point x="397" y="210" type="line"/>
      <point x="397" y="375" type="line" smooth="yes"/>
      <point x="397" y="533"/>
      <point x="360" y="599"/>
      <point x="252" y="599" type="curve" smooth="yes"/>
      <point x="70" y="599" type="line"/>
    </contour>
    <contour>
      <point x="206" y="0" type="line"/>
      <point x="381" y="0" type="line"/>
      <point x="486" y="0"/>
      <point x="530" y="63"/>
      <point x="530" y="224" type="curve" smooth="yes"/>
      <point x="530" y="599" type="line"/>
      <point x="465" y="599" type="line"/>
      <point x="465" y="248" type="line" smooth="yes"/>
      <point x="465" y="92"/>
      <point x="456" y="46"/>
      <point x="374" y="46" type="curve" smooth="yes"/>
      <point x="270" y="46" type="line"/>
      <point x="270" y="389" type="line"/>
      <point x="206" y="389" type="line"/>
    </contour>
  </outline>
</glyph>
<glyph name="uni20BE" format="2">
  <advance width="439"/>
  <unicode hex="20BE"/>
  <outline>
    <contour>
      <point x="202" y="42" type="curve"/>
      <point x="243" y="56" type="line"/>
      <point x="141" y="122"/>
      <point x="96" y="228"/>
      <point x="96" y="369" type="curve" smooth="yes"/>
      <point x="96" y="516"/>
      <point x="123" y="624"/>
      <point x="229" y="624" type="curve" smooth="yes"/>
      <point x="371" y="624"/>
      <point x="351" y="478"/>
      <point x="351" y="391" type="curve"/>
      <point x="382" y="391"/>
      <point x="410" y="425"/>
      <point x="410" y="466" type="curve" smooth="yes"/>
      <point x="410" y="539"/>
      <point x="377" y="664"/>
      <point x="229" y="664" type="curve" smooth="yes"/>
      <point x="97" y="664"/>
      <point x="31" y="551"/>
      <point x="31" y="369" type="curve" smooth="yes"/>
      <point x="31" y="217"/>
      <point x="92" y="108"/>
    </contour>
    <contour>
      <point x="34" y="0" type="line"/>
      <point x="393" y="0" type="line"/>
      <point x="393" y="62" type="line"/>
      <point x="34" y="62" type="line"/>
    </contour>
    <contour>
      <point x="172" y="391" type="line"/>
      <point x="211" y="391" type="line"/>
      <point x="211" y="760" type="line"/>
      <point x="172" y="760" type="line"/>
    </contour>
    <contour>
      <point x="243" y="391" type="line"/>
      <point x="281" y="391" type="line"/>
      <point x="281" y="760" type="line"/>
      <point x="243" y="760" type="line"/>
    </contour>
  </outline>
</glyph>
<glyph name="versicle" format="2">
  <advance width="442"/>
  <unicode hex="2123"/>
  <anchor x="221" y="714" name="top"/>
  <anchor x="422" y="714" name="topright"/>
  <anchor x="221" y="0" name="bottom"/>
  <outline>
    <contour>
      <point x="68" y="-121" type="line"/>
      <point x="110" y="-121" type="line"/>
      <point x="323" y="794" type="line"/>
      <point x="174" y="870" type="line"/>
      <point x="161" y="833" type="line"/>
      <point x="278" y="772" type="line"/>
    </contour>
    <component base="V"/>
  </outline>
</glyph>
<glyph name="alephsymbol" format="2">
  <advance width="477"/>
  <unicode hex="2135"/>
  <outline>
    <contour>
      <point x="384" y="-26" type="curve"/>
      <point x="432" y="18" type="line"/>
      <point x="401" y="77"/>
      <point x="362" y="149"/>
      <point x="316" y="229" type="curve"/>
      <point x="383" y="325"/>
      <point x="417" y="468"/>
      <point x="423" y="578" type="curve"/>
      <point x="351" y="578" type="line"/>
      <point x="346" y="485"/>
      <point x="329" y="369"/>
      <point x="276" y="278" type="curve"/>
      <point x="211" y="389"/>
      <point x="134" y="511"/>
      <point x="71" y="598" type="curve"/>
      <point x="25" y="549" type="line"/>
      <point x="58" y="507"/>
      <point x="92" y="461"/>
      <point x="131" y="400" type="curve"/>
      <point x="55" y="267"/>
      <point x="27" y="124"/>
      <point x="24" y="-1" type="curve"/>
      <point x="91" y="-1" type="line"/>
      <point x="93" y="101"/>
      <point x="116" y="232"/>
      <point x="173" y="352" type="curve"/>
      <point x="252" y="220"/>
      <point x="327" y="79"/>
    </contour>
  </outline>
</glyph>
<glyph name="uni2C62" format="2">
  <advance width="418"/>
  <unicode hex="2C62"/>
  <anchor x="208" y="0" name="bottom"/>
  <anchor x="208" y="714" name="top"/>
  <anchor x="398" y="714" name="topright"/>
  <anchor x="213" y="357" name="center"/>
  <outline>
    <contour>
      <point x="1" y="305" type="curve"/>
      <point x="41" y="305" type="line"/>
      <point x="40" y="338"/>
      <point x="48" y="361"/>
      <point x="69" y="361" type="curve" smooth="yes"/>
      <point x="105" y="361"/>
      <point x="133" y="292"/>
      <point x="186" y="292" type="curve" smooth="yes"/>
      <point x="243" y="292"/>
      <point x="257" y="348"/>
      <point x="260" y="402" type="curve"/>
      <point x="221" y="402" type="line"/>
      <point x="219" y="369"/>
      <point x="211" y="343"/>
      <point x="189" y="343" type="curve" smooth="yes"/>
      <point x="146" y="343"/>
      <point x="118" y="413"/>
      <point x="71" y="413" type="curve" smooth="yes"/>
      <point x="16" y="413"/>
      <point x="3" y="360"/>
    </contour>
    <component base="L" xOffset="8"/>
  </outline>
</glyph>
<glyph name="uni2C73" format="2">
  <advance width="609"/>
  <unicode hex="2C73"/>
  <anchor x="306" y="0" name="bottom"/>
  <anchor x="306" y="536" name="top"/>
  <outline>
    <contour>
      <point x="134" y="0" type="line"/>
      <point x="191" y="0" type="line"/>
      <point x="277" y="432" type="line"/>
      <point x="358" y="0" type="line"/>
      <point x="417" y="0" type="line"/>
      <point x="491" y="369" type="line" smooth="yes"/>
      <point x="511" y="465"/>
      <point x="520" y="484"/>
      <point x="543" y="484" type="curve" smooth="yes"/>
      <point x="556" y="484"/>
      <point x="565" y="470"/>
      <point x="565" y="438" type="curve"/>
      <point x="580" y="445"/>
      <point x="590" y="457"/>
      <point x="590" y="484" type="curve" smooth="yes"/>
      <point x="590" y="518"/>
      <point x="570" y="541"/>
      <point x="538" y="541" type="curve" smooth="yes"/>
      <point x="486" y="541"/>
      <point x="470" y="468"/>
      <point x="448" y="353" type="curve" smooth="yes"/>
      <point x="432" y="244" type="line" smooth="yes"/>
      <point x="416" y="165"/>
      <point x="406" y="110"/>
      <point x="402" y="66" type="curve"/>
      <point x="399" y="66" type="line"/>
      <point x="396" y="107"/>
      <point x="387" y="185"/>
      <point x="377" y="229" type="curve" smooth="yes"/>
      <point x="312" y="534" type="line"/>
      <point x="272" y="534" type="line"/>
      <point x="206" y="223" type="line" smooth="yes"/>
      <point x="197" y="180"/>
      <point x="181" y="104"/>
      <point x="180" y="69" type="curve"/>
      <point x="176" y="69" type="line"/>
      <point x="174" y="105"/>
      <point x="161" y="184"/>
      <point x="154" y="232" type="curve" smooth="yes"/>
      <point x="124" y="414" type="line" smooth="yes"/>
      <point x="121" y="433"/>
      <point x="114" y="467"/>
      <point x="114" y="474" type="curve" smooth="yes"/>
      <point x="114" y="493"/>
      <point x="121" y="503"/>
      <point x="148" y="503" type="curve" smooth="yes"/>
      <point x="168" y="503" type="line"/>
      <point x="168" y="536" type="line"/>
      <point x="1" y="536" type="line"/>
      <point x="1" y="503" type="line"/>
      <point x="-7" y="503" type="line" smooth="yes"/>
      <point x="27" y="503"/>
      <point x="39" y="498"/>
      <point x="47" y="450" type="curve" smooth="yes"/>
    </contour>
  </outline>
</glyph>
<glyph name="uni2C74" format="2">
  <advance width="363"/>
  <unicode hex="2C74"/>
  <anchor x="182" y="0" name="bottom"/>
  <anchor x="182" y="536" name="top"/>
  <outline>
    <contour>
      <point x="139" y="0" type="line"/>
      <point x="205" y="0" type="line"/>
      <point x="313" y="450" type="line" smooth="yes"/>
      <point x="323" y="496"/>
      <point x="334" y="503"/>
      <point x="356" y="503" type="curve" smooth="yes"/>
      <point x="363" y="503" type="line"/>
      <point x="363" y="536" type="line"/>
      <point x="221" y="536" type="line"/>
      <point x="221" y="503" type="line"/>
      <point x="239" y="503" type="line" smooth="yes"/>
      <point x="268" y="503"/>
      <point x="277" y="495"/>
      <point x="277" y="477" type="curve" smooth="yes"/>
      <point x="277" y="463"/>
      <point x="267" y="429"/>
      <point x="252" y="368" type="curve" smooth="yes"/>
      <point x="216" y="211" type="line" smooth="yes"/>
      <point x="196" y="131"/>
      <point x="189" y="83"/>
      <point x="185" y="55" type="curve"/>
      <point x="181" y="91"/>
      <point x="163" y="177"/>
      <point x="156" y="222" type="curve" smooth="yes"/>
      <point x="137" y="324" type="line"/>
      <point x="178" y="341"/>
      <point x="197" y="389"/>
      <point x="197" y="443" type="curve" smooth="yes"/>
      <point x="197" y="512"/>
      <point x="167" y="546"/>
      <point x="122" y="546" type="curve" smooth="yes"/>
      <point x="75" y="546"/>
      <point x="43" y="505"/>
      <point x="45" y="452" type="curve" smooth="yes"/>
      <point x="45" y="419"/>
      <point x="55" y="383"/>
      <point x="62" y="357" type="curve" smooth="yes"/>
      <point x="64" y="348" type="line"/>
      <point x="49" y="350"/>
      <point x="32" y="354"/>
      <point x="20" y="362" type="curve"/>
      <point x="9" y="323" type="line"/>
      <point x="30" y="315"/>
      <point x="50" y="309"/>
      <point x="74" y="309" type="curve"/>
    </contour>
    <contour>
      <point x="127" y="360" type="curve"/>
      <point x="120" y="384" type="line" smooth="yes"/>
      <point x="114" y="407"/>
      <point x="107" y="429"/>
      <point x="107" y="458" type="curve" smooth="yes"/>
      <point x="107" y="484"/>
      <point x="118" y="505"/>
      <point x="132" y="505" type="curve" smooth="yes"/>
      <point x="150" y="505"/>
      <point x="159" y="480"/>
      <point x="159" y="444" type="curve" smooth="yes"/>
      <point x="159" y="409"/>
      <point x="154" y="374"/>
    </contour>
  </outline>
</glyph>
<glyph name="dottedtranspositionmarker" format="2">
  <advance width="323"/>
  <unicode hex="2E08"/>
  <outline>
    <contour>
      <point x="131" y="212" type="curve" smooth="yes"/>
      <point x="186" y="212"/>
      <point x="236" y="257"/>
      <point x="236" y="348" type="curve" smooth="yes"/>
      <point x="236" y="411"/>
      <point x="217" y="448"/>
      <point x="191" y="490" type="curve" smooth="yes"/>
      <point x="165" y="530"/>
      <point x="146" y="557"/>
      <point x="146" y="602" type="curve" smooth="yes"/>
      <point x="146" y="648"/>
      <point x="169" y="679"/>
      <point x="204" y="679" type="curve" smooth="yes"/>
      <point x="232" y="679"/>
      <point x="254" y="664"/>
      <point x="278" y="645" type="curve"/>
      <point x="299" y="708" type="line"/>
      <point x="271" y="733"/>
      <point x="243" y="749"/>
      <point x="204" y="749" type="curve" smooth="yes"/>
      <point x="146" y="749"/>
      <point x="98" y="697"/>
      <point x="98" y="598" type="curve" smooth="yes"/>
      <point x="98" y="535"/>
      <point x="120" y="495"/>
      <point x="146" y="453" type="curve" smooth="yes"/>
      <point x="169" y="418"/>
      <point x="187" y="386"/>
      <point x="187" y="347" type="curve" smooth="yes"/>
      <point x="187" y="307"/>
      <point x="167" y="282"/>
      <point x="131" y="282" type="curve" smooth="yes"/>
      <point x="99" y="282"/>
      <point x="72" y="296"/>
      <point x="53" y="312" type="curve"/>
      <point x="35" y="246" type="line"/>
      <point x="61" y="225"/>
      <point x="95" y="212"/>
    </contour>
    <contour>
      <point x="265" y="479" type="curve" smooth="yes"/>
      <point x="284" y="479"/>
      <point x="299" y="495"/>
      <point x="299" y="535" type="curve" smooth="yes"/>
      <point x="299" y="572"/>
      <point x="286" y="591"/>
      <point x="265" y="591" type="curve" smooth="yes"/>
      <point x="240" y="591"/>
      <point x="230" y="571"/>
      <point x="230" y="535" type="curve" smooth="yes"/>
      <point x="230" y="495"/>
      <point x="246" y="479"/>
    </contour>
  </outline>
</glyph>
<glyph name="tilderingabove" format="2">
  <advance width="371"/>
  <unicode hex="2E1B"/>
  <outline>
    <contour>
      <point x="33" y="292" type="line"/>
      <point x="49" y="322"/>
      <point x="75" y="351"/>
      <point x="105" y="351" type="curve" smooth="yes"/>
      <point x="124" y="351"/>
      <point x="146" y="346"/>
      <point x="175" y="325" type="curve" smooth="yes"/>
      <point x="213" y="299"/>
      <point x="236" y="292"/>
      <point x="261" y="292" type="curve" smooth="yes"/>
      <point x="291" y="292"/>
      <point x="316" y="309"/>
      <point x="336" y="346" type="curve"/>
      <point x="336" y="402" type="line"/>
      <point x="319" y="374"/>
      <point x="295" y="344"/>
      <point x="262" y="344" type="curve" smooth="yes"/>
      <point x="245" y="344"/>
      <point x="223" y="349"/>
      <point x="192" y="370" type="curve" smooth="yes"/>
      <point x="153" y="397"/>
      <point x="132" y="403"/>
      <point x="108" y="403" type="curve" smooth="yes"/>
      <point x="77" y="403"/>
      <point x="51" y="387"/>
      <point x="33" y="350" type="curve"/>
    </contour>
    <contour>
      <point x="183" y="453" type="curve" smooth="yes"/>
      <point x="232" y="453"/>
      <point x="270" y="488"/>
      <point x="270" y="565" type="curve" smooth="yes"/>
      <point x="270" y="643"/>
      <point x="231" y="678"/>
      <point x="183" y="678" type="curve" smooth="yes"/>
      <point x="134" y="678"/>
      <point x="95" y="643"/>
      <point x="95" y="565" type="curve" smooth="yes"/>
      <point x="95" y="488"/>
      <point x="134" y="453"/>
    </contour>
    <contour>
      <point x="184" y="489" type="curve" smooth="yes"/>
      <point x="155" y="489"/>
      <point x="131" y="504"/>
      <point x="131" y="565" type="curve" smooth="yes"/>
      <point x="131" y="628"/>
      <point x="155" y="644"/>
      <point x="184" y="644" type="curve" smooth="yes"/>
      <point x="210" y="644"/>
      <point x="235" y="628"/>
      <point x="235" y="565" type="curve" smooth="yes"/>
      <point x="235" y="504"/>
      <point x="210" y="489"/>
    </contour>
  </outline>
</glyph>
<glyph name="brackhalftopleft" format="2">
  <advance width="247"/>
  <unicode hex="2E22"/>
  <outline>
    <contour>
      <point x="63" y="316" type="line"/>
      <point x="135" y="316" type="line"/>
      <point x="135" y="638" type="line" smooth="yes"/>
      <point x="135" y="715"/>
      <point x="145" y="727"/>
      <point x="190" y="727" type="curve" smooth="yes"/>
      <point x="222" y="727" type="line"/>
      <point x="222" y="760" type="line"/>
      <point x="63" y="760" type="line"/>
    </contour>
  </outline>
</glyph>
<glyph name="brackhalftopright" format="2">
  <advance width="248"/>
  <unicode hex="2E23"/>
  <outline>
    <contour>
      <point x="111" y="317" type="line"/>
      <point x="184" y="317" type="line"/>
      <point x="184" y="760" type="line"/>
      <point x="25" y="760" type="line"/>
      <point x="25" y="727" type="line"/>
      <point x="56" y="727" type="line" smooth="yes"/>
      <point x="102" y="727"/>
      <point x="111" y="715"/>
      <point x="111" y="638" type="curve" smooth="yes"/>
    </contour>
  </outline>
</glyph>
<glyph name="tophalfsectionsign" format="2">
  <advance width="347"/>
  <unicode hex="2E39"/>
  <outline>
    <contour>
      <point x="247" y="113" type="curve"/>
      <point x="298" y="154"/>
      <point x="324" y="212"/>
      <point x="324" y="280" type="curve" smooth="yes"/>
      <point x="324" y="344"/>
      <point x="284" y="405"/>
      <point x="204" y="460" type="curve" smooth="yes"/>
      <point x="138" y="509"/>
      <point x="111" y="545"/>
      <point x="111" y="614" type="curve" smooth="yes"/>
      <point x="111" y="685"/>
      <point x="138" y="723"/>
      <point x="181" y="723" type="curve" smooth="yes"/>
      <point x="248" y="723"/>
      <point x="246" y="671"/>
      <point x="246" y="605" type="curve"/>
      <point x="276" y="605"/>
      <point x="293" y="624"/>
      <point x="293" y="663" type="curve" smooth="yes"/>
      <point x="293" y="722"/>
      <point x="256" y="760"/>
      <point x="184" y="760" type="curve" smooth="yes"/>
      <point x="104" y="760"/>
      <point x="59" y="698"/>
      <point x="59" y="616" type="curve" smooth="yes"/>
      <point x="59" y="563"/>
      <point x="76" y="523"/>
      <point x="88" y="502" type="curve"/>
      <point x="59" y="472"/>
      <point x="44" y="432"/>
      <point x="44" y="392" type="curve" smooth="yes"/>
      <point x="44" y="325"/>
      <point x="67" y="269"/>
      <point x="163" y="202" type="curve" smooth="yes"/>
      <point x="221" y="157"/>
      <point x="239" y="132"/>
    </contour>
    <contour>
      <point x="256" y="178" type="curve"/>
      <point x="256" y="183"/>
      <point x="240" y="212"/>
      <point x="197" y="246" type="curve" smooth="yes"/>
      <point x="104" y="322"/>
      <point x="92" y="347"/>
      <point x="92" y="399" type="curve" smooth="yes"/>
      <point x="92" y="429"/>
      <point x="99" y="462"/>
      <point x="111" y="479" type="curve"/>
      <point x="128" y="453"/>
      <point x="161" y="429"/>
      <point x="188" y="407" type="curve" smooth="yes"/>
      <point x="258" y="351"/>
      <point x="273" y="307"/>
      <point x="273" y="260" type="curve" smooth="yes"/>
      <point x="273" y="230"/>
      <point x="266" y="195"/>
    </contour>
  </outline>
</glyph>
<glyph name="uni2E3F" format="2">
  <advance width="425"/>
  <unicode hex="2E3F"/>
  <outline>
    <contour>
      <point x="133" y="-111" type="line"/>
      <point x="234" y="-111" type="line"/>
      <point x="234" y="266" type="line"/>
      <point x="292" y="266" type="line"/>
      <point x="292" y="-111" type="line"/>
      <point x="400" y="-111" type="line"/>
      <point x="400" y="-78" type="line"/>
      <point x="389" y="-78" type="line" smooth="yes"/>
      <point x="344" y="-78"/>
      <point x="332" y="-68"/>
      <point x="332" y="20" type="curve" smooth="yes"/>
      <point x="332" y="266" type="line"/>
      <point x="393" y="266" type="line"/>
      <point x="393" y="304" type="line"/>
      <point x="332" y="304" type="line"/>
      <point x="332" y="677" type="line"/>
      <point x="400" y="677" type="line"/>
      <point x="400" y="714" type="line"/>
      <point x="332" y="714" type="line"/>
      <point x="332" y="790" type="line"/>
      <point x="292" y="790" type="line"/>
      <point x="292" y="714" type="line"/>
      <point x="234" y="714" type="line"/>
      <point x="234" y="790" type="line"/>
      <point x="194" y="790" type="line"/>
      <point x="194" y="713" type="line"/>
      <point x="75" y="693"/>
      <point x="22" y="608"/>
      <point x="22" y="486" type="curve" smooth="yes"/>
      <point x="22" y="359"/>
      <point x="78" y="280"/>
      <point x="194" y="268" type="curve"/>
      <point x="194" y="20" type="line" smooth="yes"/>
      <point x="194" y="-67"/>
      <point x="184" y="-78"/>
      <point x="139" y="-78" type="curve" smooth="yes"/>
      <point x="133" y="-78" type="line"/>
    </contour>
    <contour>
      <point x="194" y="307" type="line"/>
      <point x="125" y="321"/>
      <point x="98" y="393"/>
      <point x="98" y="489" type="curve" smooth="yes"/>
      <point x="98" y="586"/>
      <point x="128" y="660"/>
      <point x="194" y="674" type="curve"/>
    </contour>
    <contour>
      <point x="234" y="304" type="line"/>
      <point x="234" y="677" type="line"/>
      <point x="292" y="677" type="line"/>
      <point x="292" y="304" type="line"/>
    </contour>
  </outline>
</glyph>
<glyph name="uni2E44" format="2">
  <advance width="302"/>
  <unicode hex="2E44"/>
  <outline>
    <contour>
      <point x="76" y="536" type="line"/>
      <point x="262" y="706" type="line"/>
      <point x="194" y="753" type="line"/>
      <point x="40" y="565" type="line"/>
    </contour>
    <contour>
      <point x="76" y="-52" type="line"/>
      <point x="262" y="117" type="line"/>
      <point x="194" y="164" type="line"/>
      <point x="40" y="-24" type="line"/>
    </contour>
  </outline>
</glyph>
<glyph name="uniA648" format="2">
  <advance width="471"/>
  <unicode hex="A648"/>
  <outline>
    <contour>
      <point x="11" y="0" type="line"/>
      <point x="182" y="0" type="line"/>
      <point x="182" y="33" type="line"/>
      <point x="164" y="33" type="line" smooth="yes"/>
      <point x="123" y="33"/>
      <point x="115" y="45"/>
      <point x="115" y="111" type="curve" smooth="yes"/>
      <point x="115" y="263" type="line" smooth="yes"/>
      <point x="115" y="337"/>
      <point x="139" y="430"/>
      <point x="222" y="430" type="curve" smooth="yes"/>
      <point x="279" y="430"/>
      <point x="326" y="393"/>
      <point x="326" y="257" type="curve" smooth="yes"/>
      <point x="326" y="114" type="line" smooth="yes"/>
      <point x="326" y="44"/>
      <point x="316" y="33"/>
      <point x="278" y="33" type="curve" smooth="yes"/>
      <point x="259" y="33" type="line"/>
      <point x="259" y="0" type="line"/>
      <point x="462" y="0" type="line"/>
      <point x="462" y="33" type="line"/>
      <point x="449" y="33" type="line" smooth="yes"/>
      <point x="410" y="33"/>
      <point x="400" y="45"/>
      <point x="400" y="109" type="curve" smooth="yes"/>
      <point x="400" y="250" type="line" smooth="yes"/>
      <point x="400" y="405"/>
      <point x="344" y="460"/>
      <point x="271" y="471" type="curve"/>
      <point x="271" y="545" type="line"/>
      <point x="325" y="545" type="line"/>
      <point x="325" y="584" type="line"/>
      <point x="271" y="584" type="line"/>
      <point x="271" y="605" type="line" smooth="yes"/>
      <point x="271" y="669"/>
      <point x="280" y="681"/>
      <point x="319" y="681" type="curve" smooth="yes"/>
      <point x="335" y="681" type="line"/>
      <point x="335" y="714" type="line"/>
      <point x="132" y="714" type="line"/>
      <point x="132" y="681" type="line"/>
      <point x="147" y="681" type="line" smooth="yes"/>
      <point x="187" y="681"/>
      <point x="194" y="669"/>
      <point x="194" y="605" type="curve" smooth="yes"/>
      <point x="194" y="584" type="line"/>
      <point x="141" y="584" type="line"/>
      <point x="141" y="545" type="line"/>
      <point x="194" y="545" type="line"/>
      <point x="194" y="470" type="line"/>
      <point x="102" y="455"/>
      <point x="73" y="355"/>
      <point x="73" y="267" type="curve" smooth="yes"/>
      <point x="73" y="112" type="line" smooth="yes"/>
      <point x="73" y="45"/>
      <point x="65" y="33"/>
      <point x="24" y="33" type="curve" smooth="yes"/>
      <point x="11" y="33" type="line"/>
    </contour>
  </outline>
</glyph>
<glyph name="uniA64E" format="2">
  <advance width="466"/>
  <unicode hex="A64E"/>
  <outline>
    <contour>
      <point x="90" y="0" type="line"/>
      <point x="279" y="0" type="line" smooth="yes"/>
      <point x="407" y="0"/>
      <point x="447" y="82"/>
      <point x="447" y="199" type="curve" smooth="yes"/>
      <point x="447" y="328"/>
      <point x="398" y="392"/>
      <point x="264" y="392" type="curve" smooth="yes"/>
      <point x="224" y="392" type="line"/>
      <point x="224" y="540" type="line" smooth="yes"/>
      <point x="224" y="654"/>
      <point x="187" y="720"/>
      <point x="106" y="720" type="curve" smooth="yes"/>
      <point x="49" y="720"/>
      <point x="17" y="681"/>
      <point x="17" y="637" type="curve" smooth="yes"/>
      <point x="17" y="608"/>
      <point x="34" y="589"/>
      <point x="65" y="588" type="curve"/>
      <point x="65" y="645"/>
      <point x="79" y="679"/>
      <point x="105" y="679" type="curve" smooth="yes"/>
      <point x="140" y="679"/>
      <point x="150" y="634"/>
      <point x="150" y="552" type="curve" smooth="yes"/>
      <point x="150" y="112" type="line" smooth="yes"/>
      <point x="150" y="45"/>
      <point x="142" y="33"/>
      <point x="103" y="33" type="curve" smooth="yes"/>
      <point x="90" y="33" type="line"/>
    </contour>
    <contour>
      <point x="224" y="39" type="line"/>
      <point x="224" y="354" type="line"/>
      <point x="252" y="354" type="line" smooth="yes"/>
      <point x="337" y="354"/>
      <point x="368" y="309"/>
      <point x="368" y="198" type="curve" smooth="yes"/>
      <point x="368" y="101"/>
      <point x="348" y="39"/>
      <point x="271" y="39" type="curve" smooth="yes"/>
    </contour>
  </outline>
</glyph>
<glyph name="uniA65F" format="2">
  <advance width="443"/>
  <unicode hex="A65F"/>
  <outline>
    <contour>
      <point x="124" y="-236" type="line"/>
      <point x="312" y="-236" type="line"/>
      <point x="312" y="-203" type="line"/>
      <point x="306" y="-203" type="line" smooth="yes"/>
      <point x="266" y="-203"/>
      <point x="248" y="-195"/>
      <point x="248" y="-132" type="curve" smooth="yes"/>
      <point x="243" y="429" type="line"/>
      <point x="308" y="142" type="line" smooth="yes"/>
      <point x="314" y="111"/>
      <point x="322" y="72"/>
      <point x="322" y="59" type="curve" smooth="yes"/>
      <point x="322" y="44"/>
      <point x="314" y="39"/>
      <point x="288" y="39" type="curve" smooth="yes"/>
      <point x="280" y="39" type="line"/>
      <point x="280" y="6" type="line"/>
      <point x="440" y="6" type="line"/>
      <point x="440" y="39" type="line"/>
      <point x="408" y="39"/>
      <point x="403" y="46"/>
      <point x="390" y="96" type="curve" smooth="yes"/>
      <point x="274" y="542" type="line"/>
      <point x="184" y="542" type="line"/>
      <point x="114" y="185" type="line" smooth="yes"/>
      <point x="93" y="78"/>
      <point x="79" y="52"/>
      <point x="51" y="52" type="curve" smooth="yes"/>
      <point x="37" y="52"/>
      <point x="24" y="66"/>
      <point x="25" y="103" type="curve"/>
      <point x="12" y="97"/>
      <point x="2" y="84"/>
      <point x="2" y="57" type="curve" smooth="yes"/>
      <point x="2" y="25"/>
      <point x="22" y="1"/>
      <point x="53" y="1" type="curve" smooth="yes"/>
      <point x="101" y="1"/>
      <point x="125" y="62"/>
      <point x="148" y="179" type="curve" smooth="yes"/>
      <point x="164" y="264"/>
      <point x="180" y="366"/>
      <point x="191" y="428" type="curve"/>
      <point x="185" y="-132" type="line" smooth="yes"/>
      <point x="185" y="-195"/>
      <point x="167" y="-203"/>
      <point x="127" y="-203" type="curve"/>
      <point x="124" y="-203" type="line"/>
    </contour>
  </outline>
</glyph>
<glyph name="uniA662" format="2">
  <advance width="557"/>
  <unicode hex="A662"/>
  <outline>
    <contour>
      <point x="8" y="-210" type="line"/>
      <point x="44" y="-210" type="line"/>
      <point x="43" y="-22"/>
      <point x="54" y="0"/>
      <point x="184" y="0" type="curve" smooth="yes"/>
      <point x="254" y="0" type="line" smooth="yes"/>
      <point x="380" y="0"/>
      <point x="396" y="-23"/>
      <point x="395" y="-210" type="curve"/>
      <point x="429" y="-210" type="line"/>
      <point x="429" y="33" type="line"/>
      <point x="419" y="33" type="line" smooth="yes"/>
      <point x="375" y="33"/>
      <point x="363" y="46"/>
      <point x="363" y="118" type="curve" smooth="yes"/>
      <point x="363" y="675" type="line"/>
      <point x="460" y="675" type="line" smooth="yes"/>
      <point x="506" y="675"/>
      <point x="517" y="654"/>
      <point x="520" y="594" type="curve" smooth="yes"/>
      <point x="523" y="552" type="line"/>
      <point x="557" y="552" type="line"/>
      <point x="554" y="714" type="line"/>
      <point x="109" y="714" type="line"/>
      <point x="109" y="681" type="line"/>
      <point x="114" y="681" type="line" smooth="yes"/>
      <point x="146" y="681"/>
      <point x="168" y="678"/>
      <point x="168" y="644" type="curve" smooth="yes"/>
      <point x="168" y="478"/>
      <point x="133" y="263"/>
      <point x="55" y="39" type="curve"/>
      <point x="8" y="39" type="line"/>
    </contour>
    <contour>
      <point x="94" y="39" type="line"/>
      <point x="159" y="223"/>
      <point x="205" y="471"/>
      <point x="204" y="675" type="curve"/>
      <point x="287" y="675" type="line"/>
      <point x="287" y="39" type="line"/>
    </contour>
  </outline>
</glyph>
<glyph name="uniA665" format="2">
  <advance width="504"/>
  <unicode hex="A665"/>
  <outline>
    <contour>
      <point x="54" y="-7" type="curve" smooth="yes"/>
      <point x="102" y="-7"/>
      <point x="129" y="30"/>
      <point x="150" y="160" type="curve" smooth="yes"/>
      <point x="167" y="263"/>
      <point x="187" y="408"/>
      <point x="187" y="498" type="curve"/>
      <point x="270" y="498" type="line"/>
      <point x="270" y="105" type="line" smooth="yes"/>
      <point x="270" y="41"/>
      <point x="254" y="33"/>
      <point x="218" y="33" type="curve" smooth="yes"/>
      <point x="214" y="33" type="line"/>
      <point x="214" y="0" type="line"/>
      <point x="401" y="0" type="line"/>
      <point x="401" y="33" type="line"/>
      <point x="396" y="33" type="line" smooth="yes"/>
      <point x="360" y="33"/>
      <point x="343" y="41"/>
      <point x="343" y="105" type="curve" smooth="yes"/>
      <point x="343" y="498" type="line"/>
      <point x="400" y="498" type="line" smooth="yes"/>
      <point x="448" y="498"/>
      <point x="453" y="484"/>
      <point x="455" y="405" type="curve" smooth="yes"/>
      <point x="456" y="381" type="line"/>
      <point x="492" y="381" type="line"/>
      <point x="495" y="536" type="line"/>
      <point x="89" y="536" type="line"/>
      <point x="89" y="503" type="line"/>
      <point x="96" y="503" type="line" smooth="yes"/>
      <point x="130" y="503"/>
      <point x="153" y="497"/>
      <point x="153" y="441" type="curve" smooth="yes"/>
      <point x="153" y="408"/>
      <point x="135" y="274"/>
      <point x="126" y="218" type="curve" smooth="yes"/>
      <point x="95" y="48"/>
      <point x="76" y="44"/>
      <point x="57" y="44" type="curve" smooth="yes"/>
      <point x="39" y="44"/>
      <point x="32" y="56"/>
      <point x="32" y="83" type="curve"/>
      <point x="16" y="83"/>
      <point x="2" y="68"/>
      <point x="2" y="44" type="curve" smooth="yes"/>
      <point x="2" y="10"/>
      <point x="25" y="-7"/>
    </contour>
  </outline>
</glyph>
